<svg width="188" height="78" viewBox="0 0 188 78" fill="none" xmlns="http://www.w3.org/2000/svg">
<g filter="url(#filter0_d_248_3002)">
<rect x="16" y="12" width="156" height="46" rx="23" fill="white" shape-rendering="crispEdges"/>
<path d="M35.78 33.5C36.316 33.5 36.708 33.38 36.956 33.14C37.204 32.9 37.328 32.568 37.328 32.144C37.328 31.712 37.204 31.376 36.956 31.136C36.708 30.896 36.316 30.776 35.78 30.776H34.268V33.5H35.78ZM38.732 32.144C38.732 32.44 38.68 32.736 38.576 33.032C38.472 33.328 38.304 33.592 38.072 33.824C37.84 34.056 37.536 34.248 37.16 34.4C36.784 34.544 36.324 34.616 35.78 34.616H34.268V38H32.9V29.66H35.78C36.276 29.66 36.708 29.728 37.076 29.864C37.444 29.992 37.752 30.168 38 30.392C38.248 30.616 38.432 30.88 38.552 31.184C38.672 31.488 38.732 31.808 38.732 32.144ZM46.8367 34.688C46.8367 35.208 46.7447 35.68 46.5607 36.104C46.3847 36.52 46.1407 36.88 45.8287 37.184C45.5167 37.48 45.1527 37.708 44.7367 37.868C44.3207 38.028 43.8767 38.108 43.4047 38.108C42.9327 38.108 42.4927 38.028 42.0847 37.868C41.6847 37.708 41.3367 37.48 41.0407 37.184C40.7447 36.88 40.5127 36.52 40.3447 36.104C40.1767 35.68 40.0927 35.208 40.0927 34.688C40.0927 34.168 40.1807 33.7 40.3567 33.284C40.5327 32.86 40.7727 32.5 41.0767 32.204C41.3807 31.908 41.7367 31.68 42.1447 31.52C42.5527 31.36 42.9927 31.28 43.4647 31.28C43.9367 31.28 44.3767 31.36 44.7847 31.52C45.1927 31.68 45.5487 31.908 45.8527 32.204C46.1567 32.5 46.3967 32.86 46.5727 33.284C46.7487 33.7 46.8367 34.168 46.8367 34.688ZM41.4847 34.688C41.4847 35.064 41.5367 35.392 41.6407 35.672C41.7447 35.952 41.8847 36.184 42.0607 36.368C42.2367 36.552 42.4407 36.692 42.6727 36.788C42.9047 36.876 43.1487 36.92 43.4047 36.92C43.6607 36.92 43.9087 36.876 44.1487 36.788C44.3967 36.692 44.6127 36.552 44.7967 36.368C44.9887 36.184 45.1407 35.952 45.2527 35.672C45.3727 35.392 45.4327 35.064 45.4327 34.688C45.4327 34.312 45.3767 33.988 45.2647 33.716C45.1527 33.436 45.0047 33.204 44.8207 33.02C44.6367 32.836 44.4247 32.7 44.1847 32.612C43.9447 32.516 43.6967 32.468 43.4407 32.468C43.1847 32.468 42.9367 32.516 42.6967 32.612C42.4647 32.7 42.2567 32.836 42.0727 33.02C41.8967 33.204 41.7527 33.436 41.6407 33.716C41.5367 33.988 41.4847 34.312 41.4847 34.688ZM54.9891 34.688C54.9891 35.208 54.8971 35.68 54.7131 36.104C54.5371 36.52 54.2931 36.88 53.9811 37.184C53.6691 37.48 53.3051 37.708 52.8891 37.868C52.4731 38.028 52.0291 38.108 51.5571 38.108C51.0851 38.108 50.6451 38.028 50.2371 37.868C49.8371 37.708 49.4891 37.48 49.1931 37.184C48.8971 36.88 48.6651 36.52 48.4971 36.104C48.3291 35.68 48.2451 35.208 48.2451 34.688C48.2451 34.168 48.3331 33.7 48.5091 33.284C48.6851 32.86 48.9251 32.5 49.2291 32.204C49.5331 31.908 49.8891 31.68 50.2971 31.52C50.7051 31.36 51.1451 31.28 51.6171 31.28C52.0891 31.28 52.5291 31.36 52.9371 31.52C53.3451 31.68 53.7011 31.908 54.0051 32.204C54.3091 32.5 54.5491 32.86 54.7251 33.284C54.9011 33.7 54.9891 34.168 54.9891 34.688ZM49.6371 34.688C49.6371 35.064 49.6891 35.392 49.7931 35.672C49.8971 35.952 50.0371 36.184 50.2131 36.368C50.3891 36.552 50.5931 36.692 50.8251 36.788C51.0571 36.876 51.3011 36.92 51.5571 36.92C51.8131 36.92 52.0611 36.876 52.3011 36.788C52.5491 36.692 52.7651 36.552 52.9491 36.368C53.1411 36.184 53.2931 35.952 53.4051 35.672C53.5251 35.392 53.5851 35.064 53.5851 34.688C53.5851 34.312 53.5291 33.988 53.4171 33.716C53.3051 33.436 53.1571 33.204 52.9731 33.02C52.7891 32.836 52.5771 32.7 52.3371 32.612C52.0971 32.516 51.8491 32.468 51.5931 32.468C51.3371 32.468 51.0891 32.516 50.8491 32.612C50.6171 32.7 50.4091 32.836 50.2251 33.02C50.0491 33.204 49.9051 33.436 49.7931 33.716C49.6891 33.988 49.6371 34.312 49.6371 34.688ZM56.8414 29.12H58.2094V38H56.8414V29.12Z" fill="#D0D5DD"/>
<path d="M110.756 29.624C111.428 29.624 112.036 29.724 112.58 29.924C113.124 30.124 113.588 30.408 113.972 30.776C114.356 31.136 114.652 31.576 114.86 32.096C115.068 32.616 115.172 33.192 115.172 33.824C115.172 34.456 115.068 35.032 114.86 35.552C114.652 36.064 114.356 36.504 113.972 36.872C113.588 37.232 113.124 37.512 112.58 37.712C112.036 37.904 111.428 38 110.756 38H107.828V29.624H110.756ZM110.696 36.572C111.584 36.572 112.264 36.332 112.736 35.852C113.216 35.372 113.456 34.696 113.456 33.824C113.456 32.952 113.216 32.272 112.736 31.784C112.264 31.288 111.584 31.04 110.696 31.04H109.508V36.572H110.696ZM116.93 31.352H118.61V38H116.93V31.352ZM117.782 30.476C117.502 30.476 117.274 30.388 117.098 30.212C116.922 30.036 116.834 29.82 116.834 29.564C116.834 29.308 116.922 29.096 117.098 28.928C117.274 28.752 117.502 28.664 117.782 28.664C118.062 28.664 118.29 28.752 118.466 28.928C118.65 29.096 118.742 29.308 118.742 29.564C118.742 29.82 118.65 30.036 118.466 30.212C118.29 30.388 118.062 30.476 117.782 30.476ZM121.861 31.352L123.541 36.452L125.221 31.352H127.009L124.549 38H122.509L120.061 31.352H121.861ZM131.309 32.624C130.901 32.624 130.553 32.748 130.265 32.996C129.977 33.244 129.801 33.596 129.737 34.052H132.893C132.885 33.836 132.837 33.64 132.749 33.464C132.669 33.288 132.557 33.14 132.413 33.02C132.269 32.892 132.101 32.796 131.909 32.732C131.725 32.66 131.525 32.624 131.309 32.624ZM134.465 35.912C134.377 36.216 134.241 36.504 134.057 36.776C133.881 37.04 133.661 37.272 133.397 37.472C133.133 37.672 132.829 37.828 132.485 37.94C132.141 38.052 131.765 38.108 131.357 38.108C130.877 38.108 130.433 38.028 130.025 37.868C129.617 37.708 129.265 37.48 128.969 37.184C128.673 36.88 128.441 36.516 128.273 36.092C128.105 35.668 128.021 35.196 128.021 34.676C128.021 34.148 128.101 33.676 128.261 33.26C128.429 32.836 128.657 32.476 128.945 32.18C129.241 31.876 129.593 31.644 130.001 31.484C130.409 31.324 130.861 31.244 131.357 31.244C131.837 31.244 132.277 31.324 132.677 31.484C133.077 31.636 133.421 31.856 133.709 32.144C134.005 32.432 134.233 32.78 134.393 33.188C134.553 33.588 134.633 34.036 134.633 34.532C134.633 34.644 134.629 34.752 134.621 34.856C134.613 34.96 134.601 35.068 134.585 35.18H129.725C129.765 35.676 129.933 36.056 130.229 36.32C130.533 36.584 130.897 36.716 131.321 36.716C131.681 36.716 131.965 36.64 132.173 36.488C132.381 36.328 132.541 36.136 132.653 35.912H134.465ZM138.039 38H136.359V31.352H138.039V32.384C138.247 32.04 138.523 31.768 138.867 31.568C139.211 31.36 139.615 31.256 140.079 31.256V33.02H139.635C139.387 33.02 139.163 33.048 138.963 33.104C138.771 33.152 138.603 33.24 138.459 33.368C138.323 33.496 138.219 33.668 138.147 33.884C138.075 34.1 138.039 34.368 138.039 34.688V38ZM146.871 36.104C146.871 36.392 146.811 36.66 146.691 36.908C146.571 37.148 146.395 37.36 146.163 37.544C145.939 37.72 145.667 37.86 145.347 37.964C145.027 38.06 144.663 38.108 144.255 38.108C143.839 38.108 143.455 38.052 143.103 37.94C142.759 37.82 142.459 37.664 142.203 37.472C141.947 37.272 141.743 37.04 141.591 36.776C141.447 36.504 141.367 36.212 141.351 35.9H143.043C143.075 36.156 143.199 36.368 143.415 36.536C143.631 36.704 143.907 36.788 144.243 36.788C144.579 36.788 144.831 36.724 144.999 36.596C145.175 36.46 145.263 36.296 145.263 36.104C145.263 35.904 145.171 35.752 144.987 35.648C144.803 35.544 144.571 35.456 144.291 35.384C144.011 35.304 143.707 35.224 143.379 35.144C143.059 35.056 142.759 34.94 142.479 34.796C142.199 34.652 141.967 34.46 141.783 34.22C141.599 33.972 141.507 33.644 141.507 33.236C141.507 32.964 141.567 32.708 141.687 32.468C141.807 32.22 141.979 32.008 142.203 31.832C142.427 31.648 142.703 31.504 143.031 31.4C143.359 31.296 143.727 31.244 144.135 31.244C144.943 31.244 145.579 31.444 146.043 31.844C146.507 32.244 146.763 32.776 146.811 33.44H145.203C145.179 33.184 145.071 32.976 144.879 32.816C144.687 32.656 144.423 32.576 144.087 32.576C143.775 32.576 143.539 32.636 143.379 32.756C143.219 32.868 143.139 33.02 143.139 33.212C143.139 33.412 143.231 33.568 143.415 33.68C143.599 33.784 143.827 33.876 144.099 33.956C144.371 34.036 144.667 34.116 144.987 34.196C145.307 34.276 145.603 34.392 145.875 34.544C146.155 34.688 146.387 34.884 146.571 35.132C146.763 35.372 146.863 35.696 146.871 36.104ZM151.606 32.624C151.198 32.624 150.85 32.748 150.562 32.996C150.274 33.244 150.098 33.596 150.034 34.052H153.19C153.182 33.836 153.134 33.64 153.046 33.464C152.966 33.288 152.854 33.14 152.71 33.02C152.566 32.892 152.398 32.796 152.206 32.732C152.022 32.66 151.822 32.624 151.606 32.624ZM154.762 35.912C154.674 36.216 154.538 36.504 154.354 36.776C154.178 37.04 153.958 37.272 153.694 37.472C153.43 37.672 153.126 37.828 152.782 37.94C152.438 38.052 152.062 38.108 151.654 38.108C151.174 38.108 150.73 38.028 150.322 37.868C149.914 37.708 149.562 37.48 149.266 37.184C148.97 36.88 148.738 36.516 148.57 36.092C148.402 35.668 148.318 35.196 148.318 34.676C148.318 34.148 148.398 33.676 148.558 33.26C148.726 32.836 148.954 32.476 149.242 32.18C149.538 31.876 149.89 31.644 150.298 31.484C150.706 31.324 151.158 31.244 151.654 31.244C152.134 31.244 152.574 31.324 152.974 31.484C153.374 31.636 153.718 31.856 154.006 32.144C154.302 32.432 154.53 32.78 154.69 33.188C154.85 33.588 154.93 34.036 154.93 34.532C154.93 34.644 154.926 34.752 154.918 34.856C154.91 34.96 154.898 35.068 154.882 35.18H150.022C150.062 35.676 150.23 36.056 150.526 36.32C150.83 36.584 151.194 36.716 151.618 36.716C151.978 36.716 152.262 36.64 152.47 36.488C152.678 36.328 152.838 36.136 152.95 35.912H154.762Z" fill="#87E5D5"/>
</g>
<defs>
<filter id="filter0_d_248_3002" x="0" y="0" width="188" height="78" filterUnits="userSpaceOnUse" color-interpolation-filters="sRGB">
<feFlood flood-opacity="0" result="BackgroundImageFix"/>
<feColorMatrix in="SourceAlpha" type="matrix" values="0 0 0 0 0 0 0 0 0 0 0 0 0 0 0 0 0 0 127 0" result="hardAlpha"/>
<feOffset dy="4"/>
<feGaussianBlur stdDeviation="8"/>
<feComposite in2="hardAlpha" operator="out"/>
<feColorMatrix type="matrix" values="0 0 0 0 0 0 0 0 0 0 0 0 0 0 0 0 0 0 0.25 0"/>
<feBlend mode="normal" in2="BackgroundImageFix" result="effect1_dropShadow_248_3002"/>
<feBlend mode="normal" in="SourceGraphic" in2="effect1_dropShadow_248_3002" result="shape"/>
</filter>
</defs>
</svg>
