<svg width="224" height="118" viewBox="0 0 224 118" fill="none" xmlns="http://www.w3.org/2000/svg">
<g filter="url(#filter0_d_248_3005)">
<rect x="16" y="12" width="192" height="86" rx="16" fill="white" shape-rendering="crispEdges"/>
<path d="M33.268 29.228C33.268 28.852 33.16 28.556 32.944 28.34C32.728 28.124 32.384 28.016 31.912 28.016H30.508V30.476H31.912C32.384 30.476 32.728 30.364 32.944 30.14C33.16 29.916 33.268 29.612 33.268 29.228ZM31.972 26.624C32.476 26.624 32.916 26.692 33.292 26.828C33.668 26.964 33.98 27.148 34.228 27.38C34.484 27.612 34.676 27.884 34.804 28.196C34.932 28.508 34.996 28.84 34.996 29.192C34.996 29.448 34.96 29.7 34.888 29.948C34.816 30.196 34.7 30.428 34.54 30.644C34.388 30.86 34.192 31.052 33.952 31.22C33.712 31.388 33.424 31.516 33.088 31.604L35.092 35H33.148L31.3 31.736H30.508V35H28.828V26.624H31.972ZM39.8715 29.624C39.4635 29.624 39.1155 29.748 38.8275 29.996C38.5395 30.244 38.3635 30.596 38.2995 31.052H41.4555C41.4475 30.836 41.3995 30.64 41.3115 30.464C41.2315 30.288 41.1195 30.14 40.9755 30.02C40.8315 29.892 40.6635 29.796 40.4715 29.732C40.2875 29.66 40.0875 29.624 39.8715 29.624ZM43.0275 32.912C42.9395 33.216 42.8035 33.504 42.6195 33.776C42.4435 34.04 42.2235 34.272 41.9595 34.472C41.6955 34.672 41.3915 34.828 41.0475 34.94C40.7035 35.052 40.3275 35.108 39.9195 35.108C39.4395 35.108 38.9955 35.028 38.5875 34.868C38.1795 34.708 37.8275 34.48 37.5315 34.184C37.2355 33.88 37.0035 33.516 36.8355 33.092C36.6675 32.668 36.5835 32.196 36.5835 31.676C36.5835 31.148 36.6635 30.676 36.8235 30.26C36.9915 29.836 37.2195 29.476 37.5075 29.18C37.8035 28.876 38.1555 28.644 38.5635 28.484C38.9715 28.324 39.4235 28.244 39.9195 28.244C40.3995 28.244 40.8395 28.324 41.2395 28.484C41.6395 28.636 41.9835 28.856 42.2715 29.144C42.5675 29.432 42.7955 29.78 42.9555 30.188C43.1155 30.588 43.1955 31.036 43.1955 31.532C43.1955 31.644 43.1915 31.752 43.1835 31.856C43.1755 31.96 43.1635 32.068 43.1475 32.18H38.2875C38.3275 32.676 38.4955 33.056 38.7915 33.32C39.0955 33.584 39.4595 33.716 39.8835 33.716C40.2435 33.716 40.5275 33.64 40.7355 33.488C40.9435 33.328 41.1035 33.136 41.2155 32.912H43.0275ZM46.6018 29.312C46.8018 29.032 47.0858 28.784 47.4538 28.568C47.8298 28.352 48.2778 28.244 48.7978 28.244C49.2218 28.244 49.6178 28.324 49.9858 28.484C50.3618 28.644 50.6858 28.872 50.9578 29.168C51.2298 29.464 51.4418 29.824 51.5938 30.248C51.7538 30.664 51.8338 31.132 51.8338 31.652C51.8338 32.172 51.7538 32.644 51.5938 33.068C51.4418 33.492 51.2298 33.856 50.9578 34.16C50.6858 34.464 50.3618 34.7 49.9858 34.868C49.6178 35.028 49.2218 35.108 48.7978 35.108C48.2698 35.108 47.8218 35 47.4538 34.784C47.0938 34.568 46.8098 34.324 46.6018 34.052V38.168H44.9218V28.352H46.6018V29.312ZM50.1178 31.652C50.1178 31.34 50.0658 31.064 49.9618 30.824C49.8658 30.576 49.7378 30.372 49.5778 30.212C49.4178 30.052 49.2298 29.932 49.0138 29.852C48.7978 29.764 48.5778 29.72 48.3538 29.72C48.1298 29.72 47.9098 29.764 47.6938 29.852C47.4858 29.932 47.3018 30.056 47.1418 30.224C46.9818 30.392 46.8498 30.6 46.7458 30.848C46.6498 31.088 46.6018 31.364 46.6018 31.676C46.6018 31.988 46.6498 32.268 46.7458 32.516C46.8498 32.756 46.9818 32.96 47.1418 33.128C47.3018 33.296 47.4858 33.424 47.6938 33.512C47.9098 33.592 48.1298 33.632 48.3538 33.632C48.5778 33.632 48.7978 33.588 49.0138 33.5C49.2298 33.412 49.4178 33.284 49.5778 33.116C49.7378 32.948 49.8658 32.74 49.9618 32.492C50.0658 32.244 50.1178 31.964 50.1178 31.652ZM59.9746 31.676C59.9746 32.196 59.8826 32.668 59.6986 33.092C59.5226 33.516 59.2786 33.88 58.9666 34.184C58.6546 34.48 58.2866 34.708 57.8626 34.868C57.4386 35.028 56.9866 35.108 56.5066 35.108C56.0266 35.108 55.5786 35.028 55.1626 34.868C54.7546 34.708 54.3986 34.48 54.0946 34.184C53.7986 33.88 53.5626 33.516 53.3866 33.092C53.2186 32.668 53.1346 32.196 53.1346 31.676C53.1346 31.148 53.2226 30.676 53.3986 30.26C53.5746 29.836 53.8146 29.476 54.1186 29.18C54.4306 28.876 54.7946 28.644 55.2106 28.484C55.6266 28.324 56.0746 28.244 56.5546 28.244C57.0346 28.244 57.4826 28.324 57.8986 28.484C58.3146 28.644 58.6746 28.876 58.9786 29.18C59.2906 29.476 59.5346 29.836 59.7106 30.26C59.8866 30.676 59.9746 31.148 59.9746 31.676ZM54.8386 31.676C54.8386 32.004 54.8826 32.292 54.9706 32.54C55.0586 32.788 55.1786 32.996 55.3306 33.164C55.4826 33.324 55.6586 33.444 55.8586 33.524C56.0666 33.604 56.2826 33.644 56.5066 33.644C56.7306 33.644 56.9466 33.604 57.1546 33.524C57.3626 33.444 57.5466 33.324 57.7066 33.164C57.8666 32.996 57.9946 32.788 58.0906 32.54C58.1946 32.292 58.2466 32.004 58.2466 31.676C58.2466 31.34 58.1986 31.052 58.1026 30.812C58.0066 30.564 57.8786 30.36 57.7186 30.2C57.5586 30.032 57.3746 29.908 57.1666 29.828C56.9666 29.748 56.7546 29.708 56.5306 29.708C56.3066 29.708 56.0906 29.748 55.8826 29.828C55.6826 29.908 55.5026 30.032 55.3426 30.2C55.1906 30.36 55.0666 30.564 54.9706 30.812C54.8826 31.052 54.8386 31.34 54.8386 31.676ZM63.3869 35H61.7069V28.352H63.3869V29.384C63.5949 29.04 63.8709 28.768 64.2149 28.568C64.5589 28.36 64.9629 28.256 65.4269 28.256V30.02H64.9829C64.7349 30.02 64.5109 30.048 64.3109 30.104C64.1189 30.152 63.9509 30.24 63.8069 30.368C63.6709 30.496 63.5669 30.668 63.4949 30.884C63.4229 31.1 63.3869 31.368 63.3869 31.688V35ZM67.3225 29.732H66.5305V28.352H67.3225V26.708H69.0145V28.352H70.5025V29.732H69.0145V32.948C69.0145 33.172 69.0665 33.336 69.1705 33.44C69.2745 33.536 69.4585 33.584 69.7225 33.584H70.5025V35H69.4465C69.1265 35 68.8345 34.964 68.5705 34.892C68.3145 34.82 68.0905 34.704 67.8985 34.544C67.7145 34.376 67.5705 34.164 67.4665 33.908C67.3705 33.644 67.3225 33.32 67.3225 32.936V29.732Z" fill="black"/>
<path d="M28.39 52.05H33.24V52.98H31.39V59H30.25V52.98H28.39V52.05ZM36.0345 59H34.8945V53.49H36.0345V54.29C36.1945 54.01 36.4112 53.7933 36.6845 53.64C36.9579 53.48 37.2912 53.4 37.6845 53.4V54.58H37.3945C37.1812 54.58 36.9912 54.6067 36.8245 54.66C36.6579 54.7067 36.5145 54.79 36.3945 54.91C36.2812 55.0233 36.1912 55.1767 36.1245 55.37C36.0645 55.5633 36.0345 55.8067 36.0345 56.1V59ZM38.8524 56.22C38.8524 55.7933 38.9191 55.4067 39.0524 55.06C39.1858 54.7133 39.3691 54.4167 39.6024 54.17C39.8424 53.9233 40.1191 53.7333 40.4324 53.6C40.7524 53.4667 41.0924 53.4 41.4524 53.4C41.9191 53.4 42.3091 53.4933 42.6224 53.68C42.9424 53.86 43.1891 54.0633 43.3624 54.29V53.49H44.5124V59H43.3624V58.18C43.2758 58.3 43.1691 58.4133 43.0424 58.52C42.9158 58.6267 42.7724 58.7233 42.6124 58.81C42.4524 58.8967 42.2724 58.9633 42.0724 59.01C41.8724 59.0633 41.6591 59.09 41.4324 59.09C41.0724 59.09 40.7358 59.02 40.4224 58.88C40.1091 58.74 39.8358 58.5433 39.6024 58.29C39.3691 58.0367 39.1858 57.7367 39.0524 57.39C38.9191 57.0367 38.8524 56.6467 38.8524 56.22ZM43.3624 56.24C43.3624 55.9467 43.3158 55.6867 43.2224 55.46C43.1291 55.2267 43.0024 55.0333 42.8424 54.88C42.6891 54.72 42.5124 54.6 42.3124 54.52C42.1124 54.4333 41.9058 54.39 41.6924 54.39C41.4791 54.39 41.2724 54.43 41.0724 54.51C40.8724 54.59 40.6924 54.7067 40.5324 54.86C40.3791 55.0133 40.2558 55.2033 40.1624 55.43C40.0691 55.6567 40.0224 55.92 40.0224 56.22C40.0224 56.52 40.0691 56.7867 40.1624 57.02C40.2558 57.2533 40.3791 57.45 40.5324 57.61C40.6924 57.77 40.8724 57.8933 41.0724 57.98C41.2724 58.06 41.4791 58.1 41.6924 58.1C41.9058 58.1 42.1124 58.06 42.3124 57.98C42.5124 57.8933 42.6891 57.7733 42.8424 57.62C43.0024 57.46 43.1291 57.2667 43.2224 57.04C43.3158 56.8067 43.3624 56.54 43.3624 56.24ZM50.4198 55.92C50.4198 55.4133 50.2931 55.0333 50.0398 54.78C49.7931 54.52 49.4598 54.39 49.0398 54.39C48.6198 54.39 48.2831 54.52 48.0298 54.78C47.7764 55.0333 47.6498 55.4133 47.6498 55.92V59H46.5098V53.49H47.6498V54.12C47.8364 53.8933 48.0731 53.7167 48.3598 53.59C48.6464 53.4633 48.9564 53.4 49.2898 53.4C49.6098 53.4 49.9064 53.45 50.1798 53.55C50.4598 53.65 50.6998 53.8 50.8998 54C51.1064 54.1933 51.2664 54.4367 51.3798 54.73C51.4931 55.0233 51.5498 55.3633 51.5498 55.75V59H50.4198V55.92ZM57.6139 57.46C57.6139 57.6933 57.5639 57.91 57.4639 58.11C57.3706 58.31 57.2306 58.4833 57.0439 58.63C56.8639 58.77 56.6439 58.8833 56.3839 58.97C56.1239 59.05 55.8306 59.09 55.5039 59.09C55.1706 59.09 54.8672 59.0467 54.5939 58.96C54.3206 58.8667 54.0806 58.74 53.8739 58.58C53.6739 58.42 53.5139 58.2333 53.3939 58.02C53.2806 57.8 53.2172 57.5633 53.2039 57.31H54.3839C54.4039 57.5367 54.5106 57.73 54.7039 57.89C54.9039 58.05 55.1639 58.13 55.4839 58.13C55.8172 58.13 56.0672 58.07 56.2339 57.95C56.4072 57.8233 56.4939 57.6633 56.4939 57.47C56.4939 57.29 56.4139 57.15 56.2539 57.05C56.1006 56.95 55.9039 56.8667 55.6639 56.8C55.4239 56.7267 55.1672 56.6567 54.8939 56.59C54.6206 56.5167 54.3639 56.42 54.1239 56.3C53.8839 56.1733 53.6839 56.01 53.5239 55.81C53.3706 55.6033 53.2939 55.33 53.2939 54.99C53.2939 54.77 53.3439 54.5633 53.4439 54.37C53.5439 54.1767 53.6839 54.01 53.8639 53.87C54.0506 53.7233 54.2739 53.61 54.5339 53.53C54.7939 53.4433 55.0872 53.4 55.4139 53.4C56.0406 53.4 56.5439 53.5567 56.9239 53.87C57.3039 54.1833 57.5106 54.6167 57.5439 55.17H56.4039C56.3839 54.93 56.2839 54.7367 56.1039 54.59C55.9306 54.4367 55.6872 54.36 55.3739 54.36C55.0672 54.36 54.8339 54.4167 54.6739 54.53C54.5206 54.6433 54.4439 54.7933 54.4439 54.98C54.4439 55.1667 54.5206 55.31 54.6739 55.41C54.8272 55.51 55.0206 55.5967 55.2539 55.67C55.4872 55.7433 55.7372 55.8167 56.0039 55.89C56.2772 55.9633 56.5306 56.06 56.7639 56.18C56.9972 56.3 57.1939 56.46 57.3539 56.66C57.5139 56.86 57.6006 57.1267 57.6139 57.46ZM60.4857 54.3C60.5724 54.1867 60.679 54.0767 60.8057 53.97C60.9324 53.8567 61.0757 53.76 61.2357 53.68C61.4024 53.5933 61.5824 53.5267 61.7757 53.48C61.969 53.4267 62.179 53.4 62.4057 53.4C62.7657 53.4 63.1024 53.4667 63.4157 53.6C63.7357 53.7333 64.0124 53.9233 64.2457 54.17C64.479 54.4167 64.6624 54.7133 64.7957 55.06C64.929 55.4067 64.9957 55.7933 64.9957 56.22C64.9957 56.6467 64.929 57.0367 64.7957 57.39C64.6624 57.7367 64.479 58.0367 64.2457 58.29C64.0124 58.5433 63.7357 58.74 63.4157 58.88C63.1024 59.02 62.7657 59.09 62.4057 59.09C62.179 59.09 61.9657 59.0633 61.7657 59.01C61.5724 58.9567 61.3957 58.89 61.2357 58.81C61.0757 58.7233 60.9324 58.6267 60.8057 58.52C60.679 58.4133 60.5724 58.3067 60.4857 58.2V61.62H59.3457V53.49H60.4857V54.3ZM63.8357 56.22C63.8357 55.92 63.789 55.6567 63.6957 55.43C63.6024 55.2033 63.4757 55.0133 63.3157 54.86C63.1624 54.7067 62.9824 54.59 62.7757 54.51C62.5757 54.43 62.369 54.39 62.1557 54.39C61.9424 54.39 61.7357 54.4333 61.5357 54.52C61.3357 54.6 61.1557 54.72 60.9957 54.88C60.8424 55.0333 60.719 55.2267 60.6257 55.46C60.5324 55.6867 60.4857 55.9467 60.4857 56.24C60.4857 56.54 60.5324 56.8067 60.6257 57.04C60.719 57.2667 60.8424 57.46 60.9957 57.62C61.1557 57.7733 61.3357 57.8933 61.5357 57.98C61.7357 58.06 61.9424 58.1 62.1557 58.1C62.369 58.1 62.5757 58.06 62.7757 57.98C62.9824 57.8933 63.1624 57.77 63.3157 57.61C63.4757 57.45 63.6024 57.2533 63.6957 57.02C63.789 56.7867 63.8357 56.52 63.8357 56.22ZM66.243 56.22C66.243 55.7933 66.3097 55.4067 66.443 55.06C66.5764 54.7133 66.7597 54.4167 66.993 54.17C67.233 53.9233 67.5097 53.7333 67.823 53.6C68.143 53.4667 68.483 53.4 68.843 53.4C69.3097 53.4 69.6997 53.4933 70.013 53.68C70.333 53.86 70.5797 54.0633 70.753 54.29V53.49H71.903V59H70.753V58.18C70.6664 58.3 70.5597 58.4133 70.433 58.52C70.3064 58.6267 70.163 58.7233 70.003 58.81C69.843 58.8967 69.663 58.9633 69.463 59.01C69.263 59.0633 69.0497 59.09 68.823 59.09C68.463 59.09 68.1264 59.02 67.813 58.88C67.4997 58.74 67.2264 58.5433 66.993 58.29C66.7597 58.0367 66.5764 57.7367 66.443 57.39C66.3097 57.0367 66.243 56.6467 66.243 56.22ZM70.753 56.24C70.753 55.9467 70.7064 55.6867 70.613 55.46C70.5197 55.2267 70.393 55.0333 70.233 54.88C70.0797 54.72 69.903 54.6 69.703 54.52C69.503 54.4333 69.2964 54.39 69.083 54.39C68.8697 54.39 68.663 54.43 68.463 54.51C68.263 54.59 68.083 54.7067 67.923 54.86C67.7697 55.0133 67.6464 55.2033 67.553 55.43C67.4597 55.6567 67.413 55.92 67.413 56.22C67.413 56.52 67.4597 56.7867 67.553 57.02C67.6464 57.2533 67.7697 57.45 67.923 57.61C68.083 57.77 68.263 57.8933 68.463 57.98C68.663 58.06 68.8697 58.1 69.083 58.1C69.2964 58.1 69.503 58.06 69.703 57.98C69.903 57.8933 70.0797 57.7733 70.233 57.62C70.393 57.46 70.5197 57.2667 70.613 57.04C70.7064 56.8067 70.753 56.54 70.753 56.24ZM75.0404 59H73.9004V53.49H75.0404V54.29C75.2004 54.01 75.4171 53.7933 75.6904 53.64C75.9637 53.48 76.2971 53.4 76.6904 53.4V54.58H76.4004C76.1871 54.58 75.9971 54.6067 75.8304 54.66C75.6637 54.7067 75.5204 54.79 75.4004 54.91C75.2871 55.0233 75.1971 55.1767 75.1304 55.37C75.0704 55.5633 75.0404 55.8067 75.0404 56.1V59ZM80.5583 54.36C80.1716 54.36 79.8383 54.4833 79.5583 54.73C79.2783 54.97 79.1083 55.31 79.0483 55.75H82.0983C82.0916 55.5367 82.0483 55.3467 81.9683 55.18C81.8883 55.0067 81.7783 54.86 81.6383 54.74C81.4983 54.62 81.3349 54.5267 81.1483 54.46C80.9683 54.3933 80.7716 54.36 80.5583 54.36ZM83.1383 57.36C83.0583 57.6 82.9449 57.8267 82.7983 58.04C82.6516 58.2467 82.4716 58.43 82.2583 58.59C82.0516 58.7433 81.8083 58.8667 81.5283 58.96C81.2549 59.0467 80.9483 59.09 80.6083 59.09C80.2149 59.09 79.8483 59.0233 79.5083 58.89C79.1749 58.7567 78.8849 58.5667 78.6383 58.32C78.3916 58.0667 78.1983 57.7667 78.0583 57.42C77.9249 57.0667 77.8583 56.6733 77.8583 56.24C77.8583 55.8067 77.9249 55.4167 78.0583 55.07C78.1916 54.7167 78.3783 54.4167 78.6183 54.17C78.8649 53.9233 79.1549 53.7333 79.4883 53.6C79.8283 53.4667 80.2016 53.4 80.6083 53.4C81.0016 53.4 81.3616 53.4667 81.6883 53.6C82.0149 53.7267 82.2949 53.91 82.5283 54.15C82.7683 54.3833 82.9549 54.6667 83.0883 55C83.2216 55.3333 83.2883 55.7033 83.2883 56.11C83.2883 56.2033 83.2849 56.2967 83.2783 56.39C83.2716 56.4833 83.2616 56.5767 83.2483 56.67H79.0383C79.0583 56.8967 79.1116 57.1 79.1983 57.28C79.2849 57.46 79.3983 57.6133 79.5383 57.74C79.6783 57.8667 79.8383 57.9633 80.0183 58.03C80.1983 58.0967 80.3949 58.13 80.6083 58.13C80.9616 58.13 81.2383 58.0567 81.4383 57.91C81.6449 57.7567 81.8016 57.5733 81.9083 57.36H83.1383ZM88.8202 55.92C88.8202 55.4133 88.6935 55.0333 88.4402 54.78C88.1935 54.52 87.8602 54.39 87.4402 54.39C87.0202 54.39 86.6835 54.52 86.4302 54.78C86.1768 55.0333 86.0502 55.4133 86.0502 55.92V59H84.9102V53.49H86.0502V54.12C86.2368 53.8933 86.4735 53.7167 86.7602 53.59C87.0468 53.4633 87.3568 53.4 87.6902 53.4C88.0102 53.4 88.3068 53.45 88.5802 53.55C88.8602 53.65 89.1002 53.8 89.3002 54C89.5068 54.1933 89.6668 54.4367 89.7802 54.73C89.8935 55.0233 89.9502 55.3633 89.9502 55.75V59H88.8202V55.92ZM92.0843 54.42H91.4343V53.49H92.0843V52.12H93.2343V53.49H94.5743V54.42H93.2343V57.47C93.2343 57.6767 93.281 57.8267 93.3743 57.92C93.4676 58.0067 93.6343 58.05 93.8743 58.05H94.5743V59H93.6743C93.181 59 92.791 58.8867 92.5043 58.66C92.2243 58.4267 92.0843 58.03 92.0843 57.47V54.42ZM32.44 78.13C32.44 77.7767 32.3367 77.4967 32.13 77.29C31.9233 77.0833 31.5967 76.98 31.15 76.98H29.89V79.31H31.15C31.5967 79.31 31.9233 79.2 32.13 78.98C32.3367 78.76 32.44 78.4767 32.44 78.13ZM31.15 76.05C31.5633 76.05 31.9233 76.1067 32.23 76.22C32.5367 76.3267 32.7933 76.4767 33 76.67C33.2067 76.8567 33.36 77.0767 33.46 77.33C33.56 77.5833 33.61 77.85 33.61 78.13C33.61 78.3367 33.58 78.5433 33.52 78.75C33.4667 78.95 33.3733 79.14 33.24 79.32C33.1133 79.5 32.9467 79.66 32.74 79.8C32.54 79.94 32.2933 80.0467 32 80.12L33.72 83H32.36L30.76 80.22H29.89V83H28.75V76.05H31.15ZM37.8884 78.36C37.5017 78.36 37.1684 78.4833 36.8884 78.73C36.6084 78.97 36.4384 79.31 36.3784 79.75H39.4284C39.4217 79.5367 39.3784 79.3467 39.2984 79.18C39.2184 79.0067 39.1084 78.86 38.9684 78.74C38.8284 78.62 38.665 78.5267 38.4784 78.46C38.2984 78.3933 38.1017 78.36 37.8884 78.36ZM40.4684 81.36C40.3884 81.6 40.275 81.8267 40.1284 82.04C39.9817 82.2467 39.8017 82.43 39.5884 82.59C39.3817 82.7433 39.1384 82.8667 38.8584 82.96C38.585 83.0467 38.2784 83.09 37.9384 83.09C37.545 83.09 37.1784 83.0233 36.8384 82.89C36.505 82.7567 36.215 82.5667 35.9684 82.32C35.7217 82.0667 35.5284 81.7667 35.3884 81.42C35.255 81.0667 35.1884 80.6733 35.1884 80.24C35.1884 79.8067 35.255 79.4167 35.3884 79.07C35.5217 78.7167 35.7084 78.4167 35.9484 78.17C36.195 77.9233 36.485 77.7333 36.8184 77.6C37.1584 77.4667 37.5317 77.4 37.9384 77.4C38.3317 77.4 38.6917 77.4667 39.0184 77.6C39.345 77.7267 39.625 77.91 39.8584 78.15C40.0984 78.3833 40.285 78.6667 40.4184 79C40.5517 79.3333 40.6184 79.7033 40.6184 80.11C40.6184 80.2033 40.615 80.2967 40.6084 80.39C40.6017 80.4833 40.5917 80.5767 40.5784 80.67H36.3684C36.3884 80.8967 36.4417 81.1 36.5284 81.28C36.615 81.46 36.7284 81.6133 36.8684 81.74C37.0084 81.8667 37.1684 81.9633 37.3484 82.03C37.5284 82.0967 37.725 82.13 37.9384 82.13C38.2917 82.13 38.5684 82.0567 38.7684 81.91C38.975 81.7567 39.1317 81.5733 39.2384 81.36H40.4684ZM41.8602 80.22C41.8602 79.7933 41.9269 79.4067 42.0602 79.06C42.1936 78.7133 42.3769 78.4167 42.6102 78.17C42.8502 77.9233 43.1269 77.7333 43.4402 77.6C43.7602 77.4667 44.1002 77.4 44.4602 77.4C44.9269 77.4 45.3169 77.4933 45.6302 77.68C45.9502 77.86 46.1969 78.0633 46.3702 78.29V77.49H47.5202V83H46.3702V82.18C46.2836 82.3 46.1769 82.4133 46.0502 82.52C45.9236 82.6267 45.7802 82.7233 45.6202 82.81C45.4602 82.8967 45.2802 82.9633 45.0802 83.01C44.8802 83.0633 44.6669 83.09 44.4402 83.09C44.0802 83.09 43.7436 83.02 43.4302 82.88C43.1169 82.74 42.8436 82.5433 42.6102 82.29C42.3769 82.0367 42.1936 81.7367 42.0602 81.39C41.9269 81.0367 41.8602 80.6467 41.8602 80.22ZM46.3702 80.24C46.3702 79.9467 46.3236 79.6867 46.2302 79.46C46.1369 79.2267 46.0102 79.0333 45.8502 78.88C45.6969 78.72 45.5202 78.6 45.3202 78.52C45.1202 78.4333 44.9136 78.39 44.7002 78.39C44.4869 78.39 44.2802 78.43 44.0802 78.51C43.8802 78.59 43.7002 78.7067 43.5402 78.86C43.3869 79.0133 43.2636 79.2033 43.1702 79.43C43.0769 79.6567 43.0302 79.92 43.0302 80.22C43.0302 80.52 43.0769 80.7867 43.1702 81.02C43.2636 81.2533 43.3869 81.45 43.5402 81.61C43.7002 81.77 43.8802 81.8933 44.0802 81.98C44.2802 82.06 44.4869 82.1 44.7002 82.1C44.9136 82.1 45.1202 82.06 45.3202 81.98C45.5202 81.8933 45.6969 81.7733 45.8502 81.62C46.0102 81.46 46.1369 81.2667 46.2302 81.04C46.3236 80.8067 46.3702 80.54 46.3702 80.24ZM49.5176 75.6H50.6576V83H49.5176V75.6ZM52.8343 78.42H52.1843V77.49H52.8343V76.12H53.9843V77.49H55.3243V78.42H53.9843V81.47C53.9843 81.6767 54.031 81.8267 54.1243 81.92C54.2176 82.0067 54.3843 82.05 54.6243 82.05H55.3243V83H54.4243C53.931 83 53.541 82.8867 53.2543 82.66C52.9743 82.4267 52.8343 82.03 52.8343 81.47V78.42ZM56.875 77.49H58.015V83H56.875V77.49ZM57.455 76.63C57.2617 76.63 57.0983 76.5667 56.965 76.44C56.8383 76.3133 56.775 76.1533 56.775 75.96C56.775 75.7733 56.8383 75.62 56.965 75.5C57.0983 75.3733 57.2617 75.31 57.455 75.31C57.6417 75.31 57.7983 75.3733 57.925 75.5C58.0517 75.62 58.115 75.7733 58.115 75.96C58.115 76.1533 58.0517 76.3133 57.925 76.44C57.7983 76.5667 57.6417 76.63 57.455 76.63ZM67.8217 79.92C67.8217 79.4133 67.6951 79.0333 67.4417 78.78C67.1951 78.52 66.8617 78.39 66.4417 78.39C66.0217 78.39 65.6851 78.52 65.4317 78.78C65.1784 79.0333 65.0517 79.4133 65.0517 79.92V83H63.9217V79.92C63.9217 79.4133 63.7951 79.0333 63.5417 78.78C63.2951 78.52 62.9617 78.39 62.5417 78.39C62.1217 78.39 61.7851 78.52 61.5317 78.78C61.2784 79.0333 61.1517 79.4133 61.1517 79.92V83H60.0117V77.49H61.1517V78.12C61.3384 77.8933 61.5717 77.7167 61.8517 77.59C62.1384 77.4633 62.4484 77.4 62.7817 77.4C63.2217 77.4 63.6117 77.4933 63.9517 77.68C64.2984 77.86 64.5684 78.13 64.7617 78.49C64.8484 78.3233 64.9584 78.1733 65.0917 78.04C65.2251 77.9067 65.3751 77.7933 65.5417 77.7C65.7151 77.6 65.8984 77.5267 66.0917 77.48C66.2851 77.4267 66.4817 77.4 66.6817 77.4C67.0017 77.4 67.2984 77.45 67.5717 77.55C67.8517 77.65 68.0917 77.8 68.2917 78C68.4984 78.1933 68.6584 78.4367 68.7717 78.73C68.8917 79.0233 68.9517 79.3633 68.9517 79.75V83H67.8217V79.92ZM73.2223 78.36C72.8357 78.36 72.5023 78.4833 72.2223 78.73C71.9423 78.97 71.7723 79.31 71.7123 79.75H74.7623C74.7557 79.5367 74.7123 79.3467 74.6323 79.18C74.5523 79.0067 74.4423 78.86 74.3023 78.74C74.1623 78.62 73.999 78.5267 73.8123 78.46C73.6323 78.3933 73.4357 78.36 73.2223 78.36ZM75.8023 81.36C75.7223 81.6 75.609 81.8267 75.4623 82.04C75.3157 82.2467 75.1357 82.43 74.9223 82.59C74.7157 82.7433 74.4723 82.8667 74.1923 82.96C73.919 83.0467 73.6123 83.09 73.2723 83.09C72.879 83.09 72.5123 83.0233 72.1723 82.89C71.839 82.7567 71.549 82.5667 71.3023 82.32C71.0557 82.0667 70.8623 81.7667 70.7223 81.42C70.589 81.0667 70.5223 80.6733 70.5223 80.24C70.5223 79.8067 70.589 79.4167 70.7223 79.07C70.8557 78.7167 71.0423 78.4167 71.2823 78.17C71.529 77.9233 71.819 77.7333 72.1523 77.6C72.4923 77.4667 72.8657 77.4 73.2723 77.4C73.6657 77.4 74.0257 77.4667 74.3523 77.6C74.679 77.7267 74.959 77.91 75.1923 78.15C75.4323 78.3833 75.619 78.6667 75.7523 79C75.8857 79.3333 75.9523 79.7033 75.9523 80.11C75.9523 80.2033 75.949 80.2967 75.9423 80.39C75.9357 80.4833 75.9257 80.5767 75.9123 80.67H71.7023C71.7223 80.8967 71.7757 81.1 71.8623 81.28C71.949 81.46 72.0623 81.6133 72.2023 81.74C72.3423 81.8667 72.5023 81.9633 72.6823 82.03C72.8623 82.0967 73.059 82.13 73.2723 82.13C73.6257 82.13 73.9023 82.0567 74.1023 81.91C74.309 81.7567 74.4657 81.5733 74.5723 81.36H75.8023Z" fill="#D0D5DD"/>
<path d="M147.69 52.02H149.09V59H147.69V52.02ZM154.853 55.94C154.853 55.4933 154.74 55.1533 154.513 54.92C154.293 54.6867 153.997 54.57 153.623 54.57C153.243 54.57 152.94 54.6867 152.713 54.92C152.487 55.1533 152.373 55.4933 152.373 55.94V59H150.973V53.46H152.373V54.15C152.553 53.9167 152.787 53.73 153.073 53.59C153.36 53.45 153.683 53.38 154.043 53.38C154.363 53.38 154.66 53.4333 154.933 53.54C155.207 53.64 155.44 53.79 155.633 53.99C155.827 54.19 155.977 54.44 156.083 54.74C156.197 55.0333 156.253 55.37 156.253 55.75V59H154.853V55.94ZM157.725 56.23C157.725 55.7967 157.791 55.4033 157.925 55.05C158.065 54.6967 158.255 54.3967 158.495 54.15C158.735 53.8967 159.021 53.7033 159.355 53.57C159.695 53.4367 160.065 53.37 160.465 53.37C161.158 53.37 161.728 53.54 162.175 53.88C162.621 54.22 162.921 54.7033 163.075 55.33H161.565C161.485 55.0967 161.351 54.91 161.165 54.77C160.985 54.63 160.748 54.56 160.455 54.56C160.061 54.56 159.745 54.7033 159.505 54.99C159.271 55.2767 159.155 55.69 159.155 56.23C159.155 56.77 159.271 57.1833 159.505 57.47C159.745 57.75 160.061 57.89 160.455 57.89C161.021 57.89 161.391 57.6367 161.565 57.13H163.075C162.921 57.7233 162.621 58.2 162.175 58.56C161.728 58.9133 161.158 59.09 160.465 59.09C160.065 59.09 159.695 59.0233 159.355 58.89C159.021 58.7567 158.735 58.5667 158.495 58.32C158.255 58.0667 158.065 57.7633 157.925 57.41C157.791 57.0567 157.725 56.6633 157.725 56.23ZM164.6 51.6H166V59H164.6V51.6ZM173.113 59H171.703V58.3C171.53 58.5333 171.297 58.72 171.003 58.86C170.717 59 170.4 59.07 170.053 59.07C169.733 59.07 169.437 59.02 169.163 58.92C168.89 58.8133 168.653 58.66 168.453 58.46C168.26 58.26 168.107 58.0133 167.993 57.72C167.887 57.4267 167.833 57.09 167.833 56.71V53.46H169.233V56.51C169.233 56.9567 169.343 57.2967 169.563 57.53C169.79 57.7633 170.09 57.88 170.463 57.88C170.843 57.88 171.143 57.7633 171.363 57.53C171.59 57.2967 171.703 56.9567 171.703 56.51V53.46H173.113V59ZM174.635 56.21C174.635 55.7767 174.698 55.3867 174.825 55.04C174.958 54.6867 175.138 54.3867 175.365 54.14C175.598 53.8933 175.868 53.7033 176.175 53.57C176.488 53.4367 176.821 53.37 177.175 53.37C177.541 53.37 177.885 53.45 178.205 53.61C178.531 53.7633 178.791 53.97 178.985 54.23V51.6H180.405V59H178.985V58.18C178.818 58.4333 178.581 58.65 178.275 58.83C177.975 59.0033 177.605 59.09 177.165 59.09C176.811 59.09 176.481 59.0233 176.175 58.89C175.868 58.75 175.598 58.5533 175.365 58.3C175.138 58.0467 174.958 57.7433 174.825 57.39C174.698 57.0367 174.635 56.6433 174.635 56.21ZM178.995 56.23C178.995 55.97 178.955 55.74 178.875 55.54C178.795 55.3333 178.685 55.16 178.545 55.02C178.411 54.88 178.255 54.7767 178.075 54.71C177.901 54.6367 177.718 54.6 177.525 54.6C177.338 54.6 177.155 54.6367 176.975 54.71C176.801 54.7767 176.648 54.8767 176.515 55.01C176.381 55.1433 176.271 55.3133 176.185 55.52C176.105 55.72 176.065 55.95 176.065 56.21C176.065 56.47 176.105 56.7033 176.185 56.91C176.271 57.1167 176.381 57.29 176.515 57.43C176.648 57.57 176.801 57.6767 176.975 57.75C177.155 57.8233 177.338 57.86 177.525 57.86C177.718 57.86 177.901 57.8267 178.075 57.76C178.255 57.6867 178.411 57.58 178.545 57.44C178.685 57.3 178.795 57.13 178.875 56.93C178.955 56.7233 178.995 56.49 178.995 56.23ZM184.652 54.52C184.312 54.52 184.022 54.6233 183.782 54.83C183.542 55.0367 183.395 55.33 183.342 55.71H185.972C185.965 55.53 185.925 55.3667 185.852 55.22C185.785 55.0733 185.692 54.95 185.572 54.85C185.452 54.7433 185.312 54.6633 185.152 54.61C184.999 54.55 184.832 54.52 184.652 54.52ZM187.282 57.26C187.209 57.5133 187.095 57.7533 186.942 57.98C186.795 58.2 186.612 58.3933 186.392 58.56C186.172 58.7267 185.919 58.8567 185.632 58.95C185.345 59.0433 185.032 59.09 184.692 59.09C184.292 59.09 183.922 59.0233 183.582 58.89C183.242 58.7567 182.949 58.5667 182.702 58.32C182.455 58.0667 182.262 57.7633 182.122 57.41C181.982 57.0567 181.912 56.6633 181.912 56.23C181.912 55.79 181.979 55.3967 182.112 55.05C182.252 54.6967 182.442 54.3967 182.682 54.15C182.929 53.8967 183.222 53.7033 183.562 53.57C183.902 53.4367 184.279 53.37 184.692 53.37C185.092 53.37 185.459 53.4367 185.792 53.57C186.125 53.6967 186.412 53.88 186.652 54.12C186.899 54.36 187.089 54.65 187.222 54.99C187.355 55.3233 187.422 55.6967 187.422 56.11C187.422 56.2033 187.419 56.2933 187.412 56.38C187.405 56.4667 187.395 56.5567 187.382 56.65H183.332C183.365 57.0633 183.505 57.38 183.752 57.6C184.005 57.82 184.309 57.93 184.662 57.93C184.962 57.93 185.199 57.8667 185.372 57.74C185.545 57.6067 185.679 57.4467 185.772 57.26H187.282ZM188.584 56.21C188.584 55.7767 188.647 55.3867 188.774 55.04C188.907 54.6867 189.087 54.3867 189.314 54.14C189.547 53.8933 189.817 53.7033 190.124 53.57C190.437 53.4367 190.771 53.37 191.124 53.37C191.491 53.37 191.834 53.45 192.154 53.61C192.481 53.7633 192.741 53.97 192.934 54.23V51.6H194.354V59H192.934V58.18C192.767 58.4333 192.531 58.65 192.224 58.83C191.924 59.0033 191.554 59.09 191.114 59.09C190.761 59.09 190.431 59.0233 190.124 58.89C189.817 58.75 189.547 58.5533 189.314 58.3C189.087 58.0467 188.907 57.7433 188.774 57.39C188.647 57.0367 188.584 56.6433 188.584 56.21ZM192.944 56.23C192.944 55.97 192.904 55.74 192.824 55.54C192.744 55.3333 192.634 55.16 192.494 55.02C192.361 54.88 192.204 54.7767 192.024 54.71C191.851 54.6367 191.667 54.6 191.474 54.6C191.287 54.6 191.104 54.6367 190.924 54.71C190.751 54.7767 190.597 54.8767 190.464 55.01C190.331 55.1433 190.221 55.3133 190.134 55.52C190.054 55.72 190.014 55.95 190.014 56.21C190.014 56.47 190.054 56.7033 190.134 56.91C190.221 57.1167 190.331 57.29 190.464 57.43C190.597 57.57 190.751 57.6767 190.924 57.75C191.104 57.8233 191.287 57.86 191.474 57.86C191.667 57.86 191.851 57.8267 192.024 57.76C192.204 57.6867 192.361 57.58 192.494 57.44C192.634 57.3 192.744 57.13 192.824 56.93C192.904 56.7233 192.944 56.49 192.944 56.23Z" fill="#87E5D5"/>
</g>
<defs>
<filter id="filter0_d_248_3005" x="0" y="0" width="224" height="118" filterUnits="userSpaceOnUse" color-interpolation-filters="sRGB">
<feFlood flood-opacity="0" result="BackgroundImageFix"/>
<feColorMatrix in="SourceAlpha" type="matrix" values="0 0 0 0 0 0 0 0 0 0 0 0 0 0 0 0 0 0 127 0" result="hardAlpha"/>
<feOffset dy="4"/>
<feGaussianBlur stdDeviation="8"/>
<feComposite in2="hardAlpha" operator="out"/>
<feColorMatrix type="matrix" values="0 0 0 0 0 0 0 0 0 0 0 0 0 0 0 0 0 0 0.25 0"/>
<feBlend mode="normal" in2="BackgroundImageFix" result="effect1_dropShadow_248_3005"/>
<feBlend mode="normal" in="SourceGraphic" in2="effect1_dropShadow_248_3005" result="shape"/>
</filter>
</defs>
</svg>
