<svg width="19" height="17" viewBox="0 0 19 17" fill="none" xmlns="http://www.w3.org/2000/svg">
<path d="M17.8125 7.12647H3.72874L8.03936 1.94898C8.24092 1.70648 8.3379 1.39383 8.30894 1.07983C8.27999 0.76582 8.12749 0.476176 7.88498 0.274611C7.64248 0.0730473 7.32983 -0.023926 7.01583 0.0050249C6.70182 0.0339758 6.41218 0.186479 6.21061 0.428986L0.273124 7.55397C0.233178 7.61064 0.197456 7.67018 0.166249 7.7321C0.166249 7.79147 0.16625 7.8271 0.083125 7.88647C0.0292999 8.02263 0.00111758 8.16756 0 8.31397C0.00111758 8.46038 0.0292999 8.60531 0.083125 8.74147C0.083125 8.80084 0.0831247 8.83647 0.166249 8.89584C0.197456 8.95776 0.233178 9.0173 0.273124 9.07397L6.21061 16.199C6.32226 16.333 6.46208 16.4408 6.62012 16.5147C6.77815 16.5886 6.95053 16.6267 7.12498 16.6265C7.40245 16.627 7.67134 16.5304 7.88498 16.3533C8.00523 16.2536 8.10462 16.1312 8.17748 15.993C8.25033 15.8549 8.29522 15.7037 8.30956 15.5482C8.3239 15.3926 8.30741 15.2358 8.26105 15.0866C8.21468 14.9375 8.13935 14.799 8.03936 14.679L3.72874 9.50147H17.8125C18.1274 9.50147 18.4295 9.37636 18.6522 9.15366C18.8749 8.93096 19 8.62891 19 8.31397C19 7.99903 18.8749 7.69698 18.6522 7.47428C18.4295 7.25158 18.1274 7.12647 17.8125 7.12647Z" fill="#E4F0FE"/>
</svg>
