<svg width="27" height="28" viewBox="0 0 27 28" fill="none" xmlns="http://www.w3.org/2000/svg">
<path d="M2.66667 24H12V26.6667H2.66667C1.18667 26.6667 0 25.48 0 24V2.66667C0 1.95942 0.280951 1.28115 0.781048 0.781048C1.28115 0.280951 1.95942 0 2.66667 0H18.6667C19.3739 0 20.0522 0.280951 20.5523 0.781048C21.0524 1.28115 21.3333 1.95942 21.3333 2.66667V14.0533L19.3333 12.96L18.6667 13.3333V2.66667H12V13.3333L8.66667 10.3333L5.33333 13.3333V2.66667H2.66667V24ZM26.6667 20L19.3333 16L12 20L19.3333 24L26.6667 20ZM14.6667 22.7867V25.4533L19.3333 28L24 25.4533V22.7867L19.3333 25.3333L14.6667 22.7867Z" fill="#BF0A30"/>
</svg>
