<svg width="174" height="223" viewBox="0 0 174 223" fill="none" xmlns="http://www.w3.org/2000/svg">
<path d="M170.397 221.86H20.4129V223H170.397V221.86Z" fill="#B4F1E6"/>
<path d="M171.42 129.006C166.454 103.951 148.736 83.3142 124.955 73.9896C71.012 52.845 17.0109 69.1236 6.67147 127.475C-3.18548 183.073 42.4726 163.301 82.1749 206.372C116.745 243.879 185.835 210.007 171.761 130.819C171.653 130.203 171.536 129.596 171.42 128.997V129.006Z" fill="url(#paint0_linear_139_2387)"/>
<path d="M26.402 183.814C43.1297 190.568 54.6918 185.96 68.242 202.754C81.7922 219.548 77.5916 223.2 51.8304 215.156C16.5284 204.135 10.8055 177.517 26.402 183.814Z" fill="url(#paint1_linear_139_2387)"/>
<mask id="mask0_139_2387" style="mask-type:luminance" maskUnits="userSpaceOnUse" x="5" y="65" width="169" height="157">
<path d="M171.42 129.006C166.454 103.951 148.736 83.3142 124.955 73.9896C71.012 52.845 17.0109 69.1236 6.67147 127.475C-3.18548 183.073 42.4726 163.301 82.1749 206.372C116.745 243.879 185.835 210.007 171.761 130.819C171.653 130.203 171.536 129.596 171.42 128.997V129.006Z" fill="white"/>
</mask>
<g mask="url(#mask0_139_2387)">
<path d="M74.5055 84.196H-7.84368V189.769H74.5055V84.196Z" fill="url(#paint2_linear_139_2387)"/>
<mask id="mask1_139_2387" style="mask-type:luminance" maskUnits="userSpaceOnUse" x="-8" y="83" width="83" height="107">
<path d="M-7.93519 189.312H74.4889L74.4889 83.0231L-7.93519 83.0231L-7.93519 189.312Z" fill="white"/>
</mask>
<g mask="url(#mask1_139_2387)">
<path d="M41.8403 166.104C41.6074 164.831 40.4262 164.474 40.7257 162.993C40.892 162.153 41.3745 161.745 40.8255 160.872C40.5344 160.414 40.1018 160.073 39.636 159.782C40.2516 159.333 40.5344 158.493 40.2599 157.761C40.185 157.561 39.9355 157.462 39.7691 157.628C39.3532 158.052 38.9955 158.526 38.6794 159.025C38.6378 158.701 38.5879 158.368 38.5131 158.052C38.4465 157.786 38.2718 157.553 37.9807 157.536C37.4567 157.511 37.4484 158.011 37.5565 158.468C36.5916 157.819 35.6516 157.129 34.6784 156.488C34.3124 156.247 33.9132 156.006 33.5056 155.773C33.7052 155.623 33.8466 155.374 33.9048 155.141C34.0462 154.6 33.6303 154.134 33.0897 154.434C32.7819 154.608 32.4991 154.85 32.2579 155.124C31.634 154.825 30.9935 154.55 30.3364 154.334C30.5277 154.201 30.7024 154.043 30.7939 153.843C30.9769 153.477 30.7772 153.078 30.3696 153.02C29.9371 152.961 29.5378 153.253 29.2384 153.519C29.0887 153.644 28.9639 153.793 28.8558 153.943C26.5017 153.494 24.1477 153.868 22.4342 155.931C22.3344 156.056 22.2429 156.164 22.1514 156.272C22.0183 155.815 21.7355 155.415 21.3279 155.124C21.253 155.066 21.1781 155.058 21.1116 155.083C20.9785 155.041 20.8205 155.108 20.7539 155.241C20.6874 155.307 20.6375 155.399 20.6541 155.515C20.7373 156.031 20.912 156.513 21.1449 156.971C21.0035 156.996 20.8454 157.012 20.6624 157.004C20.2049 156.979 19.8722 156.888 19.4147 157.021C18.8075 157.212 18.2834 157.678 17.9341 158.235C17.8259 158.41 17.7261 158.593 17.6596 158.776C16.8278 160.905 18.6078 162.818 20.2548 163.891C20.3463 163.95 20.4295 163.941 20.5044 163.908C22.7669 165.272 25.254 167.194 27.8992 167.551C28.4066 167.618 28.9306 167.485 29.4131 167.551C29.5877 167.568 30.927 167.967 31.0767 168.1C31.2181 168.225 31.3262 168.591 31.4344 168.766C31.9251 169.523 32.6155 170.022 33.4557 170.321C36.0675 171.278 41.2996 170.679 41.8653 167.443C41.9401 167.036 41.9401 166.595 41.8486 166.096L41.8403 166.104Z" fill="#B4F1E6"/>
<path d="M41.7654 167.327C41.7072 167.26 41.5741 167.219 41.4826 167.252C39.4447 168.092 35.3522 170.113 33.8632 167.61C33.622 167.194 33.6886 166.944 33.2311 166.678C32.9482 166.503 32.5407 166.512 32.2412 166.353C31.4011 165.904 30.9602 165.056 30.9103 164.141C30.902 163.966 30.7273 163.792 30.536 163.858C29.6626 164.166 28.6561 164.565 27.7245 164.515C26.3853 164.449 24.9629 163.625 25.1459 162.078C25.1708 161.887 24.9379 161.745 24.7715 161.795C21.7521 162.685 18.8075 161.055 17.9258 158.235C17.8176 158.41 17.7178 158.593 17.6513 158.776C16.8194 160.905 18.5995 162.818 20.2465 163.891C20.338 163.95 20.4212 163.941 20.496 163.908C22.7586 165.272 25.2457 167.194 27.8908 167.551C28.3982 167.618 28.9223 167.485 29.4047 167.551C29.5794 167.568 30.9186 167.967 31.0684 168.1C31.2098 168.225 31.3179 168.591 31.426 168.766C31.9168 169.523 32.6072 170.022 33.4473 170.321C36.0592 171.278 41.2913 170.679 41.8569 167.443C41.8237 167.402 41.7987 167.368 41.7654 167.327Z" fill="#B4F1E6"/>
<path d="M21.8103 160.947C21.8103 160.947 21.7521 160.897 21.7271 160.88C21.7271 160.822 21.7438 160.764 21.7521 160.714C21.827 160.34 21.2613 160.19 21.1865 160.556C20.9951 161.504 21.1865 162.461 21.7854 163.234C21.9351 163.434 22.2429 163.426 22.326 163.168C22.5673 162.369 22.3759 161.562 21.8186 160.947H21.8103Z" fill="#B4F1E6"/>
<path d="M29.1386 163.692C29.0555 163.625 28.9723 163.625 28.8974 163.658C28.7643 163.351 28.6562 163.035 28.5813 162.71C28.4898 162.344 27.9242 162.502 28.0157 162.868C28.2403 163.825 28.6728 164.682 29.2884 165.447C29.4215 165.613 29.7459 165.522 29.7791 165.314C29.8956 164.657 29.6627 164.099 29.1386 163.7V163.692Z" fill="#B4F1E6"/>
<path d="M34.8115 166.67C34.1959 167.369 33.4473 168.583 34.4288 169.348C34.5952 169.481 34.8614 169.456 34.9196 169.215C35.061 168.65 35.086 168.092 35.0028 167.518C35.0028 167.477 34.9778 167.443 34.9529 167.419C35.0444 167.294 35.1359 167.177 35.2274 167.086C35.4769 166.803 35.061 166.387 34.8115 166.67Z" fill="#B4F1E6"/>
<path d="M26.5184 156.472C25.5784 155.831 25.3538 158.476 25.3788 158.942C25.1875 159.233 25.5784 159.624 25.8113 159.333C26.1773 158.859 26.4602 158.343 26.6182 157.753C26.7097 157.403 26.901 156.73 26.5267 156.472H26.5184Z" fill="#B4F1E6"/>
<path d="M31.3761 160.198C31.3761 160.198 31.3927 160.181 31.3927 160.173C31.95 159.283 32.2578 158.326 32.3327 157.278C32.341 157.145 32.2329 157.029 32.1164 156.995C31.451 156.787 31.1598 157.594 30.9851 158.093C30.7023 158.942 30.6857 159.824 30.8604 160.697C30.9352 161.071 31.5009 160.913 31.426 160.539C31.401 160.422 31.3844 160.306 31.3678 160.19L31.3761 160.198Z" fill="#B4F1E6"/>
<path d="M32.7153 162.203C32.4908 162.012 32.183 162.228 32.2079 162.444C32.1913 162.486 32.1747 162.528 32.1747 162.586C32.1913 163.143 32.4408 163.659 32.8817 164C33.0231 164.108 33.2394 164.125 33.3475 163.942C33.7301 163.251 33.2394 162.636 32.7237 162.203H32.7153Z" fill="#B4F1E6"/>
<path d="M39.4863 162.868C39.5196 162.303 38.9706 162.12 38.5131 162.303C38.0889 162.477 37.6813 162.727 37.2987 163.018C37.0158 163.143 36.733 163.284 36.4585 163.45C36.2256 163.592 36.3005 164.033 36.6083 163.999C36.6166 163.999 36.6332 163.999 36.6499 163.999C36.758 164.074 36.8994 164.099 37.0325 163.991C37.0325 163.991 37.0325 163.991 37.0408 163.983C37.9807 163.966 39.4198 164.016 39.4863 162.885V162.868Z" fill="#B4F1E6"/>
<path d="M4.73324 156.621C4.22584 155.506 2.91158 153.876 1.58068 153.959C1.43927 153.959 1.29786 153.992 1.14814 154.026C0.674007 154.126 0.17492 154.35 -0.299212 154.625C-0.249303 154.467 -0.207711 154.3 -0.141166 154.142C0.00024167 153.793 -0.565389 153.643 -0.706797 153.984C-0.856523 154.35 -0.964661 154.733 -1.03121 155.115C-1.05616 155.132 -1.08111 155.149 -1.10607 155.165C-1.1643 154.758 -1.2142 154.25 -1.4887 153.968C-1.70497 153.743 -2.07929 153.743 -2.2706 154.001C-2.50351 154.317 -2.33715 154.741 -2.21237 155.066C-2.10424 155.34 -1.97947 155.606 -1.84638 155.864C-1.97947 156.022 -2.10424 156.188 -2.19574 156.347C-2.49519 156.862 -2.55342 157.361 -2.77801 157.777C-3.0026 157.544 -3.22718 157.311 -3.46009 157.07C-3.65972 156.862 -4.03404 157.07 -3.95086 157.353C-3.84272 157.727 -3.66804 158.077 -3.45177 158.393C-3.51832 158.426 -3.56823 158.459 -3.64309 158.484C-4.24199 158.717 -4.58304 158.692 -5.02389 159.233C-5.52298 159.84 -5.95552 160.747 -6.16347 161.67C-6.34647 162.46 -6.37143 163.259 -6.16347 163.908C-5.95552 164.548 -5.54793 165.114 -4.9324 165.405C-4.68285 165.521 -4.44163 165.555 -4.16713 165.613C-3.53495 165.613 -2.95269 165.804 -2.40369 166.17C-2.31219 166.303 -2.19574 166.411 -2.07097 166.503C0.990093 167.518 1.20636 161.878 3.36907 160.83C3.50216 160.763 3.53543 160.655 3.51048 160.547C4.56688 159.458 5.43196 158.177 4.72492 156.613L4.73324 156.621Z" fill="#B4F1E6"/>
<path d="M4.7333 156.621C4.2259 155.507 2.91164 153.876 1.58074 153.96C1.43933 153.96 1.29793 153.993 1.1482 154.026C1.1482 154.026 1.1482 154.034 1.15652 154.043C2.51237 155.673 2.65378 158.077 1.13156 159.674C0.582569 160.256 -0.465513 160.531 -0.673466 161.379C-0.764965 161.729 -0.640193 162.095 -0.581967 162.436C-0.349059 163.708 -1.70491 164.008 -2.72804 164.158C-3.78443 164.316 -5.02383 164.199 -5.63105 163.168C-5.89723 162.719 -5.98041 162.186 -6.16341 161.695C-6.34641 162.486 -6.37137 163.284 -6.16341 163.933C-5.95546 164.573 -5.54787 165.139 -4.93233 165.43C-4.68279 165.547 -4.44156 165.58 -4.16707 165.638C-3.53489 165.638 -2.95262 165.829 -2.40363 166.195C-2.31213 166.329 -2.19568 166.437 -2.07091 166.528C0.990155 167.543 1.20643 161.903 3.36913 160.855C3.50222 160.789 3.5355 160.681 3.51054 160.572C4.56694 159.483 5.43202 158.202 4.72498 156.638L4.7333 156.621Z" fill="#B4F1E6"/>
<path d="M46.773 134.495C46.931 134.42 47.089 134.337 47.2055 134.204C47.9042 133.38 47.0475 132.74 46.4236 132.307C45.6417 131.758 44.8598 131.201 44.0779 130.652C43.3875 129.804 42.6971 129.005 42.0732 128.273C42.9217 126.709 43.1629 125.22 42.9716 123.848C43.5788 122.925 43.7285 121.802 43.3875 120.754C43.1047 119.888 41.8403 120.171 41.8819 120.953C41.5326 120.396 41.1166 119.872 40.6508 119.381C41.0917 119.007 41.3995 118.266 41.5076 117.875C41.5492 117.726 41.4577 117.551 41.2996 117.509C40.8754 117.418 40.5593 117.643 40.2932 117.959C40.2682 117.992 40.2432 118.017 40.2183 118.05C40.1517 118.117 40.1018 118.192 40.0436 118.258C39.9604 118.358 39.8772 118.458 39.7941 118.558C37.9391 116.927 35.5435 115.688 33.281 114.989C33.1729 114.956 33.0647 114.923 32.9649 114.881C33.3226 114.265 33.439 113.558 33.2727 112.835C33.2228 112.61 32.94 112.56 32.7819 112.702C32.3826 113.059 32.1165 113.508 31.9501 113.999C31.8087 113.483 31.6257 112.976 31.3429 112.494C31.2597 112.352 31.1599 112.261 31.0434 112.202C30.8687 111.936 30.6774 111.687 30.4695 111.437C30.3364 111.279 30.1118 111.354 30.0037 111.495C29.6876 111.92 29.5378 112.402 29.5545 112.893C29.5378 113.026 29.5212 113.159 29.5046 113.3C28.5147 112.668 27.6164 111.895 26.5932 110.83C26.194 110.414 25.7614 110.04 25.3123 109.69C25.9195 109.283 25.2208 107.885 25.0211 107.42C24.9296 107.203 24.6218 107.253 24.5137 107.42C24.2143 107.86 24.0729 108.335 24.0396 108.809C23.4573 108.468 22.8501 108.177 22.2096 107.935C19.3398 106.871 16.2372 106.97 13.3425 107.819C13.3924 107.603 13.3425 107.386 13.1678 107.212C12.8933 106.937 12.6105 107.17 12.4608 107.428C12.3027 107.702 12.153 107.985 12.0033 108.268C11.6539 108.401 11.2962 108.543 10.9552 108.692C9.71581 109.241 8.56791 109.641 7.39506 109.94C7.51151 109.616 7.59469 109.299 7.61964 109.15C7.67787 108.859 7.78601 108.401 7.47824 108.201C7.17879 108.018 6.78784 108.293 6.55493 108.476C5.96434 108.933 5.68985 109.607 5.51516 110.306C4.74158 110.414 3.93472 110.489 3.06964 110.522C2.19624 110.556 1.33948 110.655 0.482715 110.797C0.732256 110.131 0.732256 109.208 0.0668099 108.834C-0.706774 108.401 -1.52195 109.349 -1.99609 109.84C-2.57835 110.447 -3.05248 111.146 -3.45175 111.886C-5.19855 112.569 -6.84554 113.5 -8.31784 114.648C-8.64225 114.906 -8.92506 115.122 -9.2162 115.338C-9.98146 114.473 -10.9214 113.841 -12.061 113.5C-12.951 113.242 -13.3503 114.498 -12.6266 114.898C-12.1774 115.521 -11.6534 116.062 -11.0379 116.495C-12.036 116.944 -13.1257 117.052 -14.7311 116.653C-20.3708 115.264 -23.9892 116.902 -26.4596 120.296C-26.4929 120.13 -26.5345 119.955 -26.5927 119.78C-26.6759 119.564 -27.0086 119.464 -27.1334 119.714C-27.2748 119.997 -27.3497 120.279 -27.3996 120.562C-27.5659 120.346 -27.7656 120.146 -27.9902 119.963C-28.0068 119.947 -28.0317 119.93 -28.0484 119.913C-28.0817 119.888 -28.1066 119.863 -28.1399 119.847C-28.2314 119.78 -28.3478 119.797 -28.4393 119.855C-28.9218 120.063 -29.1547 120.512 -29.2296 121.036C-29.6455 122.309 -29.4292 123.598 -28.7804 124.721C-28.9051 125.046 -29.0216 125.387 -29.1381 125.728C-29.7037 125.287 -30.3691 125.021 -31.1011 124.938C-31.2509 124.921 -31.3424 125.004 -31.3673 125.121C-31.4339 125.212 -31.4588 125.328 -31.3923 125.437C-30.9597 126.119 -30.2527 126.568 -29.4791 126.668L-29.4541 126.684C-29.529 126.917 -29.6039 127.142 -29.6704 127.383C-29.7037 127.4 -29.7286 127.4 -29.7453 127.4C-32.6483 128.722 -33.8461 130.336 -33.372 133.597C-33.1141 135.36 -32.9561 137.365 -32.1575 138.929C-33.2971 140.043 -34.3036 141.216 -34.9524 142.547C-34.9857 142.522 -35.019 142.497 -35.0605 142.464C-35.152 142.123 -35.4681 141.965 -35.7925 141.99C-36.4497 141.832 -36.9654 142.672 -36.5661 143.196C-36.5828 144.019 -36.4663 144.868 -36.0837 145.558C-36.5744 145.508 -37.0735 145.458 -37.5643 145.417C-37.8388 145.392 -37.922 145.741 -37.7722 145.916C-37.2149 146.573 -36.433 146.939 -35.5846 146.964C-35.3933 148.137 -34.9857 149.268 -34.3701 150.299C-33.2472 152.238 -31.5254 153.851 -29.6205 154.849C-26.235 156.63 -22.6083 156.014 -18.9983 155.357C-15.9206 154.808 -13.6913 152.62 -12.6682 149.792C-10.3475 151.115 -7.6108 150.175 -6.45458 147.854C-3.96747 148.411 -1.5469 147.638 0.183263 145.675C1.4892 144.202 1.59734 142.83 2.21288 141.05C2.82842 139.295 2.32101 139.852 3.99295 139.652C4.86635 139.527 5.73144 139.561 6.5882 139.403C8.80081 139.02 10.3563 138.039 12.3526 137.19C13.5089 136.716 15.1475 135.593 16.5366 136.608C16.9359 136.899 17.2936 138.022 17.6014 138.454C18.5413 139.702 19.7225 140.667 21.1366 141.316C23.3159 142.314 25.9611 141.657 27.8077 143.187C30.5776 145.492 32.4658 148.353 36.4502 148.569C38.6961 148.694 40.185 148.004 41.4577 146.773C42.04 146.19 42.5806 145.517 43.1296 144.726C44.8847 142.223 48.3368 142.356 48.1288 138.579C48.0539 137.223 47.5299 135.834 46.773 134.478V134.495Z" fill="#B4F1E6"/>
<path d="M38.0555 148.519C39.453 148.311 40.5094 147.696 41.4576 146.789C41.3079 146.298 41.0084 145.832 40.6009 145.425C39.636 144.46 38.2052 144.269 36.9742 143.861C33.0231 142.497 32.8733 138.862 32.9898 135.268C33.0064 134.728 32.4824 134.437 32.0249 134.511C30.0119 134.911 28.0156 134.836 26.119 134.345C26.0109 134.254 25.8861 134.179 25.778 134.071C25.2124 133.505 25.5285 132.889 25.4869 132.182V132.149C25.4869 132.149 25.4869 132.116 25.4702 132.091V132.074C25.4702 131.825 25.3621 131.675 25.1957 131.567C24.7382 131.168 23.8565 131.334 23.9314 132.091C23.948 132.124 23.948 132.149 23.948 132.182C23.8981 132.673 23.5487 132.881 23.0996 132.964C22.6338 132.806 22.2594 132.449 21.9018 132.074C21.569 131.717 21.386 131.409 21.3361 130.91C21.3029 130.594 21.3195 130.303 21.2446 129.995C21.2197 129.903 21.1531 129.853 21.07 129.82C21.07 129.579 20.6956 129.421 20.521 129.679C20.2132 130.136 20.155 130.677 20.2964 131.159C20.1882 131.051 20.0718 130.951 19.9636 130.835C19.2732 130.128 18.7658 129.146 17.8924 128.622C16.0458 127.499 14.1077 127.375 12.5855 125.536C12.3276 125.212 11.7703 125.262 11.5125 125.536C10.4976 126.518 9.31648 127.624 8.01053 128.597C7.13713 128.597 6.32196 128.364 5.88942 127.583C5.43192 126.751 4.24243 127.416 4.52524 128.215C4.49198 128.414 4.54188 128.631 4.75815 128.814C5.95596 129.812 3.79325 130.735 3.06958 130.935C2.92817 130.968 2.83667 131.026 2.76181 131.101C0.948462 131.359 -0.864884 130.935 -2.51187 129.271C-2.83628 128.963 -3.29377 128.997 -3.60154 129.271C-5.68107 131.043 -5.57293 133.48 -7.0286 135.485C-8.16818 136.391 -12.3023 135.194 -11.8281 136.05C-11.4621 136.683 -10.9381 137.14 -10.3226 137.431C-10.8716 137.581 -11.4122 137.756 -11.9196 137.997C-14.1323 139.103 -15.0057 140.95 -18.0085 139.427C-18.4078 139.028 -18.7738 138.562 -19.0233 138.013C-19.4392 137.123 -20.7784 137.905 -20.3625 138.795C-20.1047 139.353 -19.747 139.843 -19.3477 140.301C-19.1314 144.402 -19.2396 148.968 -23.4984 151.073C-27.0669 152.828 -30.9265 151.871 -34.3619 150.332C-33.2389 152.271 -31.5171 153.884 -29.6123 154.882C-27.1085 156.205 -24.4633 156.205 -21.7932 155.847C-21.8931 156.03 -21.9846 156.222 -22.0594 156.421C-22.1592 156.688 -21.8681 156.837 -21.6601 156.754C-21.577 156.812 -21.4688 156.837 -21.3524 156.787C-20.7867 156.521 -20.3376 156.097 -20.0298 155.573C-19.6804 155.515 -19.3394 155.448 -18.99 155.39C-17.6924 155.157 -16.5362 154.625 -15.5713 153.884C-15.4465 154.159 -15.2552 154.35 -14.9225 154.292C-14.8393 154.275 -14.7728 154.25 -14.7228 154.2C-14.5814 154.2 -14.4484 154.101 -14.44 153.918C-14.4234 153.552 -14.44 153.194 -14.4484 152.828C-13.6748 151.963 -13.0759 150.94 -12.66 149.817C-10.3392 151.139 -7.60255 150.199 -6.44633 147.879C-5.73929 148.037 -5.03225 148.078 -4.35017 148.02C-4.33353 148.22 -4.30026 148.419 -4.2254 148.611C-4.16717 148.76 -4.02576 148.827 -3.90099 148.81C-3.80117 148.902 -3.65145 148.918 -3.53499 148.785C-3.28545 148.478 -3.11077 148.137 -3.01095 147.779C-1.81315 147.421 -0.715158 146.731 0.191513 145.699C1.49746 144.227 1.60559 142.855 2.22113 141.074C2.83667 139.319 2.32927 139.877 4.00121 139.677C4.87461 139.552 5.73969 139.586 6.59645 139.427C7.71108 139.236 8.65935 138.887 9.58266 138.488C9.90706 138.679 10.2564 138.837 10.6224 138.937C10.8137 138.987 10.9884 138.845 10.9967 138.654C10.9967 138.421 10.8886 138.238 10.6973 138.113C10.6723 138.097 10.6141 138.072 10.5559 138.047C10.8304 137.922 11.0965 137.789 11.3794 137.664C11.421 137.764 11.4625 137.855 11.5125 137.955C11.6455 138.196 11.9616 138.105 12.0531 137.889C12.128 137.697 12.1613 137.506 12.1779 137.315C12.2444 137.29 12.3027 137.256 12.3692 137.231C13.5254 136.757 15.1641 135.634 16.5532 136.649C16.9525 136.94 17.3102 138.063 17.6179 138.496C18.4498 139.602 19.4895 140.476 20.704 141.116C20.9868 141.682 21.3361 142.222 21.7437 142.73C21.8768 142.888 22.2095 142.813 22.2345 142.597C22.2761 142.281 22.2594 141.989 22.2012 141.715C23.0164 141.923 23.8648 141.989 24.6883 142.106C24.6467 142.563 24.8048 143.021 25.1541 143.354C25.3039 143.495 25.595 143.445 25.6449 143.221C25.7115 142.904 25.7198 142.58 25.6865 142.264C26.4601 142.43 27.1921 142.696 27.8326 143.229C30.5692 145.508 32.4491 148.328 36.342 148.594C36.9243 148.977 37.5648 149.243 38.2635 149.368C38.5213 149.418 38.7958 149.085 38.5463 148.877C38.3966 148.752 38.2385 148.644 38.0805 148.536L38.0555 148.519Z" fill="#B4F1E6"/>
<path d="M16.1207 126.951C16.0957 126.884 16.0292 126.851 15.9626 126.834C15.9626 126.834 15.9626 126.826 15.9626 126.817C16.0791 126.46 15.5134 126.302 15.397 126.659C15.1391 127.45 15.006 128.439 15.5301 129.088C15.5384 129.105 15.5467 129.113 15.5633 129.13C15.6798 129.271 15.8295 129.396 16.0208 129.496C16.1706 129.571 16.4201 129.521 16.4534 129.321C16.5865 128.489 16.4783 127.716 16.1207 126.951Z" fill="#B4F1E6"/>
<path d="M9.54106 126.735C9.32479 126.627 9.0087 126.868 9.1501 127.151C9.4246 127.675 9.8821 128.041 10.4311 128.232C10.6557 128.307 10.8387 128.074 10.7971 127.866C10.6723 127.242 10.1483 126.81 9.54106 126.735Z" fill="#B4F1E6"/>
<path d="M6.04752 130.128C5.51516 129.413 4.88298 128.814 4.14267 128.323C3.82658 128.115 3.52713 128.623 3.84322 128.831C4.11771 129.005 4.36726 129.205 4.60848 129.421C4.57521 129.413 4.54194 129.396 4.50035 129.388C4.48371 129.388 4.47539 129.388 4.45876 129.388C4.2924 129.355 4.10108 129.438 4.12603 129.654C4.12603 129.704 4.12603 129.754 4.13435 129.812C4.05117 129.812 3.96799 129.837 3.90976 129.895C3.90976 129.87 3.90976 129.845 3.90976 129.812C3.90976 129.471 3.44395 129.421 3.33581 129.737C2.97813 130.76 3.01972 131.941 4.00958 132.59C4.17594 132.698 4.38389 132.59 4.44212 132.416C4.65007 131.758 4.75821 131.093 4.75821 130.419C5.09093 130.602 5.4902 130.66 5.87284 130.561C6.0392 130.511 6.16397 130.286 6.04752 130.128Z" fill="#B4F1E6"/>
<path d="M28.7892 134.345C28.7476 134.129 28.4814 133.971 28.315 134.187C27.791 134.861 27.2337 135.842 27.9989 136.574C28.1653 136.741 28.4148 136.649 28.4897 136.441C28.706 135.859 28.864 135.268 28.9472 134.661C28.9722 134.512 28.889 134.403 28.7892 134.345Z" fill="#B4F1E6"/>
<path d="M33.5055 138.504C33.4639 138.438 33.389 138.388 33.2726 138.396C32.8816 138.429 32.499 138.588 32.2994 138.945C32.1164 139.278 32.1829 139.677 32.4325 139.952C32.5406 140.068 32.7402 140.06 32.8484 139.952C33.1561 139.636 33.4223 139.295 33.6469 138.912C33.755 138.729 33.6469 138.563 33.4972 138.504H33.5055Z" fill="#B4F1E6"/>
<path d="M36.5999 142.846C36.5334 142.738 36.4252 142.705 36.3254 142.713C36.2173 142.239 36.1424 141.757 36.0842 141.266C36.0426 140.892 35.452 140.892 35.4936 141.266C35.5851 142.106 35.7265 142.963 35.9844 143.77C36.1424 144.252 36.342 144.626 36.8245 144.826C36.9908 144.893 37.2154 144.718 37.1988 144.543C37.1239 143.919 36.9409 143.37 36.5999 142.838V142.846Z" fill="#B4F1E6"/>
<path d="M7.25359 117.859C7.18705 117.435 6.96246 116.137 6.38851 116.062C5.81456 115.979 5.68147 116.977 5.63156 117.335C5.53174 118.167 5.73138 118.965 6.16392 119.672C6.16392 119.689 6.18055 119.689 6.18887 119.706C6.18887 119.772 6.20551 119.83 6.20551 119.897C6.23878 120.188 6.57982 120.296 6.7545 120.047C7.20368 119.398 7.35341 118.641 7.23695 117.867L7.25359 117.859Z" fill="#B4F1E6"/>
<path d="M13.1428 115.53C13.1428 115.33 12.9515 115.205 12.7685 115.247C11.6789 115.48 10.8055 116.262 10.4228 117.293C10.3979 117.327 10.3646 117.36 10.3396 117.393C10.2814 117.476 10.2897 117.568 10.323 117.643C10.348 117.859 10.6225 117.95 10.7888 117.834C12.0864 117.867 13.1262 116.844 13.1428 115.53Z" fill="#B4F1E6"/>
<path d="M20.7123 121.269C20.5875 121.07 20.338 121.095 20.2049 121.269C19.6309 122.018 19.4646 122.941 19.7058 123.848C19.7141 123.881 19.7308 123.906 19.7474 123.931C19.8056 124.289 19.9553 124.613 20.2548 124.846C20.4212 124.971 20.6291 124.829 20.6873 124.671C21.0949 123.548 21.3777 122.342 20.704 121.261L20.7123 121.269Z" fill="#B4F1E6"/>
<path d="M28.8889 115.871C28.2734 115.871 27.4416 115.937 26.8593 116.162C26.4018 116.336 26.0691 116.653 25.8944 117.085C25.7114 117.26 25.6033 117.468 25.6365 117.726C25.8112 118.982 28.0654 117.659 28.5728 117.393C28.9388 117.193 29.3464 116.919 29.4213 116.478C29.4961 116.054 29.2716 115.862 28.8806 115.862L28.8889 115.871Z" fill="#B4F1E6"/>
<path d="M35.219 123.382C34.3872 122.925 33.4722 122.708 32.524 122.775C32.0498 122.808 31.8752 123.282 31.9999 123.623C32.0083 123.74 32.0665 123.856 32.1996 123.964C33.0231 124.613 34.0795 124.854 35.0776 124.463C35.5185 124.289 35.7015 123.648 35.219 123.39V123.382Z" fill="#B4F1E6"/>
<path d="M37.806 131.301C37.2404 130.968 36.8578 131.55 36.6831 132C36.5084 132.474 36.4252 132.981 36.4169 133.48C36.4003 134.071 37.1073 134.195 37.4317 133.863C37.5066 133.838 37.5731 133.796 37.6314 133.73C37.9225 133.389 38.1138 133.014 38.1804 132.573C38.2469 132.141 38.2303 131.55 37.806 131.301Z" fill="#B4F1E6"/>
<path d="M41.857 136.774C41.4826 136.333 40.9004 136.092 40.3264 136.126C40.0103 136.142 39.7358 136.383 39.7358 136.716C39.7358 136.774 39.7525 136.833 39.7774 136.891C39.7774 136.907 39.7608 136.916 39.7608 136.932C39.6693 137.257 39.8689 137.548 40.1684 137.656C40.6425 137.822 41.1083 137.831 41.5991 137.756C42.0815 137.681 42.1065 137.074 41.857 136.774Z" fill="#B4F1E6"/>
<path d="M35.5601 161.521C32.2495 162.386 28.9056 162.818 25.4952 162.885C26.144 162.061 26.485 158.651 25.9776 159.499C24.8297 161.446 23.4156 163.143 21.7936 164.607C22.118 163.617 20.4378 160.905 20.5709 161.878C20.8121 163.575 20.1383 165.189 18.8906 166.32C18.6826 166.512 15.9044 167.851 14.3489 168.383C14.4487 167.427 14.482 167.102 14.5652 166.129C15.006 161.013 14.3489 156.097 14.091 151.007C13.7999 145.267 15.4552 139.07 15.8961 132.549C15.9626 131.567 11.9699 146.798 11.5041 153.02C11.213 151.938 10.8387 150.882 10.3562 149.85C9.51609 148.062 8.44305 146.407 7.24525 144.851C7.27852 144.768 5.6149 136.458 5.67313 137.448C5.7979 139.32 5.82285 141.191 5.78958 143.063C4.467 141.516 -0.124593 138.954 0.557492 139.669C4.27568 143.52 8.21847 147.58 9.86545 152.812C10.7389 155.582 10.9718 158.543 10.9135 161.504C7.50311 161.429 4.67495 161.113 0.790401 158.975C3.5936 161.554 7.07057 162.96 10.8719 163.043C10.7804 164.981 10.5808 166.903 10.3729 168.766C9.30814 178.323 9.11682 194.377 9.18337 204.342C9.02532 204.733 9.14177 205.216 9.66582 205.332C11.1963 205.665 12.5356 205.798 14.1077 205.748C14.5818 205.732 14.9145 205.291 14.848 204.775C13.6668 195.692 13.043 179.879 14.091 170.721C18.0421 169.498 21.4942 167.302 24.2391 164.349C24.339 164.407 24.4637 164.449 24.6134 164.449C28.4647 164.449 36.5167 161.271 35.5601 161.521Z" fill="#B4F1E6"/>
<path d="M35.161 133.904C36.3754 139.344 39.5529 143.137 44.6103 146.107C47.8461 148.012 51.8388 149.567 56.5718 151.006C56.9045 151.106 59.2585 151.073 59.6994 150.99C73.5573 148.403 80.4364 136.516 81.3264 126.169C81.7507 121.128 80.9105 116.02 78.9225 111.221C77.0759 106.762 74.2477 102.553 70.5545 98.8935C67.4186 95.7908 61.8371 90.3924 56.056 91.6817C53.0948 92.3388 51.0569 94.5514 49.2685 96.3731C47.2388 98.436 45.3673 100.59 43.687 102.836C36.7248 112.119 32.7404 123.116 35.161 133.913V133.904Z" fill="#B4F1E6"/>
<path d="M44.6103 146.099C47.8461 148.004 51.8388 149.559 56.5718 150.998C56.9045 151.098 59.2585 151.065 59.6994 150.982C73.5573 148.395 80.4364 136.508 81.3264 126.16C81.7507 121.12 80.9105 116.012 78.9225 111.213C79.197 115.322 78.4484 119.614 77.575 123.623C76.6516 127.882 75.0546 132.125 71.744 135.626C68.4167 139.162 63.4342 141.274 58.4683 143.08C54.0264 144.685 49.4265 145.841 44.6103 146.099Z" fill="#B4F1E6"/>
<path d="M74.0731 111.828C74.123 111.895 74.1895 111.928 74.2561 111.945C74.3642 112.061 74.5472 112.128 74.7635 112.061C76.1526 111.604 77.5334 111.188 78.1988 110.032C79.0057 108.626 78.3818 106.97 78.0158 105.54C77.9576 105.299 77.5583 105.132 77.3005 105.324C75.171 106.879 72.0434 109.408 74.0647 111.828H74.0731Z" fill="#B4F1E6"/>
<path d="M70.2551 104.991C70.305 105.058 70.3715 105.091 70.438 105.108C70.5462 105.224 70.7292 105.291 70.9454 105.224C72.3346 104.767 73.7154 104.351 74.3808 103.195C75.1877 101.789 74.5638 100.133 74.1978 98.7028C74.1396 98.4615 73.7403 98.2952 73.4825 98.4865C71.353 100.042 68.2254 102.571 70.2467 104.991H70.2551Z" fill="#B4F1E6"/>
<path d="M66.1625 101.564C66.2125 101.63 66.279 101.664 66.3455 101.68C66.4537 101.797 66.6367 101.863 66.8529 101.797C68.2421 101.339 69.6229 100.923 70.2883 99.7672C71.0952 98.3614 70.4713 96.7061 70.1053 95.2754C70.0471 95.0342 69.6478 94.8678 69.39 95.0592C67.2605 96.6146 64.1329 99.1433 66.1542 101.564H66.1625Z" fill="#B4F1E6"/>
<path d="M61.6042 97.2969C61.6707 97.3551 61.7373 97.3801 61.8038 97.3967C61.9286 97.4965 62.1282 97.5464 62.3279 97.4549C63.6338 96.8643 64.9398 96.307 65.4056 95.0926C65.9795 93.612 65.0895 92.0398 64.4906 90.659C64.3908 90.4261 63.9749 90.3014 63.7503 90.5176C61.8953 92.2728 59.2003 95.1009 61.6042 97.2969Z" fill="#B4F1E6"/>
<path d="M39.1038 105.324C38.8459 105.141 38.455 105.299 38.3884 105.54C38.0224 106.971 37.3902 108.618 38.2054 110.032C38.8709 111.188 40.2517 111.604 41.6408 112.061C41.8571 112.136 42.04 112.061 42.1482 111.945C42.2147 111.92 42.2813 111.887 42.3312 111.829C44.3608 109.408 41.2249 106.879 39.0954 105.324H39.1038Z" fill="#B4F1E6"/>
<path d="M42.9134 101.04C42.6556 100.848 42.2646 101.015 42.1981 101.256C41.8321 102.687 41.1999 104.334 42.0151 105.748C42.6805 106.904 44.0613 107.32 45.4505 107.777C45.6667 107.852 45.8497 107.777 45.9579 107.661C46.0244 107.636 46.091 107.603 46.1409 107.544C48.1705 105.124 45.0346 102.595 42.9051 101.04H42.9134Z" fill="#B4F1E6"/>
<path d="M47.006 95.0592C46.7481 94.8678 46.3572 95.0342 46.2906 95.2754C45.9247 96.7061 45.2925 98.3531 46.1076 99.7672C46.7731 100.923 48.1539 101.339 49.543 101.797C49.7593 101.872 49.9423 101.797 50.0504 101.68C50.117 101.655 50.1835 101.622 50.2334 101.564C52.263 99.1433 49.1271 96.6146 46.9977 95.0592H47.006Z" fill="#B4F1E6"/>
<path d="M52.654 90.5174C52.4294 90.3094 52.0135 90.4259 51.9137 90.6588C51.3148 92.0396 50.4247 93.6117 50.9987 95.0923C51.4645 96.3068 52.7704 96.8641 54.0764 97.4547C54.276 97.5462 54.4756 97.4963 54.6004 97.3965C54.667 97.3798 54.7418 97.3549 54.8 97.2966C57.204 95.1007 54.5089 92.2725 52.654 90.5174Z" fill="#B4F1E6"/>
<path d="M57.2206 93.9527C57.2955 94.0026 57.3703 94.0193 57.4452 94.0193C57.5949 94.1025 57.7945 94.1191 57.9775 94.0027C59.1171 93.2291 60.2733 92.4888 60.448 91.2327C60.6643 89.6939 59.4249 88.2798 58.5099 87.0071C58.3602 86.7909 57.9193 86.7326 57.7446 86.9739C56.3306 88.9702 54.3425 92.1477 57.2206 93.9527Z" fill="#B4F1E6"/>
<path d="M69.2486 135.294C69.2319 135.369 69.2486 135.427 69.2818 135.477C69.2652 135.619 69.3401 135.768 69.5647 135.835C70.9788 136.242 72.3512 136.675 73.8235 136.184C75.6202 135.577 76.5768 134.03 77.5251 132.782C77.6831 132.574 77.5334 132.241 77.184 132.241C74.2893 132.241 69.8225 132.433 69.2486 135.302V135.294Z" fill="#B4F1E6"/>
<path d="M63.168 137.631C63.1097 137.689 63.0931 137.756 63.0931 137.806C62.9933 137.931 62.9766 138.089 63.1347 138.222C64.1578 139.095 65.1394 139.969 66.7364 140.06C68.6912 140.168 70.4213 139.12 71.9851 138.347C72.2513 138.213 72.3012 137.864 71.9851 137.739C69.4065 136.708 65.314 135.269 63.1596 137.623L63.168 137.631Z" fill="#B4F1E6"/>
<path d="M56.5135 141.432C56.4553 141.491 56.4386 141.557 56.4386 141.607C56.3388 141.732 56.3222 141.89 56.4802 142.023C57.5033 142.896 58.4849 143.77 60.0819 143.861C62.0367 143.969 63.7669 142.921 65.3307 142.148C65.5969 142.015 65.6468 141.665 65.3307 141.541C62.7521 140.509 58.6596 139.07 56.5052 141.424L56.5135 141.432Z" fill="#B4F1E6"/>
<path d="M72.2847 129.405C72.2847 129.48 72.3262 129.538 72.3678 129.58C72.3928 129.721 72.5009 129.854 72.7338 129.879C74.2228 130.045 75.6868 130.237 76.9927 129.505C78.5898 128.615 79.1055 126.943 79.7044 125.562C79.8042 125.329 79.5713 125.03 79.2303 125.088C76.4021 125.57 72.085 126.502 72.2847 129.397V129.405Z" fill="#B4F1E6"/>
<path d="M62.8685 147.738C62.8103 147.771 62.7853 147.813 62.7687 147.863C62.6689 147.938 62.619 148.054 62.7022 148.179C63.2595 148.977 63.7835 149.784 64.9564 150.084C66.3871 150.45 67.9342 149.926 69.2818 149.585C69.5064 149.526 69.6311 149.269 69.4315 149.135C67.7429 147.979 65.0312 146.307 62.8685 147.746V147.738Z" fill="#B4F1E6"/>
<path d="M35.1194 112.76C34.8117 112.627 34.4789 112.852 34.4872 113.101C34.5372 114.557 34.4041 116.279 35.6019 117.502C36.5834 118.508 38.0474 118.666 39.528 118.857C39.7609 118.891 39.919 118.783 39.9938 118.658C40.0521 118.625 40.1103 118.583 40.1436 118.508C41.4162 115.788 37.6398 113.892 35.1194 112.76Z" fill="#B4F1E6"/>
<path d="M29.8873 118.865C29.5379 118.865 29.3882 119.198 29.5463 119.406C30.4945 120.654 31.4428 122.209 33.2478 122.808C34.7201 123.307 36.1009 122.875 37.515 122.459C37.7313 122.392 37.8145 122.242 37.7978 122.101C37.8311 122.051 37.8477 121.993 37.8311 121.918C37.2572 119.048 32.782 118.865 29.8956 118.857L29.8873 118.865Z" fill="#B4F1E6"/>
<path d="M31.6674 137.515C31.3264 137.565 31.2598 137.914 31.4678 138.097C32.7072 139.179 34.0214 140.551 35.9346 140.867C37.4984 141.125 38.7461 140.493 40.0354 139.869C40.2351 139.769 40.2766 139.611 40.2184 139.478C40.2351 139.42 40.2434 139.362 40.2101 139.295C38.9457 136.567 34.5122 137.074 31.6757 137.515H31.6674Z" fill="#B4F1E6"/>
<path d="M38.8626 143.279C38.5215 143.329 38.455 143.679 38.663 143.862C39.9024 144.943 41.2166 146.316 43.1298 146.632C44.6936 146.89 45.9413 146.249 47.2306 145.633C47.4302 145.534 47.4718 145.376 47.4136 145.243C47.4302 145.184 47.4385 145.126 47.4053 145.051C46.1409 142.323 41.7074 142.83 38.8709 143.271L38.8626 143.279Z" fill="#B4F1E6"/>
<path d="M44.1777 147.164C43.8367 147.214 43.7701 147.563 43.9781 147.746C45.2175 148.828 46.5318 150.2 48.4449 150.516C50.0087 150.774 51.2564 150.134 52.5457 149.518C52.7454 149.418 52.787 149.26 52.7287 149.127C52.7454 149.069 52.7537 149.011 52.7204 148.936C51.4561 146.207 47.0225 146.715 44.1861 147.156L44.1777 147.164Z" fill="#B4F1E6"/>
<path d="M50.7657 150.857C50.591 150.965 50.6909 151.182 50.8739 151.231C51.9718 151.548 53.2196 152.005 54.4091 151.731C55.3823 151.506 55.8398 150.857 56.3222 150.208C56.3971 150.108 56.3638 150.009 56.2806 149.942C56.2723 149.909 56.2473 149.876 56.2058 149.842C54.4756 148.62 52.1881 149.942 50.7657 150.857Z" fill="#B4F1E6"/>
<path d="M63.7919 150.857C63.9333 150.965 63.8584 151.182 63.7004 151.231C62.7688 151.548 61.7124 152.005 60.6976 151.731C59.8741 151.506 59.4831 150.857 59.0755 150.208C59.009 150.108 59.0423 150.009 59.1088 149.942C59.1171 149.909 59.1338 149.876 59.1754 149.842C60.6477 148.62 62.5858 149.942 63.7836 150.857H63.7919Z" fill="#B4F1E6"/>
<path d="M32.6989 125.279C32.3578 125.204 32.1083 125.495 32.1998 125.737C32.7155 127.134 33.1314 128.831 34.6703 129.779C35.9346 130.561 37.4069 130.42 38.9042 130.312C39.1371 130.295 39.2619 130.17 39.2868 130.02C39.3367 129.979 39.37 129.921 39.3783 129.846C39.7526 126.959 35.4938 125.87 32.6989 125.279Z" fill="#B4F1E6"/>
<path d="M32.6989 130.045C32.3578 129.97 32.1083 130.262 32.1998 130.503C32.7155 131.9 33.1314 133.597 34.6703 134.545C35.9346 135.319 37.4069 135.186 38.9042 135.078C39.1371 135.061 39.2619 134.928 39.2868 134.787C39.3367 134.745 39.37 134.687 39.3783 134.612C39.7526 131.725 35.4938 130.636 32.6989 130.045Z" fill="#B4F1E6"/>
<path d="M66.2457 144.286C66.1875 144.344 66.1709 144.402 66.1709 144.461C66.071 144.585 66.0544 144.743 66.2124 144.876C67.2272 145.75 68.2005 146.64 69.7975 146.731C71.744 146.848 73.4908 145.816 75.0546 145.043C75.3208 144.918 75.379 144.569 75.0629 144.436C72.4926 143.388 68.4084 141.932 66.2374 144.278L66.2457 144.286Z" fill="#B4F1E6"/>
<path d="M69.889 141.973C69.8474 142.039 69.8474 142.106 69.8557 142.156C69.7892 142.289 69.8058 142.447 69.9971 142.563C71.2033 143.27 72.3678 143.994 73.9649 143.853C75.9113 143.678 77.3753 142.397 78.7312 141.416C78.9557 141.249 78.9308 140.9 78.5981 140.817C75.8198 140.176 71.4695 139.353 69.889 141.973Z" fill="#B4F1E6"/>
<path d="M52.787 99.4928C52.8369 99.5178 52.8868 99.5261 52.9284 99.5178C53.0282 99.5594 53.1613 99.5594 53.2612 99.4762C53.91 98.9272 54.5588 98.3948 54.5588 97.5963C54.5588 96.6231 53.6521 95.8079 52.9617 95.0593C52.8452 94.9345 52.5624 94.9262 52.4792 95.0842C51.7722 96.4151 50.8239 98.5196 52.787 99.4845V99.4928Z" fill="#B4F1E6"/>
<path d="M42.09 121.677C42.1482 121.694 42.1981 121.685 42.2397 121.677C42.3478 121.694 42.4726 121.677 42.5474 121.569C42.98 120.903 43.4375 120.255 43.163 119.489C42.8303 118.549 41.6824 117.959 40.7674 117.385C40.6176 117.285 40.3431 117.335 40.3099 117.51C40.0853 118.94 39.8773 121.17 42.0983 121.685L42.09 121.677Z" fill="#B4F1E6"/>
<path d="M52.4959 126.111C52.5458 126.144 52.5874 126.152 52.6373 126.152C52.7288 126.202 52.8536 126.219 52.97 126.152C53.7103 125.678 54.4506 125.229 54.592 124.439C54.7667 123.474 54.0098 122.559 53.4691 121.752C53.3776 121.619 53.1031 121.569 52.9866 121.719C52.055 122.958 50.7324 124.93 52.5042 126.111H52.4959Z" fill="#B4F1E6"/>
<path d="M64.9148 115.439C64.948 115.514 64.9979 115.555 65.0562 115.588C65.131 115.721 65.2891 115.821 65.522 115.788C67.0026 115.597 68.4749 115.439 69.4564 114.432C70.6542 113.209 70.5212 111.488 70.5711 110.032C70.5794 109.791 70.2467 109.558 69.9389 109.691C67.4185 110.814 63.6421 112.719 64.9148 115.439Z" fill="#B4F1E6"/>
<path d="M53.2529 112.918C53.3527 112.943 53.4442 112.935 53.5273 112.918C53.727 112.951 53.9599 112.918 54.1179 112.777C55.1411 111.812 56.1891 110.872 55.9646 109.716C55.6901 108.302 53.8102 107.345 52.3545 106.447C52.1133 106.297 51.5975 106.347 51.4811 106.605C50.5661 108.726 49.4016 112.028 53.2529 112.918Z" fill="#B4F1E6"/>
<path d="M62.985 101.947C63.0266 102.005 63.0765 102.046 63.1348 102.08C63.2179 102.188 63.3677 102.288 63.5673 102.279C64.8483 102.254 66.1126 102.263 66.8363 101.547C67.718 100.682 67.3603 99.3014 67.2023 98.1535C67.1773 97.9622 66.8529 97.7459 66.6034 97.8291C64.5488 98.5028 61.4878 99.684 62.985 101.947Z" fill="#B4F1E6"/>
<path d="M63.5008 129.463C63.5424 129.521 63.5923 129.563 63.6505 129.596C63.7337 129.704 63.8834 129.804 64.0831 129.795C65.3557 129.77 66.6284 129.779 67.3521 129.063C68.2338 128.198 67.8761 126.818 67.7181 125.67C67.6931 125.478 67.3687 125.262 67.1192 125.345C65.0646 126.019 62.0035 127.2 63.5008 129.463Z" fill="#B4F1E6"/>
<path d="M62.1449 151.023C60.9804 152.82 60.839 154.8 61.4795 157.145C61.8871 158.643 62.6107 160.298 63.5756 162.136C63.6422 162.261 64.3326 162.985 64.4906 163.101C69.232 166.736 74.5555 165.771 77.7081 163.342C79.2386 162.161 80.4198 160.564 81.1851 158.693C81.8921 156.954 82.2498 154.983 82.1999 152.87C82.1583 151.082 82.0501 147.946 80.0122 146.482C78.9725 145.733 77.758 145.675 76.7349 145.6C75.5703 145.508 74.4225 145.492 73.3078 145.55C68.6913 145.808 64.4657 147.438 62.1449 151.007V151.023Z" fill="#B4F1E6"/>
<path d="M61.4711 157.137C61.8787 158.635 62.6024 160.29 63.5673 162.128C63.6338 162.253 64.3242 162.977 64.4823 163.093C69.2236 166.728 74.5472 165.763 77.6998 163.334C79.2303 162.153 80.4115 160.556 81.1767 158.684C80.1037 159.841 78.6896 160.731 77.3171 161.504C75.8615 162.328 74.2062 162.935 72.268 162.827C70.3133 162.719 68.2753 161.721 66.3372 160.648C64.5987 159.683 62.9434 158.56 61.4711 157.129V157.137Z" fill="#B4F1E6"/>
<path d="M70.3715 144.536C70.3549 144.344 70.1469 144.245 70.0222 144.311C69.3068 144.744 68.4084 145.16 68.1256 146.099C67.8927 146.865 68.2254 147.647 68.5415 148.445C68.5914 148.57 68.6829 148.62 68.7744 148.62C68.8077 148.636 68.841 148.653 68.8909 148.653C70.6127 148.537 70.5129 146.108 70.3715 144.536Z" fill="#B4F1E6"/>
<path d="M66.0627 145.425C65.9879 145.251 65.7633 145.209 65.6634 145.317C65.1061 145.941 64.3658 146.598 64.3741 147.58C64.3741 148.387 64.9231 149.035 65.4555 149.701C65.5387 149.809 65.6468 149.826 65.73 149.801C65.7716 149.809 65.8049 149.817 65.8464 149.801C67.4602 149.185 66.6533 146.898 66.0627 145.425Z" fill="#B4F1E6"/>
<path d="M71.3363 163.276C71.4029 163.451 71.2531 163.609 71.1201 163.592C70.2966 163.467 69.315 163.426 68.6662 162.702C68.1422 162.112 68.1089 161.321 68.0673 160.514C68.0673 160.39 68.1255 160.307 68.2004 160.282C68.2253 160.257 68.2503 160.223 68.2919 160.215C69.889 159.716 70.804 161.862 71.3363 163.276Z" fill="#B4F1E6"/>
<path d="M66.2041 163.118C66.1459 163.127 66.1043 163.152 66.071 163.177C65.9629 163.202 65.8547 163.276 65.8381 163.401C65.705 164.183 65.5553 164.965 66.1126 165.556C66.7947 166.279 68.084 166.362 69.1487 166.52C69.3317 166.545 69.5563 166.396 69.5147 166.221C69.1487 164.815 68.45 162.694 66.2041 163.11V163.118Z" fill="#B4F1E6"/>
<path d="M72.268 164.116C72.2181 164.15 72.1931 164.191 72.1765 164.233C72.085 164.308 72.0268 164.416 72.06 164.532C72.2846 165.297 72.4843 166.063 73.2495 166.354C74.1812 166.712 75.379 166.221 76.4021 165.896C76.5768 165.838 76.7182 165.605 76.6017 165.472C75.6618 164.366 74.098 162.769 72.268 164.125V164.116Z" fill="#B4F1E6"/>
<path d="M70.1386 151.822C70.1386 151.822 70.2135 151.88 70.2551 151.897C70.3299 151.972 70.4464 152.013 70.5545 151.98C71.2699 151.731 71.9852 151.514 72.2098 150.824C72.4843 149.984 71.9187 148.961 71.5361 148.079C71.4695 147.929 71.2283 147.821 71.1118 147.929C70.122 148.828 68.6996 150.3 70.1386 151.822Z" fill="#B4F1E6"/>
<path d="M65.1643 155.324C65.2059 155.357 65.2475 155.374 65.2974 155.374C65.3889 155.432 65.5054 155.457 65.6052 155.399C66.2623 155.033 66.9361 154.684 67.0276 153.96C67.1441 153.087 66.4121 152.18 65.8714 151.381C65.7799 151.248 65.522 151.182 65.4222 151.306C64.6153 152.363 63.4758 154.068 65.1643 155.316V155.324Z" fill="#B4F1E6"/>
<path d="M71.5777 156.688C71.5444 156.73 71.5361 156.78 71.5278 156.821C71.4779 156.913 71.4529 157.029 71.5195 157.129C71.9187 157.769 72.3014 158.418 73.025 158.476C73.9068 158.551 74.7718 157.769 75.5454 157.195C75.6785 157.096 75.7284 156.838 75.5953 156.746C74.4973 155.989 72.7422 154.933 71.5777 156.688Z" fill="#B4F1E6"/>
<path d="M59.5247 137.556C59.5247 137.556 58.8925 200.35 60.9305 223.932H53.8934C53.8934 223.932 59.0672 143.371 59.5247 137.556Z" fill="#B4F1E6"/>
<path d="M58.6097 152.646C58.6097 152.646 52.9035 145.018 51.4728 141.915C51.4728 141.915 57.2206 153.319 58.277 157.27L58.6097 152.646Z" fill="#B4F1E6"/>
<path d="M58.5848 166.362C58.5848 166.362 62.6524 162.519 67.0693 158.609C67.0693 158.609 61.4546 167.036 58.9175 170.987L58.5848 166.362Z" fill="#B4F1E6"/>
<path d="M58.8342 149.393C58.8342 149.393 62.1615 144.918 63.0182 143.055C63.0182 143.055 59.6661 149.801 59.0339 152.171L58.8342 149.393Z" fill="#B4F1E6"/>
</g>
<path opacity="0.31" d="M-7.93519 189.312H74.4889L74.4889 83.0231L-7.93519 83.0231L-7.93519 189.312Z" fill="white"/>
<path opacity="0.6" d="M45.8496 187.39H54.4755L17.8093 84.2377H9.17512L45.8496 187.39Z" fill="white"/>
<path opacity="0.6" d="M61.0885 187.39H65.3973L28.7311 84.2377H24.414L61.0885 187.39Z" fill="white"/>
<path opacity="0.6" d="M19.1569 187.39H23.4656L-6.94535 95.3919L-7.86034 101.381L19.1569 187.39Z" fill="white"/>
<path d="M73.3244 190.684H75.7533L75.7533 81.8087H73.3244L73.3244 190.684Z" fill="white"/>
<path d="M45.8497 190.127H48.2786L48.2786 82.3495H45.8497L45.8497 190.127Z" fill="white"/>
<path d="M-9.09971 81.8088V84.2377H75.7533V81.8088H-9.09971Z" fill="white"/>
<path d="M-9.09971 188.098V190.527H75.7533V188.098H-9.09971Z" fill="white"/>
<path d="M18.3749 190.127H20.8038L20.8038 82.3495H18.3749L18.3749 190.127Z" fill="white"/>
<path d="M75.7533 135.028H-9.09971V137.457H75.7533V135.028Z" fill="white"/>
<path d="M73.3078 138.314V137.457H-6.65415V138.314H73.3078Z" fill="#B4F1E6"/>
<path d="M73.3078 188.247V187.39H-6.65415V188.247H73.3078Z" fill="#B4F1E6"/>
<path d="M73.3327 85.0944V84.2377H-6.67918V85.0944L73.3327 85.0944Z" fill="#B4F1E6"/>
<path d="M119.365 146.166H182.059V108.368H119.365V146.166Z" fill="#B4F1E6"/>
<path d="M122.484 143.022H178.948V111.521H122.484V143.022Z" fill="url(#paint3_linear_139_2387)"/>
<path d="M127.5 138.746H173.923V115.788H127.5V138.746Z" fill="#B4F1E6"/>
<path d="M173.923 138.746L166.612 128.132C166.329 127.724 165.722 127.733 165.456 128.157L161.43 134.537L158.202 131.11C157.878 130.769 157.32 130.844 157.096 131.251L152.97 138.746H173.923Z" fill="#B4F1E6"/>
<path d="M159.749 121.195C159.749 122.459 160.773 123.482 162.045 123.482C163.318 123.482 164.333 122.459 164.333 121.195C164.333 119.931 163.31 118.899 162.045 118.899C160.781 118.899 159.749 119.922 159.749 121.195Z" fill="white"/>
<path d="M142.714 121.985C142.83 122.235 143.088 122.268 143.329 122.31C144.195 122.476 145.218 122.393 146.099 122.409C146.64 122.418 147.172 122.409 147.713 122.409C148.245 122.651 148.819 122.884 149.41 122.875C150.059 122.859 150.583 122.468 151.24 122.409C151.623 122.376 152.737 122.526 152.421 121.736C152.063 120.846 150.009 121.037 149.294 120.812C148.911 120.696 148.645 120.629 148.245 120.58C147.746 120.513 147.838 120.496 147.389 120.214C147.172 120.072 147.056 119.997 146.831 119.922C146.407 119.781 145.966 119.798 145.559 119.981C145.101 120.189 144.902 120.671 144.411 120.804C144.003 120.921 142.248 120.979 142.722 121.985H142.714Z" fill="white"/>
<path d="M136.7 123.99C137.465 124.239 138.38 124.306 139.17 124.231C139.628 124.189 140.36 124.148 140.701 123.782C140.942 123.524 140.925 123.158 140.659 122.908C140.418 122.684 140.127 122.684 139.844 122.75C139.337 122.542 138.821 122.384 138.255 122.476C138.039 122.509 137.831 122.634 137.598 122.626C137.415 122.617 137.199 122.476 137.024 122.451C136.816 122.418 136.608 122.409 136.409 122.484C135.452 122.85 136.001 123.765 136.7 123.99Z" fill="white"/>
<path d="M147.547 138.746L142.98 130.578C142.822 130.295 142.414 130.286 142.248 130.561L138.788 136.209L137.324 133.93C137.141 133.647 136.725 133.68 136.583 133.98L134.329 138.746L130.528 129.92C130.378 129.563 129.871 129.579 129.738 129.945L127.508 136.217V138.746H147.563H147.547Z" fill="#B4F1E6"/>
<path d="M102.138 100.865C94.2528 100.865 87.8395 94.4519 87.8395 86.5747H88.5133C88.5133 94.0859 94.6271 100.2 102.138 100.2C109.65 100.2 115.763 94.0859 115.763 86.5747H116.437C116.437 94.4602 110.024 100.865 102.147 100.865H102.138Z" fill="#B4F1E6"/>
<path d="M101.947 75.3954L83.9134 90.3264H123.666L101.947 75.3954Z" fill="#B4F1E6"/>
<path opacity="0.22" d="M92.9802 88.2217L73.9401 149.584H129.314L111.322 88.2217H92.9802Z" fill="url(#paint4_linear_139_2387)"/>
<path d="M101.115 64.9145V73.5403V76.0108V76.0773V77.2336V77.3667V79.9869H102.87V77.3667V77.2336V76.0857V76.0274V73.5486V65.6963L101.115 64.9145Z" fill="#B4F1E6"/>
<path d="M101.132 77.3668H102.854C103.993 77.3668 104.925 78.2985 104.925 79.438V83.7219H99.0607V79.438C99.0607 78.2985 99.9923 77.3668 101.132 77.3668Z" fill="#FD9A9F"/>
<path d="M105.333 90.8333C105.333 88.9451 103.802 87.4146 101.914 87.4146C100.026 87.4146 98.495 88.9451 98.495 90.8333C98.495 92.7215 100.026 94.2521 101.914 94.2521C103.802 94.2521 105.333 92.7215 105.333 90.8333Z" fill="#B4F1E6"/>
<path d="M101.964 92.9714C101.157 92.8217 100.042 92.1895 99.8342 91.3328C99.7594 91.025 99.2852 91.1581 99.3601 91.4658C99.6097 92.489 100.849 93.2626 101.831 93.4456C102.138 93.5038 102.271 93.0297 101.964 92.9714Z" fill="white"/>
<path d="M101.947 75.3954L82.0669 90.3264H121.819L101.947 75.3954Z" fill="#B4F1E6"/>
<path d="M101.124 73.5485H102.762C103.328 73.5485 103.794 74.006 103.794 74.5799V76.2186C103.794 76.7842 103.336 77.25 102.762 77.25H101.124C100.558 77.25 100.092 76.7925 100.092 76.2186V74.5799C100.092 74.0143 100.55 73.5485 101.124 73.5485Z" fill="#B4F1E6"/>
</g>
<path d="M26.1691 102.121C26.219 109.349 20.4046 115.247 13.1762 115.297C5.94776 115.347 0.0502275 109.532 0.000318909 102.304C-0.0495897 95.0755 5.76476 89.178 12.9932 89.1281C20.2216 89.0782 26.1192 94.8925 26.1691 102.121Z" fill="#BE042F"/>
<path d="M11.5459 110.115C10.8222 110.074 9.23344 109.458 4.95793 103.502C4.51707 102.895 4.65848 102.047 5.2657 101.606C5.87293 101.165 6.72137 101.306 7.16223 101.914C8.54304 103.835 10.3065 106.006 11.3379 106.963C13.2178 103.868 18.6495 95.3089 18.9074 94.893C19.3067 94.2609 20.1468 94.0695 20.779 94.4771C21.4111 94.8764 21.6025 95.7165 21.1949 96.3487C19.1486 99.5761 13.7086 108.185 13.1346 109.242C12.8601 109.749 12.3527 110.074 11.7788 110.107C11.7122 110.107 11.6291 110.115 11.5376 110.107L11.5459 110.115Z" fill="white"/>
<path d="M151.265 178.157C147.871 177.034 146.233 171.586 145.443 168.666L141.891 170.038C141.891 170.038 143.646 175.362 143.446 178.756C143.238 182.158 144.211 181.834 144.211 181.834H155.774C155.774 181.834 154.667 179.272 151.265 178.157Z" fill="#FD9A9F"/>
<path d="M151.265 178.157C150.242 177.816 149.377 177.084 148.645 176.144C148.171 175.479 145.867 176.211 145.484 177.492C145.484 177.492 144.561 178.165 143.454 178.066C143.454 178.299 143.454 178.531 143.438 178.756C143.23 182.158 144.203 181.834 144.203 181.834H155.765C155.765 181.834 154.659 179.272 151.257 178.157H151.265Z" fill="#80041D"/>
<path d="M99.2936 130.137L95.7417 131.626C97.9294 135.419 98.7113 139.029 92.5393 139.029C89.6945 139.029 88.9874 142.447 88.9874 142.447H103.752C103.752 142.447 105.224 141.849 103.095 138.397C100.783 134.645 99.2936 130.137 99.2936 130.137Z" fill="#FD9A9F"/>
<path d="M98.495 139.27C97.5634 138.413 98.5949 136.775 97.2889 136.7C97.0061 138.106 95.6669 139.029 92.5393 139.029C89.6945 139.029 88.9874 142.448 88.9874 142.448H103.752C103.752 142.448 105.133 141.89 103.286 138.713C101.739 138.713 99.9008 140.576 98.495 139.27Z" fill="#80041D"/>
<path d="M128.648 94.5189C117.876 93.6621 90.4764 95.1012 89.2786 95.6252C87.8646 96.2407 84.6205 100.217 90.4265 103.444C95.276 106.139 129.206 117.518 134.396 103.76C136.301 98.7112 131.926 94.7851 128.648 94.5189Z" fill="#E70000"/>
<path d="M134.853 101.098C111.879 110.323 88.0807 100.999 86.5336 100.425C87.3654 101.398 88.6214 102.438 90.4264 103.444C95.2759 106.139 129.205 117.518 134.396 103.76C134.745 102.829 134.887 101.939 134.853 101.098Z" fill="#80041D"/>
<path d="M139.786 104.101C138.147 98.6446 134.779 94.6353 133.672 93.5789C131.859 91.8487 127.234 91.2664 125.762 94.9846C124.289 98.7111 123.84 101.032 125.096 108.344C126.352 115.663 133.839 133.689 134.396 139.12C134.953 144.544 142.972 145.858 141.608 137.998C140.244 130.137 141.674 110.415 139.778 104.101H139.786Z" fill="#E70000"/>
<path d="M142.074 139.528C141.708 138.039 141.541 136.95 141.292 135.436C140.235 128.989 133.523 134.296 133.756 136.01C134.038 138.164 134.712 139.245 135.294 146.715C135.877 154.185 137.565 158.152 139.096 161.821C140.626 165.489 141.525 170.505 141.525 170.505C145.018 171.27 146.208 169.973 146.208 169.973C146.208 169.973 145.409 162.012 145.027 155.59C144.644 149.169 142.922 143.014 142.065 139.528H142.074Z" fill="#E70000"/>
<path d="M85.4772 98.0289C84.2295 100.15 96.1826 134.537 96.1826 134.537C99.7344 134.928 101.423 133.19 101.423 133.19C101.423 133.19 98.6697 122.9 98.5117 116.47C97.8046 87.8143 86.3506 96.54 85.4772 98.0289Z" fill="#E70000"/>
<path d="M115.705 75.878C115.106 74.7467 108.119 60.947 107.928 58.8924C107.703 56.4718 110.781 55.9644 112.777 57.9774C114.69 59.9072 120.596 69.4314 121.203 73.1912C121.861 77.2421 116.995 78.3152 115.705 75.878Z" fill="#FD9A9F"/>
<path d="M116.404 75.8947C119.249 67.8095 113.243 58.5847 112.786 57.9941C114.715 59.9572 120.588 69.4398 121.195 73.1913C121.802 76.9344 116.329 76.0943 116.396 75.8864L116.404 75.8947Z" fill="#F8A5E8"/>
<path d="M128.216 50.3579C126.144 50.491 124.572 52.2794 124.705 54.3506C124.838 56.4218 126.627 57.9939 128.698 57.8608C130.769 57.7277 132.341 55.9393 132.208 53.8681C132.075 51.7969 130.287 50.2248 128.216 50.3579Z" fill="#80041D"/>
<path d="M133.34 69.7389C132.691 65.8544 134.928 63.334 132.641 58.9919C130.353 54.6499 128.066 54.2922 125.87 53.7349C120.288 52.3291 114.807 59.4245 117.144 64.1824C119.307 68.5827 117.427 72.1678 115.763 75.9442C114.091 79.7206 113.817 91.4658 124.015 92.073C134.213 92.6803 136.359 88.2467 137.116 82.0165C138.014 74.5634 133.988 73.6318 133.34 69.7473V69.7389Z" fill="#80041D"/>
<path d="M115.264 60.7055C115.264 60.7055 112.286 60.6972 108.826 62.1945L116.687 78.7059L120.122 76.5182C120.122 76.5182 122.152 75.2289 121.07 71.8851C119.997 68.5412 115.963 62.5189 115.256 60.7055H115.264Z" fill="url(#paint5_linear_139_2387)"/>
<path d="M132.108 86.7164C132.192 85.1193 132.666 83.622 133.755 78.0739C134.18 75.9112 134.737 74.206 134.146 73.2826C133.398 72.1264 131.26 72.0599 129.738 72.1597C127.001 72.3344 127.891 65.6466 127.891 65.6466C127.384 64.2991 122.85 64.8315 123.341 69.2234C123.832 73.6154 119.357 71.8602 118.375 72.742C117.028 73.9564 117.294 76.3936 117.094 77.7162C116.895 79.0304 115.065 80.6941 115.481 83.073C115.896 85.4437 118.151 85.2191 118.151 85.2191C119.016 86.0925 119.881 87.7312 120.031 88.9207C120.388 91.6906 119.19 94.5437 119.19 94.5437C127.45 97.5549 134.088 94.0197 134.088 94.0197C134.088 94.0197 131.851 91.4993 132.092 86.7164H132.108Z" fill="#FD9A9F"/>
<path d="M129.746 72.1594C127.01 72.3341 127.9 65.6463 127.9 65.6463C127.617 64.8977 126.095 64.7314 124.88 65.48C125.745 65.6464 128.016 69.2564 127.143 74.7963C126.893 76.3684 125.279 77.3915 123.757 77.7991C123.757 77.7991 133.597 78.8805 133.764 78.0653C134.188 75.9026 131.26 72.0596 129.746 72.1594Z" fill="#FD9A9F"/>
<path d="M132.108 86.7163C132.192 85.1192 132.666 83.622 133.755 78.0738C134.18 75.9111 134.745 74.2059 134.146 73.2826C133.473 72.2345 131.676 72.0848 130.22 72.1347C128.706 75.9277 125.113 78.1819 122.468 77.1754C120.763 76.5266 121.345 74.5885 121.212 72.3343C120.097 72.2844 118.675 72.4341 118.392 72.692C117.044 73.9064 117.311 76.4019 117.103 77.7161C116.903 79.0304 115.073 80.694 115.489 83.073C115.905 85.4436 118.159 85.219 118.159 85.219C119.032 86.0924 119.889 87.7311 120.039 88.9206C120.397 91.6905 119.199 94.5436 119.199 94.5436C127.459 97.5465 134.096 94.0196 134.096 94.0196C134.096 94.0196 131.859 91.4992 132.1 86.7163H132.108Z" fill="url(#paint6_linear_139_2387)"/>
<path d="M132.109 86.7163C132.192 85.1192 132.666 83.622 133.756 78.0738C134.18 75.9111 134.745 74.2059 134.147 73.2826C133.489 72.2761 131.792 72.0931 130.37 72.1347C130.353 72.3759 130.353 72.692 130.312 72.9332C129.688 76.144 127.675 78.5812 124.913 79.7624L126.527 80.0119C128.374 80.3031 129.596 82.2578 129.255 84.0379C129.006 85.3438 128.033 86.3004 126.843 86.6497L126.244 90.4844C125.787 93.3957 128.474 95.8246 131.31 95.051C133.073 94.5686 134.113 94.0196 134.113 94.0196C134.113 94.0196 131.876 91.4992 132.117 86.7163H132.109Z" fill="#80041D"/>
<path d="M136.351 57.0871C134.795 58.6426 129.921 72.1346 128.806 74.8213C128.407 75.7779 132.874 77.3833 134.812 75.1707C135.885 73.9479 140.934 59.6325 140.826 57.5612C140.693 55.1324 138.364 55.0741 136.359 57.0788L136.351 57.0871Z" fill="#FD9A9F"/>
<path d="M134.487 71.985C132.982 73.6653 132.292 75.3704 130.079 75.9194C131.759 76.5932 133.531 76.6348 134.812 75.1708C135.777 74.0645 140.019 62.3609 140.718 58.518C140.51 59.2916 136.484 69.7391 134.487 71.9767V71.985Z" fill="#FD9A9F"/>
<path d="M127.875 61.9783C127.875 61.9783 125.787 56.4633 123.94 56.3386C122.093 56.2138 120.629 56.4051 119.773 58.4431C119.773 58.4431 118.75 60.2564 119.182 62.3858C119.182 62.3858 116.786 64.6151 119.482 67.751C122.168 70.8869 126.519 68.6078 127.908 65.6465C127.908 65.6465 130.387 66.3869 130.661 64.0827C130.936 61.7786 129.422 61.6954 127.883 61.9783H127.875Z" fill="#FD9A9F"/>
<path d="M127.875 61.978C127.875 61.978 125.787 56.4631 123.94 56.3383C122.46 56.2385 121.228 56.3383 120.355 57.428C121.578 57.087 126.045 61.8948 126.136 64.8144C126.228 67.784 123.1 69.6889 120.521 68.4578C120.214 68.3081 119.914 68.1334 119.64 67.9254C122.335 70.7952 126.544 68.5576 127.9 65.6463C127.9 65.6463 130.378 66.3866 130.653 64.0825C130.927 61.7784 129.413 61.6952 127.875 61.978Z" fill="#FD9A9F"/>
<path d="M118.367 59.2664C118.367 59.2664 121.262 58.759 122.875 57.0954C124.489 55.4234 125.354 55.6896 125.354 55.6896C120.33 53.6101 118.367 59.2664 118.367 59.2664Z" fill="#80041D"/>
<path d="M123.79 56.0306C123.009 56.6877 122.875 58.6342 124.938 60.7886C127.001 62.943 126.394 65.6214 127.983 64.1408C129.572 62.6518 129.588 62.4106 129.696 60.4226C129.804 58.4345 125.504 54.5916 123.79 56.0306Z" fill="#80041D"/>
<path d="M139.512 64.3985C139.512 64.3985 135.71 73.981 134.795 75.4117C133.88 76.8424 129.913 77.0586 128.69 75.054C128.69 75.054 128.748 74.9375 128.79 74.8377C129.156 73.8811 130.362 68.2747 132.533 63.4669C132.533 63.4669 135.045 62.0278 139.503 64.3985H139.512Z" fill="url(#paint7_linear_139_2387)"/>
<path d="M108.011 58.077C109.175 54.3671 115.863 44.1109 115.838 41.7652C115.813 39.4278 116.953 35.6181 118.558 34.7946C120.197 33.9545 120.671 35.2771 120.713 37.0405C120.738 38.1634 120.621 39.4028 119.19 41.6654C117.76 43.9362 114.782 55.0159 113.135 58.5678C111.496 62.0946 107.221 60.5891 108.011 58.077Z" fill="#FD9A9F"/>
<path d="M106.106 0H116.512L146.025 45.159H135.61L106.106 0Z" fill="#E70000"/>
<path d="M106.112 0.0132549L97.9513 36.8254L135.616 45.1755L143.777 8.36336L106.112 0.0132549Z" fill="#E70000"/>
<path d="M116.526 0.0108047L108.365 36.823L146.03 45.1731L154.191 8.36091L116.526 0.0108047Z" fill="url(#paint8_linear_139_2387)"/>
<path d="M123.491 7.05362L135.136 9.64886C137.44 10.1646 139.137 10.647 140.227 11.0879C141.317 11.5288 142.24 12.1609 142.997 12.9678C143.754 13.7746 144.319 14.7562 144.685 15.9041C145.051 17.052 145.101 18.2498 144.819 19.5141C144.511 20.8783 143.87 22.0512 142.88 23.0244C141.891 23.9976 140.701 24.6298 139.32 24.9209C140.984 25.8359 142.148 27.0171 142.822 28.481C143.496 29.9367 143.646 31.5088 143.271 33.1891C142.98 34.5117 142.381 35.7344 141.483 36.8491C140.585 37.9637 139.52 38.7789 138.289 39.2863C137.058 39.7937 135.635 39.96 134.038 39.7854C133.032 39.6772 130.653 39.2114 126.901 38.4046L116.986 36.1919L123.491 7.06193V7.05362ZM128.29 13.2173L126.785 19.955L130.636 20.8118C132.924 21.3192 134.363 21.6103 134.928 21.6685C135.96 21.7767 136.833 21.602 137.54 21.1528C138.247 20.7036 138.705 20.0132 138.913 19.0733C139.112 18.1749 139.029 17.3847 138.655 16.7109C138.281 16.0372 137.623 15.5298 136.667 15.1887C136.101 14.9891 134.429 14.5815 131.659 13.966L128.282 13.209L128.29 13.2173ZM125.704 24.8044L123.965 32.5902L129.413 33.8046C131.535 34.2788 132.89 34.52 133.489 34.5283C134.404 34.5699 135.203 34.337 135.885 33.8462C136.575 33.3555 137.033 32.5902 137.257 31.5588C137.449 30.6854 137.407 29.8951 137.116 29.1881C136.825 28.4811 136.317 27.9071 135.577 27.4496C134.837 26.9921 133.132 26.4681 130.453 25.8692L125.704 24.8128V24.8044Z" fill="white"/>
<path d="M139.512 64.3984C139.512 64.3984 135.71 73.9809 134.795 75.4116C133.914 76.7924 130.611 77.6575 129.305 75.9107C129.289 75.8858 129.305 75.7859 129.322 75.7444C129.347 75.7111 129.413 75.6944 129.63 75.7111C130.495 75.7776 133.123 75.8525 134.271 74.322C135.993 72.0345 137.332 66.2368 139.503 64.3984H139.512Z" fill="#80041D"/>
<path d="M140.61 56.1638C139.262 52.5122 132.067 42.6053 131.984 40.2679C131.892 37.9305 130.561 34.1791 128.923 33.4388C127.242 32.6818 126.835 34.021 126.885 35.7845C126.91 36.9074 127.093 38.1385 128.632 40.3262C130.17 42.5221 133.697 53.4355 135.527 56.9041C137.341 60.3478 141.533 58.626 140.618 56.1555L140.61 56.1638Z" fill="#FD9A9F"/>
<path d="M136.093 57.3033C136.093 57.3033 136.351 57.5029 136.018 58.0686C135.685 58.6342 139.786 59.5242 140.144 58.7507C140.501 57.9688 140.543 57.661 140.543 57.661C140.543 57.661 140.676 56.746 140.094 55.6646C139.512 54.5833 136.093 57.3116 136.093 57.3116V57.3033Z" fill="#FD9A9F"/>
<path d="M108.211 58.9505C108.211 58.9505 108.435 59.9486 108.926 61.0134C109.417 62.0781 113.127 59.7573 113.127 59.7573V58.8174C113.127 58.8174 112.877 58.6094 113.127 57.944C113.376 57.2785 111.272 56.8543 111.272 56.8543L108.211 58.9505Z" fill="#FD9A9F"/>
<path d="M95.7417 102.213H55.0079V142.023H95.7417V102.213Z" fill="url(#paint9_linear_139_2387)"/>
<path d="M42.6555 142.031H55.6151L55.6151 102.213H42.6555L42.6555 142.031Z" fill="#80041D"/>
<path d="M63.875 139.478V107.961H77.2672C80.636 107.961 83.0815 108.244 84.6121 108.809C86.1343 109.375 87.357 110.382 88.2803 111.829C89.1953 113.276 89.6528 114.932 89.6528 116.795C89.6528 119.157 88.9541 121.112 87.565 122.651C86.1759 124.19 84.0963 125.163 81.3347 125.562C82.7072 126.361 83.8468 127.242 84.7452 128.207C85.6435 129.164 86.8496 130.869 88.3635 133.323L92.2148 139.47H84.6037L80.0038 132.616C78.3735 130.162 77.2505 128.623 76.6516 127.983C76.0527 127.342 75.4122 126.91 74.7385 126.668C74.0647 126.435 73 126.311 71.536 126.311H70.2467V139.47H63.8833L63.875 139.478ZM70.2384 121.295H74.9464C77.9992 121.295 79.904 121.17 80.661 120.912C81.4179 120.654 82.0168 120.214 82.441 119.581C82.8736 118.949 83.0898 118.159 83.0898 117.219C83.0898 116.163 82.807 115.306 82.2414 114.649C81.6758 114 80.8772 113.584 79.8458 113.409C79.3301 113.334 77.7829 113.301 75.2043 113.301H70.2384V121.295Z" fill="white"/>
<path d="M120.58 142.031H79.8458V181.842H120.58V142.031Z" fill="#E70000"/>
<path d="M67.4851 181.85H80.4447V142.023H67.4851V181.85Z" fill="#80041D"/>
<path d="M117.111 178.166H110.19L107.437 171.004H94.835L92.2315 178.166H85.4855L97.763 146.649H104.492L117.111 178.166ZM105.399 165.697L101.057 154.002L96.7981 165.697H105.399Z" fill="white"/>
<path d="M155.665 181.859H114.932V221.669H155.665V181.859Z" fill="url(#paint10_linear_139_2387)"/>
<path d="M102.579 221.669H115.539V181.842H102.579V221.669Z" fill="#80041D"/>
<path d="M123.757 186.75H135.386C138.006 186.75 140.011 186.949 141.383 187.349C143.23 187.898 144.819 188.863 146.133 190.252C147.455 191.641 148.454 193.346 149.144 195.359C149.834 197.372 150.175 199.859 150.175 202.812C150.175 205.407 149.851 207.645 149.211 209.517C148.42 211.812 147.297 213.667 145.833 215.081C144.727 216.154 143.238 216.994 141.358 217.593C139.953 218.034 138.073 218.259 135.727 218.259H123.757V186.742V186.75ZM130.121 192.082V212.96H134.87C136.65 212.96 137.931 212.86 138.721 212.661C139.753 212.403 140.61 211.962 141.292 211.346C141.974 210.731 142.531 209.716 142.955 208.302C143.388 206.888 143.604 204.966 143.604 202.529C143.604 200.092 143.388 198.221 142.955 196.915C142.523 195.609 141.924 194.594 141.15 193.862C140.377 193.13 139.395 192.639 138.206 192.381C137.316 192.182 135.577 192.082 132.982 192.082H130.121Z" fill="white"/>
<path d="M107.612 181.859H66.8779V221.669H107.612V181.859Z" fill="#BE042F"/>
<path d="M54.5338 221.669H67.4934V181.842H54.5338L54.5338 221.669Z" fill="#47010C"/>
<path d="M75.7949 217.984V186.467H81.9835L94.8849 207.511V186.467H100.799V217.984H94.4191L81.7174 197.43V217.984H75.8032H75.7949Z" fill="white"/>
<path d="M55.931 214.299C45.5833 223.948 31.5756 222.717 25.0127 211.197C18.4497 199.684 21.5274 182.524 31.8751 172.875C42.2228 163.226 55.9394 164.74 62.494 176.252C69.057 187.765 66.2788 204.65 55.9227 214.299H55.931Z" fill="#80041D"/>
<path d="M53.6935 213.601C43.5538 223.058 30.12 221.569 23.6901 210.29C17.2602 199.011 20.2714 182.2 30.4195 172.742C40.5592 163.284 53.993 164.773 60.4229 176.053C66.8528 187.332 63.8416 204.143 53.6935 213.601Z" fill="url(#paint11_linear_139_2387)"/>
<path d="M52.0299 210.689C43.3375 218.791 31.8252 217.518 26.3103 207.853C20.8038 198.179 23.3824 183.772 32.0748 175.67C40.7672 167.568 52.2795 168.841 57.7944 178.506C63.301 188.18 60.7223 202.587 52.0299 210.689Z" fill="white"/>
<path d="M50.3663 207.77C43.1212 214.524 33.5305 213.468 28.9389 205.407C24.3473 197.347 26.5017 185.344 33.7467 178.59C40.9918 171.835 50.5826 172.892 55.1742 180.952C59.7658 189.012 57.6114 201.015 50.3663 207.77Z" fill="url(#paint12_linear_139_2387)"/>
<path d="M48.7027 204.85C42.905 210.257 35.2357 209.409 31.5591 202.962C27.8908 196.516 29.6043 186.908 35.4021 181.51C41.1998 176.111 48.8774 176.951 52.5457 183.398C56.2223 189.844 54.5004 199.452 48.7027 204.85Z" fill="white"/>
<path d="M47.0474 201.93C42.6971 205.981 36.9409 205.349 34.1876 200.508C31.4343 195.675 32.7237 188.472 37.0657 184.412C41.4078 180.353 47.1722 180.994 49.9255 185.835C52.6788 190.668 51.3895 197.871 47.0474 201.93Z" fill="url(#paint13_linear_139_2387)"/>
<path d="M45.3837 199.011C42.489 201.714 38.6461 201.29 36.8078 198.063C34.9695 194.835 35.8346 190.036 38.7293 187.332C41.624 184.629 45.4669 185.053 47.3052 188.281C49.1435 191.508 48.2784 196.308 45.3837 199.011Z" fill="white"/>
<path d="M43.7201 196.091C42.2728 197.439 40.3513 197.231 39.4363 195.617C38.5213 194.003 38.9456 191.599 40.4012 190.252C41.8486 188.904 43.7701 189.112 44.685 190.726C45.6 192.34 45.1758 194.735 43.7201 196.091Z" fill="url(#paint14_linear_139_2387)"/>
<path d="M12.2527 199.934L41.7653 193.962C42.098 193.895 42.3143 193.571 42.2478 193.238C42.1812 192.905 41.8568 192.689 41.5241 192.756L12.0115 198.728L12.2527 199.934Z" fill="#80041D"/>
<path d="M19.947 197.256L12.6686 194.652L4.76642 196.258L10.0235 199.735L6.53818 204.992L14.4321 203.386L20.13 198.162L19.947 197.256Z" fill="#80041D"/>
<path d="M26.094 175.704L42.3725 192.548C42.6054 192.789 42.9964 192.797 43.2459 192.564C43.4872 192.323 43.4955 191.941 43.2626 191.691L26.9841 174.847L26.094 175.704Z" fill="#80041D"/>
<path d="M32.499 180.744L30.7689 173.199L25.1625 167.418L25.0626 173.715L18.7575 173.615L24.3639 179.405L31.8419 181.384L32.499 180.744Z" fill="#80041D"/>
<path d="M44.5688 30.3276C44.6103 24.7045 49.1936 20.1878 54.8083 20.2127C60.4314 20.246 64.9814 24.8459 64.9398 30.469C64.9231 33.0892 63.9167 35.4681 62.278 37.2565C60.2484 39.4775 58.7844 42.3389 58.7594 45.3417V45.6412L50.5245 45.583V45.3168C50.5495 42.2973 49.1188 39.4026 47.1224 37.1401C45.517 35.3267 44.5521 32.9311 44.5688 30.3192V30.3276Z" fill="url(#paint15_linear_139_2387)"/>
<path d="M52.1133 37.8806C52.1133 37.8806 51.5976 35.6347 51.2399 33.4221C51.0319 32.1244 50.9238 31.1845 50.8905 30.5107C50.6992 30.4608 50.5079 30.3693 50.3166 30.2362C48.7445 29.1382 50.2001 26.884 50.2667 26.7842C50.3166 26.7094 50.458 26.6927 50.5828 26.7509C50.7075 26.8092 50.7658 26.9256 50.7159 27.0005C50.3249 27.5911 49.5513 29.2797 50.5994 30.0033C50.6992 30.0699 50.7907 30.1198 50.8822 30.1531C50.8573 28.7639 51.19 28.714 51.3813 28.6891C51.6891 28.6392 51.9719 28.7307 52.1466 28.9303C52.4959 29.3379 52.2464 30.1364 51.6807 30.4276C51.5892 30.4775 51.4894 30.5107 51.3813 30.5274C51.4728 32.2409 51.9719 35.1772 52.6041 37.9222C52.629 38.022 52.5375 38.0885 52.4044 38.0802C52.3712 38.0802 52.3379 38.0719 52.3046 38.0553C52.2131 38.022 52.1382 37.9554 52.1216 37.8806H52.1133ZM51.5976 29.0384C51.4229 29.08 51.3563 29.471 51.3563 30.0948C51.7639 29.8536 51.9137 29.2464 51.739 29.0551C51.739 29.0551 51.7307 29.0467 51.714 29.0384C51.6974 29.0384 51.6558 29.0301 51.5892 29.0384H51.5976Z" fill="white"/>
<path d="M57.1041 38.0886C57.1041 38.0886 57.0376 38.1053 57.0043 38.1136C56.8712 38.1219 56.7797 38.047 56.8047 37.9555C57.4785 35.2189 58.0274 32.2909 58.1356 30.5774C58.0358 30.5607 57.9276 30.5275 57.8361 30.4776C57.2705 30.1781 57.0293 29.3796 57.3953 28.972C57.57 28.7724 57.8611 28.6892 58.1689 28.7391C58.3602 28.7723 58.6846 28.8223 58.643 30.2114C58.7345 30.1864 58.826 30.1365 58.9258 30.07C59.9822 29.3546 59.2336 27.6577 58.8509 27.0671C58.801 26.9923 58.8593 26.8758 58.9923 26.8176C59.1171 26.7594 59.2585 26.776 59.3084 26.8509C59.3667 26.9507 60.7891 29.2298 59.2003 30.3029C59.009 30.436 58.8094 30.5191 58.618 30.5607C58.5764 31.2428 58.4517 32.1745 58.2271 33.4721C57.8361 35.6847 57.2871 37.8973 57.2871 37.9223C57.2705 37.9971 57.1956 38.0637 57.1041 38.0969V38.0886ZM57.8112 29.0801C57.8112 29.0801 57.7945 29.0884 57.7862 29.0968C57.6115 29.2964 57.753 29.9036 58.1605 30.1448C58.1772 29.521 58.1106 29.13 57.936 29.0801C57.8611 29.0718 57.8278 29.0801 57.8112 29.0801Z" fill="white"/>
<path d="M52.1216 37.623L52.3711 37.4234C53.7353 36.3171 55.6984 36.3337 57.0376 37.4567L57.2788 37.6646L57.2206 45.8995L52.055 45.8579L52.1133 37.623H52.1216ZM56.8047 37.8809L56.7298 37.8227C55.5653 36.8494 53.8518 36.8328 52.6706 37.7894L52.5957 37.8476L52.5375 45.3672L56.7381 45.4004L56.7964 37.8809H56.8047Z" fill="white"/>
<path d="M50.3748 46.224L58.9092 46.2905C59.2585 46.2905 59.5414 46.016 59.5414 45.6666C59.5414 45.3173 59.2669 45.0345 58.9175 45.0345L50.3831 44.9679C50.0338 44.9679 49.7509 45.2424 49.7509 45.5918C49.7509 45.9411 50.0254 46.224 50.3748 46.224Z" fill="#80041D"/>
<path d="M50.824 47.4883L58.4433 47.5465C58.7511 47.5465 59.009 47.272 59.009 46.9226C59.009 46.5733 58.7594 46.2904 58.4517 46.2904L50.8323 46.2322C50.5245 46.2322 50.2666 46.5067 50.2666 46.8561C50.2666 47.2054 50.5162 47.4883 50.824 47.4883Z" fill="#E70000"/>
<path d="M50.8073 48.7526L58.4267 48.8108C58.7344 48.8108 58.9923 48.5363 58.9923 48.1869C58.9923 47.8376 58.7428 47.5548 58.435 47.5548L50.8156 47.4965C50.5078 47.4965 50.25 47.771 50.25 48.1204C50.25 48.4697 50.4995 48.7526 50.8073 48.7526Z" fill="#80041D"/>
<path d="M50.7991 50.0169L58.4185 50.0751C58.7262 50.0751 58.9841 49.8006 58.9841 49.4512C58.9841 49.1019 58.7346 48.8191 58.4268 48.8191L50.8074 48.7608C50.4996 48.7608 50.2418 49.0353 50.2418 49.3847C50.2418 49.734 50.4913 50.0169 50.7991 50.0169Z" fill="#E70000"/>
<path d="M50.7908 51.2728L58.4101 51.3311C58.7179 51.3311 58.9758 51.0566 58.9758 50.7072C58.9758 50.3578 58.7262 50.075 58.4185 50.075L50.7991 50.0168C50.4913 50.0168 50.2334 50.2913 50.2334 50.6406C50.2334 50.99 50.483 51.2728 50.7908 51.2728Z" fill="#80041D"/>
<path d="M56.605 52.5787L52.5791 52.5454C51.8803 52.5454 51.323 51.9715 51.3314 51.2811L57.8777 51.331C57.8777 52.0297 57.3037 52.587 56.6133 52.5787H56.605Z" fill="#E70000"/>
<path d="M54.7002 17.1519C54.3841 17.077 54.1429 16.7859 54.1429 16.4448L54.1762 12.369C54.1762 11.9697 54.5089 11.6453 54.9082 11.6453C55.3075 11.6453 55.6319 11.978 55.6319 12.3773L55.5986 16.4531C55.5986 16.8524 55.2659 17.1768 54.8666 17.1768C54.8084 17.1768 54.7501 17.1768 54.7002 17.1602V17.1519Z" fill="url(#paint16_linear_139_2387)"/>
<path d="M47.7962 18.4498C47.6215 18.4082 47.4552 18.2918 47.347 18.1254L45.1594 14.5985C44.9514 14.2575 45.0513 13.8083 45.3923 13.6003C45.7333 13.3924 46.1825 13.4922 46.3905 13.8332L48.5781 17.3601C48.7861 17.7012 48.6863 18.1503 48.3452 18.3583C48.1705 18.4664 47.9709 18.4914 47.7879 18.4498H47.7962Z" fill="url(#paint17_linear_139_2387)"/>
<path d="M43.1297 23.798C43.0881 23.7897 43.0465 23.773 43.0049 23.7564L39.2035 22.0512C38.8375 21.8848 38.6712 21.4606 38.8376 21.0946C39.0039 20.7286 39.4281 20.5622 39.7941 20.7286L43.5955 22.4338C43.9615 22.6002 44.1279 23.0244 43.9615 23.3904C43.8201 23.7148 43.4624 23.8812 43.1297 23.798Z" fill="url(#paint18_linear_139_2387)"/>
<path d="M38.0141 32.482C37.7063 32.4071 37.4734 32.1326 37.4651 31.7999C37.4484 31.4006 37.7645 31.0596 38.1638 31.0513L41.6075 30.9265C42.0068 30.9099 42.3395 31.2259 42.3561 31.6252C42.3728 32.0245 42.0567 32.3655 41.6574 32.3738L38.2137 32.4986C38.1472 32.4986 38.0806 32.4986 38.0141 32.482Z" fill="url(#paint19_linear_139_2387)"/>
<path d="M62.0867 18.5657C62.0119 18.5491 61.937 18.5158 61.8705 18.4742C61.5294 18.258 61.4379 17.8088 61.6542 17.4761L63.8917 13.9825C64.108 13.6414 64.5572 13.5499 64.8982 13.7662C65.2393 13.9825 65.3308 14.4316 65.1145 14.7644L62.8769 18.258C62.7023 18.5241 62.3862 18.6406 62.095 18.5741L62.0867 18.5657Z" fill="url(#paint20_linear_139_2387)"/>
<path d="M66.6783 23.9811C66.462 23.9312 66.279 23.7815 66.1792 23.5652C66.0212 23.1992 66.1875 22.7667 66.5618 22.6086L70.3882 20.9617C70.7542 20.8036 71.1867 20.97 71.3447 21.3443C71.5028 21.7103 71.3281 22.1428 70.9621 22.3009L67.1358 23.9396C66.9861 24.0061 66.828 24.0144 66.6783 23.9811Z" fill="url(#paint21_linear_139_2387)"/>
<path d="M68.2171 32.5655C67.8844 32.4823 67.6432 32.1745 67.6681 31.8252C67.6847 31.4259 68.0258 31.1181 68.4334 31.1348L71.8771 31.3095C72.2763 31.3344 72.5841 31.6671 72.5675 32.0747C72.5508 32.474 72.2098 32.7818 71.8105 32.7651L68.3668 32.5904C68.3169 32.5904 68.2753 32.5821 68.2337 32.5738L68.2171 32.5655Z" fill="url(#paint22_linear_139_2387)"/>
<defs>
<linearGradient id="paint0_linear_139_2387" x1="-22.1008" y1="174.531" x2="221.287" y2="110.265" gradientUnits="userSpaceOnUse">
<stop stop-color="white"/>
<stop offset="1" stop-color="#B4F1E6"/>
</linearGradient>
<linearGradient id="paint1_linear_139_2387" x1="-11.0628" y1="216.354" x2="232.325" y2="152.08" gradientUnits="userSpaceOnUse">
<stop stop-color="white"/>
<stop offset="1" stop-color="#B4F1E6"/>
</linearGradient>
<linearGradient id="paint2_linear_139_2387" x1="-7.84368" y1="136.983" x2="74.4972" y2="136.983" gradientUnits="userSpaceOnUse">
<stop stop-color="white"/>
<stop offset="1" stop-color="#B4F1E6"/>
</linearGradient>
<linearGradient id="paint3_linear_139_2387" x1="122.476" y1="127.267" x2="178.948" y2="127.267" gradientUnits="userSpaceOnUse">
<stop stop-color="white"/>
<stop offset="1" stop-color="#B4F1E6"/>
</linearGradient>
<linearGradient id="paint4_linear_139_2387" x1="101.623" y1="149.584" x2="101.623" y2="88.2217" gradientUnits="userSpaceOnUse">
<stop stop-color="white"/>
<stop offset="1" stop-color="white"/>
</linearGradient>
<linearGradient id="paint5_linear_139_2387" x1="110.357" y1="93.5537" x2="118.134" y2="52.063" gradientUnits="userSpaceOnUse">
<stop stop-color="#80041D"/>
<stop offset="1" stop-color="#E70000"/>
</linearGradient>
<linearGradient id="paint6_linear_139_2387" x1="123.275" y1="95.9744" x2="131.044" y2="54.4837" gradientUnits="userSpaceOnUse">
<stop stop-color="#80041D"/>
<stop offset="1" stop-color="#E70000"/>
</linearGradient>
<linearGradient id="paint7_linear_139_2387" x1="128.989" y1="97.0387" x2="136.758" y2="55.5563" gradientUnits="userSpaceOnUse">
<stop stop-color="#80041D"/>
<stop offset="1" stop-color="#E70000"/>
</linearGradient>
<linearGradient id="paint8_linear_139_2387" x1="108.376" y1="22.5909" x2="154.2" y2="22.5909" gradientUnits="userSpaceOnUse">
<stop stop-color="#BE042F"/>
<stop offset="1" stop-color="#47010C"/>
</linearGradient>
<linearGradient id="paint9_linear_139_2387" x1="55.0079" y1="122.118" x2="95.7417" y2="122.118" gradientUnits="userSpaceOnUse">
<stop stop-color="#80041D"/>
<stop offset="1" stop-color="#E70000"/>
</linearGradient>
<linearGradient id="paint10_linear_139_2387" x1="114.932" y1="201.764" x2="155.665" y2="201.764" gradientUnits="userSpaceOnUse">
<stop stop-color="#80041D"/>
<stop offset="1" stop-color="#E70000"/>
</linearGradient>
<linearGradient id="paint11_linear_139_2387" x1="20.313" y1="193.171" x2="63.8" y2="193.171" gradientUnits="userSpaceOnUse">
<stop stop-color="#80041D"/>
<stop offset="1" stop-color="#E70000"/>
</linearGradient>
<linearGradient id="paint12_linear_139_2387" x1="26.5266" y1="193.171" x2="57.5864" y2="193.171" gradientUnits="userSpaceOnUse">
<stop stop-color="#80041D"/>
<stop offset="1" stop-color="#E70000"/>
</linearGradient>
<linearGradient id="paint13_linear_139_2387" x1="32.7403" y1="193.171" x2="51.3728" y2="193.171" gradientUnits="userSpaceOnUse">
<stop stop-color="#80041D"/>
<stop offset="1" stop-color="#E70000"/>
</linearGradient>
<linearGradient id="paint14_linear_139_2387" x1="38.9456" y1="193.171" x2="45.1592" y2="193.171" gradientUnits="userSpaceOnUse">
<stop stop-color="#80041D"/>
<stop offset="1" stop-color="#E70000"/>
</linearGradient>
<linearGradient id="paint15_linear_139_2387" x1="44.5688" y1="32.9394" x2="64.9398" y2="32.9394" gradientUnits="userSpaceOnUse">
<stop stop-color="#80041D"/>
<stop offset="1" stop-color="#E70000"/>
</linearGradient>
<linearGradient id="paint16_linear_139_2387" x1="54.1429" y1="14.4069" x2="55.6319" y2="14.4069" gradientUnits="userSpaceOnUse">
<stop stop-color="#80041D"/>
<stop offset="1" stop-color="#E70000"/>
</linearGradient>
<linearGradient id="paint17_linear_139_2387" x1="45.0596" y1="15.9876" x2="48.6946" y2="15.9876" gradientUnits="userSpaceOnUse">
<stop stop-color="#80041D"/>
<stop offset="1" stop-color="#E70000"/>
</linearGradient>
<linearGradient id="paint18_linear_139_2387" x1="38.7793" y1="22.2425" x2="44.028" y2="22.2425" gradientUnits="userSpaceOnUse">
<stop stop-color="#80041D"/>
<stop offset="1" stop-color="#E70000"/>
</linearGradient>
<linearGradient id="paint19_linear_139_2387" x1="37.4568" y1="31.7167" x2="42.3561" y2="31.7167" gradientUnits="userSpaceOnUse">
<stop stop-color="#80041D"/>
<stop offset="1" stop-color="#E70000"/>
</linearGradient>
<linearGradient id="paint20_linear_139_2387" x1="61.5377" y1="16.1119" x2="65.2226" y2="16.1119" gradientUnits="userSpaceOnUse">
<stop stop-color="#80041D"/>
<stop offset="1" stop-color="#E70000"/>
</linearGradient>
<linearGradient id="paint21_linear_139_2387" x1="66.121" y1="22.4506" x2="71.3947" y2="22.4506" gradientUnits="userSpaceOnUse">
<stop stop-color="#80041D"/>
<stop offset="1" stop-color="#E70000"/>
</linearGradient>
<linearGradient id="paint22_linear_139_2387" x1="67.6598" y1="31.9499" x2="72.5592" y2="31.9499" gradientUnits="userSpaceOnUse">
<stop stop-color="#80041D"/>
<stop offset="1" stop-color="#E70000"/>
</linearGradient>
</defs>
</svg>
