<svg width="229" height="223" viewBox="0 0 229 223" fill="none" xmlns="http://www.w3.org/2000/svg">
<path d="M214.285 220.901H8.29348V222.466H214.285V220.901Z" fill="#B4F1E6"/>
<path d="M134.681 5.78063C167.754 15.3085 223.299 44.7261 220.797 112.312C218.295 179.899 159.334 145.043 115.042 206.106C82.0261 251.632 -56.2081 189.381 25.4072 55.6364C57.9094 2.37619 105.971 -2.47915 134.681 5.78063Z" fill="url(#paint0_linear_139_1084)"/>
<path d="M164.315 179.373C135.058 188.296 131.094 201.491 131.299 213.178C131.528 226.43 183.451 219.987 205.203 184.868C226.955 149.75 179.784 174.644 164.315 179.362V179.373Z" fill="url(#paint1_linear_139_1084)"/>
<mask id="mask0_139_1084" style="mask-type:luminance" maskUnits="userSpaceOnUse" x="0" y="2" width="221" height="219">
<path d="M134.681 5.78063C167.754 15.3085 223.299 44.7261 220.797 112.312C218.295 179.899 159.334 145.043 115.042 206.106C82.0261 251.632 -56.2081 189.381 25.4072 55.6364C57.9094 2.37619 105.971 -2.47915 134.681 5.78063Z" fill="white"/>
</mask>
<g mask="url(#mask0_139_1084)">
<path d="M-17.4111 54.0597V45.6514H-3.45065V5.4264H0.387937V45.6514H15.4223V54.0597H23.4765V222.683H-34.5933V54.0597H-17.4111Z" fill="#B4F1E6"/>
<path d="M-5.56424 222.683H52.5056L52.5056 94.2275H-5.56424L-5.56424 222.683Z" fill="#B4F1E6"/>
<path d="M-5.56413 222.683H2.49004L2.49004 94.2275H-5.56413L-5.56413 222.683Z" fill="#B4F1E6"/>
<path d="M36.0889 103.161H44.4172V99.6993H36.0889V103.161Z" fill="#B4F1E6"/>
<path d="M22.0484 103.161H30.3767V99.6993H22.0484V103.161Z" fill="#B4F1E6"/>
<path d="M36.0889 115.751H44.4172V112.289H36.0889V115.751Z" fill="#B4F1E6"/>
<path d="M22.0484 115.751H30.3767V112.289H22.0484V115.751Z" fill="#B4F1E6"/>
<path d="M8.01932 115.751H16.3477V112.289H8.01932V115.751Z" fill="#B4F1E6"/>
<path d="M36.0889 128.34H44.4172V124.879H36.0889V128.34Z" fill="#B4F1E6"/>
<path d="M8.01932 128.34H16.3477V124.879H8.01932V128.34Z" fill="#B4F1E6"/>
<path d="M22.0484 134.635H30.3767V131.174H22.0484V134.635Z" fill="#B4F1E6"/>
<path d="M36.0889 140.942H44.4172V137.48H36.0889V140.942Z" fill="#B4F1E6"/>
<path d="M22.0484 147.236H30.3767V143.774H22.0484V147.236Z" fill="#B4F1E6"/>
<path d="M36.0889 153.531H44.4172V150.069H36.0889V153.531Z" fill="#B4F1E6"/>
<path d="M8.01932 153.531H16.3477V150.069H8.01932V153.531Z" fill="#B4F1E6"/>
<path d="M36.0889 165.161H44.4172V161.699H36.0889V165.161Z" fill="#B4F1E6"/>
<path d="M22.0484 165.161H30.3767V161.699H22.0484V165.161Z" fill="#B4F1E6"/>
<path d="M36.0889 177.762H44.4172V174.301H36.0889V177.762Z" fill="#B4F1E6"/>
<path d="M22.0484 177.762H30.3767V174.301H22.0484V177.762Z" fill="#B4F1E6"/>
<path d="M8.01932 177.762H16.3477V174.301H8.01932V177.762Z" fill="#B4F1E6"/>
<path d="M36.0889 190.352H44.4172V186.89H36.0889V190.352Z" fill="#B4F1E6"/>
<path d="M8.01932 190.352H16.3477V186.89H8.01932V190.352Z" fill="#B4F1E6"/>
<path d="M22.0484 196.658H30.3767V193.196H22.0484V196.658Z" fill="#B4F1E6"/>
<path d="M8.01932 196.658H16.3477V193.196H8.01932V196.658Z" fill="#B4F1E6"/>
<path d="M36.0889 202.941H44.4172V199.48H36.0889V202.941Z" fill="#B4F1E6"/>
<path d="M22.0484 209.236H30.3767V205.774H22.0484V209.236Z" fill="#B4F1E6"/>
<path d="M36.0889 215.542H44.4172V212.081H36.0889V215.542Z" fill="#B4F1E6"/>
<path d="M8.01932 215.542H16.3477V212.081H8.01932V215.542Z" fill="#B4F1E6"/>
<path d="M133.39 222.683H191.46L191.46 94.2275H133.39L133.39 222.683Z" fill="#B4F1E6"/>
<path d="M133.39 222.683H141.444L141.444 94.2275H133.39V222.683Z" fill="#B4F1E6"/>
<path d="M50.9064 222.683H128.82L128.82 33.1302H50.9064L50.9064 222.683Z" fill="#B4F1E6"/>
<path d="M50.895 222.683H58.9492L58.9492 33.1302H50.895L50.895 222.683Z" fill="#B4F1E6"/>
<path d="M108.439 47.2508H120.606V42.2012L108.439 42.2012V47.2508Z" fill="#B4F1E6"/>
<path d="M87.9442 47.2508H100.111V42.2012L87.9442 42.2012V47.2508Z" fill="#B4F1E6"/>
<path d="M108.439 65.6438H120.606V60.5943L108.439 60.5943V65.6438Z" fill="#B4F1E6"/>
<path d="M87.9442 65.6438H100.111V60.5943L87.9442 60.5943V65.6438Z" fill="#B4F1E6"/>
<path d="M67.4717 65.6438H79.6386V60.5943L67.4717 60.5943V65.6438Z" fill="#B4F1E6"/>
<path d="M108.439 84.0374H120.606V78.9879H108.439V84.0374Z" fill="#B4F1E6"/>
<path d="M67.4717 84.0374H79.6386V78.9879H67.4717V84.0374Z" fill="#B4F1E6"/>
<path d="M87.9442 93.2227H100.111V88.1731H87.9442V93.2227Z" fill="#B4F1E6"/>
<path d="M108.439 102.43H120.606V97.3809H108.439V102.43Z" fill="#B4F1E6"/>
<path d="M87.9442 111.627H100.111V106.577H87.9442V111.627Z" fill="#B4F1E6"/>
<path d="M108.439 120.812H120.606V115.763H108.439V120.812Z" fill="#B4F1E6"/>
<path d="M67.4717 120.812H79.6386V115.763H67.4717V120.812Z" fill="#B4F1E6"/>
<path d="M108.439 137.8H120.606V132.751H108.439V137.8Z" fill="#B4F1E6"/>
<path d="M87.9442 137.8H100.111V132.751H87.9442V137.8Z" fill="#B4F1E6"/>
<path d="M108.439 156.193H120.606V151.144H108.439V156.193Z" fill="#B4F1E6"/>
<path d="M87.9442 156.193H100.111V151.144H87.9442V156.193Z" fill="#B4F1E6"/>
<path d="M67.4717 156.193H79.6386V151.144H67.4717V156.193Z" fill="#B4F1E6"/>
<path d="M108.439 174.586H120.606V169.536H108.439V174.586Z" fill="#B4F1E6"/>
<path d="M67.4717 174.586H79.6386V169.536H67.4717V174.586Z" fill="#B4F1E6"/>
<path d="M87.9442 183.771H100.111V178.722H87.9442V183.771Z" fill="#B4F1E6"/>
<path d="M67.4717 183.771H79.6386V178.722H67.4717V183.771Z" fill="#B4F1E6"/>
<path d="M108.439 192.98H120.606V187.93H108.439V192.98Z" fill="#B4F1E6"/>
<path d="M87.9442 202.177H100.111V197.127H87.9442V202.177Z" fill="#B4F1E6"/>
<path d="M108.439 211.361H120.606V206.312H108.439V211.361Z" fill="#B4F1E6"/>
<path d="M67.4717 211.361H79.6386V206.312H67.4717V211.361Z" fill="#B4F1E6"/>
<path d="M173.398 222.683H249.769L249.769 47.2621H173.398V222.683Z" fill="#B4F1E6"/>
<path d="M173.398 222.683H181.292L181.292 47.2621H173.398V222.683Z" fill="#B4F1E6"/>
<path d="M209.716 60.3318H221.643V55.6593L209.716 55.6593V60.3318Z" fill="#B4F1E6"/>
<path d="M209.716 77.3536H221.643V72.6811H209.716V77.3536Z" fill="#B4F1E6"/>
<path d="M189.632 77.3536H201.559V72.6811H189.632V77.3536Z" fill="#B4F1E6"/>
<path d="M189.632 94.3759H201.559V89.7034H189.632V94.3759Z" fill="#B4F1E6"/>
<path d="M209.716 102.887H221.643V98.2145H209.716V102.887Z" fill="#B4F1E6"/>
<path d="M209.716 119.898H221.643V115.226H209.716V119.898Z" fill="#B4F1E6"/>
<path d="M189.632 128.409H201.559V123.736H189.632V128.409Z" fill="#B4F1E6"/>
<path d="M209.716 144.14H221.643V139.468H209.716V144.14Z" fill="#B4F1E6"/>
<path d="M209.716 161.151H221.643V156.478H209.716V161.151Z" fill="#B4F1E6"/>
<path d="M189.632 161.151H201.559V156.478H189.632V161.151Z" fill="#B4F1E6"/>
<path d="M189.632 178.162H201.559V173.489H189.632V178.162Z" fill="#B4F1E6"/>
<path d="M209.716 186.685H221.643V182.012H209.716V186.685Z" fill="#B4F1E6"/>
<path d="M189.632 186.685H201.559V182.012H189.632V186.685Z" fill="#B4F1E6"/>
<path d="M209.716 203.695H221.643V199.023H209.716V203.695Z" fill="#B4F1E6"/>
<path d="M189.632 212.207H201.559V207.534H189.632V212.207Z" fill="#B4F1E6"/>
<path opacity="0.35" d="M104.223 -15.9717H-104.213V221.677H104.223V-15.9717Z" fill="white"/>
<path opacity="0.5" d="M-32.4571 208.334H-48.6339L38.0881 -22.3118H54.2649L-32.4571 208.334Z" fill="white"/>
<path opacity="0.5" d="M-61.018 208.334H-69.1064L17.6156 -22.3118H25.7041L-61.018 208.334Z" fill="white"/>
<path opacity="0.5" d="M35.5634 208.334H27.475L101.824 2.45606V19.0327L35.5634 208.334Z" fill="white"/>
<path opacity="0.35" d="M313.449 -22.1407H105.012V215.508H313.449V-22.1407Z" fill="white"/>
<path opacity="0.5" d="M139.787 208.334H123.611L210.333 -22.3118H226.509L139.787 208.334Z" fill="white"/>
<path opacity="0.5" d="M111.227 208.334H103.138L189.86 -22.3118H197.949L111.227 208.334Z" fill="white"/>
<path d="M322.451 29.8973V27.1783H314.968V-15.6857H106.508H-106.487V-10.2478H-101.951V-8.32847H32.4674V27.1783H-106.487V29.8973H32.4674V99.6885H-106.487V102.407H32.4674V172.199H-106.487V174.918H32.4674V220.398H-101.905V221.974H-106.487V228.269H314.968V227.766V174.929H322.451V172.21H314.968V102.419H322.451V99.6999H314.968V29.9087H322.451V29.8973ZM106.52 102.407H171.444V172.199H106.52V102.407ZM106.52 99.6885V29.8973H171.444V99.6885H106.52ZM106.52 27.1783V-8.32847H171.444V27.1783H106.52ZM106.52 174.918H171.444V220.398H106.543V221.974H106.52V174.929V174.918ZM176.003 220.398V174.918H240.927V220.398H176.003ZM176.003 172.199V102.407H240.927V172.199H176.003ZM176.003 99.6885V29.8973H240.927V99.6885H176.003ZM176.003 27.1783V-8.32847H240.927V27.1783H176.003ZM245.485 -8.32847H310.41V27.1783H245.485V-8.32847ZM37.0257 -8.32847H101.95V27.1783H37.0257V-8.32847ZM37.0257 29.8973H101.95V99.6885H37.0257V29.8973ZM37.0257 102.407H101.95V172.199H37.0257V102.407ZM37.0257 174.918H101.95V221.963H101.927V220.386H37.0371V174.906L37.0257 174.918ZM310.398 221.963H310.375V220.386H245.485V174.906H310.41V221.952L310.398 221.963ZM310.398 172.199H245.474V102.407H310.398V172.199ZM310.398 99.6885H245.474V29.8973H310.398V99.6885Z" fill="url(#paint2_linear_139_1084)"/>
</g>
<path d="M155.416 171.685C156.593 171.685 157.655 171.273 158.592 170.634C158.626 172.599 158.501 174.552 158.124 176.471C156.878 178.482 153.417 182.184 153.645 182.161C154.616 182.081 155.53 181.829 156.421 181.509C155.827 182.732 155.119 183.897 154.308 184.971C152.628 187.21 150.229 189.004 149.327 191.734C149.304 191.803 149.27 191.837 149.224 191.848C149.201 191.997 149.03 192.123 148.893 191.997C144.369 187.701 143.569 181.19 142.906 175.306C142.872 175.032 142.849 174.758 142.815 174.472C144.06 175.729 145.397 176.871 146.985 177.728C147.202 177.842 144.152 172.964 142.666 170.725C142.724 169.32 142.941 167.915 143.443 166.555C144.506 163.722 146.311 161.071 148.07 158.627C148.139 158.524 148.219 158.432 148.299 158.33C148.778 159.586 149.407 160.774 150.241 161.848C150.389 162.042 149.921 158.284 149.635 156.57C150.081 156.022 150.515 155.473 150.983 154.948C151.589 154.24 152.331 153.029 153.417 153.189C154.468 153.337 156.855 157.633 157.164 158.866C157.29 159.392 157.415 159.929 157.518 160.466C157.575 160.694 157.609 160.934 157.655 161.163C158.055 163.322 158.283 165.538 158.466 167.709C158.386 167.823 158.318 167.937 158.226 168.052C157.347 169.24 155.222 171.673 155.439 171.673L155.416 171.685Z" fill="#BE042F"/>
<path d="M151.303 169.526C153.531 169.194 155.233 167.778 156.878 166.327C157.118 166.11 156.821 165.699 156.57 165.916C155.039 167.275 153.44 168.635 151.36 168.989C151.829 165.664 152.388 162.363 153.04 159.072C153.108 158.753 152.594 158.673 152.537 158.992C151.669 163.357 150.972 167.743 150.423 172.153C149.133 170.325 148.161 168.349 147.476 166.224C147.373 165.916 146.905 166.098 147.008 166.418C147.727 168.669 148.79 170.759 150.172 172.679C150.218 172.747 150.286 172.782 150.355 172.782C150.241 173.741 150.126 174.712 150.024 175.672C149.087 174.507 148.356 173.239 147.83 171.833C147.716 171.525 147.236 171.719 147.35 172.028C147.933 173.593 148.767 175.009 149.841 176.277C149.875 176.312 149.909 176.335 149.944 176.346C149.612 179.522 149.372 182.709 149.201 185.908C149.19 185.942 149.178 185.977 149.167 186.022C149.098 187.188 149.064 188.353 149.041 189.518C149.018 190.284 148.995 191.038 148.984 191.803C148.984 191.883 149.007 191.94 149.053 191.974C149.19 199.172 150.252 206.278 151.76 213.326C151.92 213.281 152.091 213.247 152.251 213.212C150.538 205.261 149.407 197.207 149.555 189.05C149.59 188.193 149.624 187.325 149.658 186.468C149.727 186.491 149.807 186.491 149.887 186.445C150.823 185.805 151.612 185.006 152.217 184.057C152.4 183.783 152 183.463 151.817 183.738C151.246 184.617 150.526 185.36 149.681 185.954C149.967 180.459 150.492 174.975 151.257 169.526C151.257 169.526 151.269 169.526 151.28 169.526H151.303Z" fill="#47010C"/>
<path d="M133.573 184.297C132.579 184.685 131.55 184.731 130.568 184.56C131.105 186.045 131.779 187.473 132.67 188.787C134.315 189.884 138.337 191.529 138.131 191.586C137.285 191.848 136.44 191.951 135.583 192.008C136.44 192.728 137.377 193.368 138.394 193.916C140.473 195.047 143.032 195.607 144.597 197.366C144.631 197.412 144.677 197.424 144.723 197.424C144.78 197.526 144.963 197.561 145.043 197.424C147.636 192.717 146.425 187.553 145.282 182.915C145.225 182.698 145.18 182.481 145.111 182.264C144.414 183.612 143.615 184.914 142.518 186.079C142.369 186.239 143.535 181.578 144.151 179.396C143.695 178.356 143.1 177.374 142.278 176.517C140.553 174.735 138.245 173.341 136.04 172.084C135.949 172.027 135.857 171.982 135.766 171.936C135.732 173.044 135.526 174.141 135.138 175.226C135.069 175.42 134.372 172.439 134.121 171.056C133.584 170.793 133.047 170.519 132.51 170.279C131.79 169.948 130.808 169.285 129.94 169.754C129.094 170.211 128.306 174.232 128.409 175.249C128.454 175.683 128.5 176.129 128.569 176.563C128.592 176.757 128.626 176.94 128.66 177.134C128.946 178.893 129.391 180.63 129.883 182.321C129.974 182.389 130.077 182.446 130.18 182.503C131.276 183.109 133.79 184.24 133.607 184.308L133.573 184.297Z" fill="url(#paint3_linear_139_1084)"/>
<path d="M148.778 214.389C148.024 208.597 146.859 202.907 144.883 197.458C144.906 197.412 144.917 197.367 144.894 197.309C144.654 196.738 144.426 196.178 144.174 195.619C143.82 194.75 143.455 193.882 143.055 193.025C143.043 192.991 143.02 192.968 142.998 192.957C141.924 190.615 140.793 188.296 139.593 186.022C139.616 185.999 139.639 185.977 139.662 185.931C140.21 184.617 140.507 183.28 140.541 181.921C140.541 181.647 140.096 181.67 140.084 181.932C140.05 183.155 139.787 184.354 139.33 185.531C138.965 184.834 138.588 184.149 138.211 183.463C138.268 183.44 138.314 183.395 138.337 183.326C138.953 181.43 139.25 179.51 139.205 177.58C139.205 177.317 138.736 177.328 138.748 177.591C138.782 179.419 138.519 181.224 137.96 183.018C136.212 179.887 134.338 176.814 132.339 173.821C132.19 173.604 131.779 173.821 131.927 174.05C133.435 176.312 134.875 178.608 136.234 180.95C134.361 181.373 132.613 180.87 130.911 180.356C130.637 180.276 130.499 180.676 130.774 180.767C132.59 181.315 134.441 181.818 136.44 181.338C136.44 181.338 136.44 181.338 136.463 181.338C138.691 185.177 140.736 189.13 142.575 193.162C141.672 192.991 140.85 192.671 140.107 192.203C139.879 192.054 139.627 192.431 139.856 192.568C140.656 193.082 141.558 193.425 142.541 193.597C142.621 193.608 142.689 193.597 142.746 193.539C143.032 194.168 143.318 194.808 143.592 195.436C146.094 201.514 147.465 207.934 148.321 214.48C148.47 214.457 148.63 214.435 148.778 214.4V214.389Z" fill="#47010C"/>
<path d="M132.522 178.117C131.071 177.831 129.734 177.306 128.546 176.563C128.569 176.757 128.603 176.94 128.637 177.134C129.768 177.785 131.025 178.254 132.373 178.528C132.659 178.585 132.796 178.174 132.522 178.117Z" fill="#E478D4"/>
<path d="M175.626 181.944C175.603 183.783 171.342 184.674 169.993 185.177C167 186.285 164.087 187.404 161.882 189.803C159.277 192.637 157.027 195.904 154.788 199.034C154.651 199.229 154.445 199.297 154.262 199.263C154.228 199.263 153.977 198.737 153.645 197.915C152.868 196.007 151.68 192.511 151.977 190.523C152.183 189.118 152.663 187.793 153.337 186.548C153.485 187.176 153.748 187.77 154.182 188.227C154.285 188.341 154.525 185.714 154.673 184.525C154.868 184.286 155.073 184.046 155.279 183.829C155.759 183.303 156.284 182.823 156.855 182.378C156.97 182.286 157.095 182.183 157.221 182.103C157.678 181.761 158.158 181.441 158.649 181.155C158.775 181.075 158.912 181.007 159.049 180.927C159.506 180.675 159.986 180.436 160.477 180.218C160.626 181.121 160.865 182.001 161.265 182.835C161.345 183.006 161.551 180.767 161.574 179.773C162.031 179.602 162.511 179.453 162.99 179.316C163.127 179.899 163.299 180.47 163.573 181.007C163.642 181.132 164.27 179.613 164.498 178.95C166.018 178.642 167.56 178.516 169.057 178.596C169.182 178.596 169.319 178.596 169.445 178.619C169.856 178.642 170.256 178.688 170.656 178.756C172.118 178.985 175.569 179.91 175.637 181.898C175.637 181.921 175.637 181.932 175.637 181.955L175.626 181.944Z" fill="url(#paint4_linear_139_1084)"/>
<path d="M159.266 186.776C155.656 190.34 154.536 196.886 154.296 198.749C153.942 199.491 153.679 200.291 153.554 201.171C153.12 204.107 153.245 207.214 153.325 210.173C153.348 211.144 153.394 212.115 153.44 213.098C153.611 213.063 153.771 213.04 153.942 213.006C153.908 212.389 153.885 211.784 153.862 211.167C153.771 208.516 153.771 205.855 153.896 203.204C153.954 201.833 154.091 200.462 154.616 199.183C154.673 199.148 154.73 199.103 154.776 199.034C157.027 195.904 159.266 192.637 161.871 189.803C164.076 187.404 167 186.285 169.982 185.177C171.33 184.674 175.58 183.783 175.614 181.943C169.948 182.606 163.413 182.675 159.254 186.776H159.266Z" fill="#47010C"/>
<path d="M159.106 185.028C158.843 183.657 158.809 182.297 159.026 180.927C158.889 181.007 158.752 181.075 158.626 181.155C158.443 182.469 158.489 183.794 158.74 185.108C158.786 185.348 159.152 185.256 159.106 185.028Z" fill="#47010C"/>
<path d="M157.724 185.759C157.404 184.548 157.232 183.349 157.198 182.103C157.072 182.195 156.958 182.286 156.832 182.377C156.878 183.554 157.05 184.697 157.358 185.839C157.415 186.068 157.781 185.988 157.724 185.759Z" fill="#47010C"/>
<path d="M163.779 210.321C163.779 211.269 163.676 212.206 163.482 213.097C162.785 216.353 160.9 219.164 158.283 221.06H142.724C140.119 219.164 138.222 216.353 137.537 213.097C137.343 212.206 137.24 211.269 137.24 210.321C137.24 209.373 137.354 208.356 137.56 207.431C137.731 206.643 137.982 205.877 138.291 205.146H162.716C163.025 205.877 163.276 206.643 163.447 207.431C163.653 208.356 163.767 209.327 163.767 210.321H163.779Z" fill="#B4F1E6"/>
<path d="M163.778 210.321C163.778 211.27 163.676 212.206 163.481 213.097C162.785 216.353 160.9 219.164 158.283 221.06H142.723C163.059 222.066 162.716 205.135 162.716 205.135C163.024 205.866 163.276 206.631 163.447 207.42C163.653 208.345 163.767 209.316 163.767 210.31L163.778 210.321Z" fill="#B4F1E6"/>
<path d="M84.608 94.8109C83.02 94.5367 76.9423 91.8748 70.8531 88.9045C69.0481 88.0248 67.2316 87.1223 65.5522 86.2426C61.588 84.1863 58.2521 82.2898 57.0754 81.2731C55.933 80.2792 60.0343 71.6881 65.5065 72.8762C67.8371 73.3789 89.292 86.4597 90.9028 89.0302C92.7993 92.0348 88.7093 95.5078 84.6194 94.8109H84.608Z" fill="url(#paint5_linear_139_1084)"/>
<path d="M90.7885 92.3887C91.4512 91.3719 91.5997 90.1724 90.8799 89.0299C89.2691 86.4709 67.8028 73.4358 65.4837 72.8874C64.1699 72.5675 61.6223 73.0131 60.1942 74.1212C77.7991 82.9636 92.3423 89.4755 90.7885 92.3887Z" fill="#B4F1E6"/>
<path d="M84.9736 88.0817C88.7665 84.6887 102.624 78.6224 104.121 75.8806C105.617 73.1387 109.445 69.6086 111.866 69.9285C114.334 70.2598 114.014 72.1677 112.906 74.2583C112.198 75.5835 111.25 76.9316 108.108 78.4282C104.955 79.9362 94.7643 90.0696 90.503 92.9028C86.2874 95.7018 82.4146 90.378 84.985 88.0817H84.9736Z" fill="#FD9A9F"/>
<path d="M13.1031 215.863C17.6157 214.343 19.318 206.94 20.1062 202.965L25.0644 204.827C25.0644 204.827 23.1794 212.058 23.7849 216.674C24.3789 221.289 23.0423 220.855 23.0423 220.855H7.33383C7.33383 220.855 8.60195 217.371 13.1031 215.851V215.863Z" fill="#FD9A9F"/>
<path d="M13.1032 215.862C14.4627 215.405 15.5708 214.4 16.4733 213.132C17.056 212.229 20.2548 213.223 20.8946 214.971C20.8946 214.971 22.2084 215.885 23.705 215.748C23.7278 216.068 23.7506 216.376 23.7963 216.685C24.3904 221.3 23.0538 220.866 23.0538 220.866H7.34532C7.34532 220.866 8.61341 217.382 13.1146 215.862H13.1032Z" fill="#80041D"/>
<path d="M78.633 216.228C70.3961 216.228 69.288 211.487 70.0191 206.438H64.5126C64.5812 208.688 64.5469 212.218 63.93 215.36C63.0046 220.055 65.3466 220.866 65.3466 220.866H85.4077C85.4077 220.866 82.5059 216.228 78.633 216.228Z" fill="#FD9A9F"/>
<path d="M70.6816 216.548C71.4585 215.383 69.1165 213.155 70.8644 213.052C72.0411 214.96 74.3945 216.217 78.6444 216.217C82.5058 216.217 85.419 220.855 85.419 220.855H65.3579C65.3579 220.855 63.1644 220.09 63.8727 215.783C65.9748 215.783 69.5392 218.308 70.6931 216.548H70.6816Z" fill="#80041D"/>
<path d="M69.5735 155.896C69.0138 147.454 58.4462 159.198 58.5262 161.449C58.6176 164.27 58.6976 165.584 58.4463 175.501C58.1949 185.405 60 190.386 61.6222 194.979C63.2445 199.583 63.1531 209.853 63.1531 209.853C68.8995 210.402 71.4129 208.871 71.4129 208.871C71.4129 208.871 70.4304 193.905 70.8074 185.36C71.1844 176.814 69.7107 157.861 69.585 155.874L69.5735 155.896Z" fill="#E70000"/>
<path d="M65.0266 209.967C64.9809 206.666 64.7296 199.56 63.5072 195.87C61.8849 190.969 62.479 181.121 62.7189 170.554C62.9702 159.986 60.5026 163.128 60.4112 160.112C60.3769 159.163 62.022 156.616 64.0556 154.445C61.268 156.582 58.4805 160.272 58.5148 161.437C58.6062 164.259 58.6861 165.573 58.4348 175.477C58.1835 185.382 59.9885 190.363 61.6107 194.956C63.233 199.56 63.1416 209.83 63.1416 209.83C63.8156 209.899 64.444 209.933 65.0266 209.945V209.967Z" fill="#80041D"/>
<path d="M70.773 129.94C70.4303 141.136 69.0822 155.862 69.6306 162.877C70.1218 169.194 65.9863 171.445 62.7303 170.565C60.8453 170.063 59.2573 168.509 59.0174 166.11C59.0174 166.007 59.006 165.904 58.9946 165.813C58.9946 165.71 58.9946 165.607 58.9946 165.504C58.9946 165.276 58.9946 165.036 58.9717 164.785C58.5947 159.084 54.2078 146.174 51.5687 135.984C51.4545 135.527 51.3403 135.081 51.226 134.647C51.1118 134.202 51.009 133.767 50.9062 133.345C50.7576 132.705 50.6091 132.077 50.4835 131.471C50.3921 131.071 50.3121 130.672 50.2321 130.283C49.9237 128.729 49.718 127.336 49.6266 126.136C48.9069 116.574 49.8551 113.364 52.4484 108.063C55.0303 102.75 61.4165 102.556 63.7014 104.51C63.7471 104.544 63.7928 104.59 63.8385 104.635C65.3237 106.029 68.8538 110.999 70.3275 117.762C70.8873 120.321 70.9444 124.765 70.773 129.963V129.94Z" fill="#E70000"/>
<path d="M54.8248 137.869C54.9847 139.32 62.182 169.354 62.719 170.565C62.8218 170.805 59.3374 170.063 59.0061 166.11C59.0061 166.007 58.9946 165.904 58.9832 165.813C58.9832 165.71 58.9832 165.607 58.9832 165.504C58.9832 165.276 58.9832 165.036 58.9604 164.785C58.5948 159.084 54.2079 146.174 51.5574 135.984C51.4432 135.527 51.3289 135.081 51.2147 134.647C51.1004 134.202 50.9976 133.767 50.8948 133.345C50.7463 132.705 50.5978 132.077 50.4721 131.471C50.3807 131.071 50.3007 130.672 50.2208 130.283C49.9123 128.729 49.7067 127.336 49.6153 126.136C48.8955 116.574 49.8438 113.364 52.4371 108.063C55.019 102.75 61.4052 102.556 63.69 104.51C63.7357 104.544 63.7814 104.59 63.8271 104.635C65.3123 106.029 68.8424 110.999 70.3161 117.762C70.8759 120.321 70.9331 124.765 70.7617 129.963C64.5469 134.773 54.4592 134.613 54.8133 137.892L54.8248 137.869Z" fill="#80041D"/>
<path d="M27.9889 164.43C28.6515 162.511 29.0171 161.083 29.5312 159.106C31.7133 150.664 40.2015 159.209 39.6988 161.46C39.0591 164.282 38.0195 165.595 36.3629 175.512C34.7064 185.417 31.9531 190.398 29.4398 194.99C26.9264 199.583 25.0643 208.368 25.0643 208.368C20.2318 208.654 18.2668 206.255 18.2668 206.255C18.2668 206.255 20.8373 193.916 22.1054 185.382C23.3735 176.837 26.4238 168.931 27.9889 164.43Z" fill="#E70000"/>
<path d="M25.4642 187.576C26.7323 179.031 28.3316 174.027 29.8968 169.526C30.5594 167.595 32.3759 163.277 32.89 161.289C33.7811 157.839 35.7346 157.222 37.6882 157.862C35.152 155.337 30.9707 153.52 29.5312 159.084C29.0171 161.06 28.663 162.489 27.9889 164.408C26.4238 168.909 23.3735 176.815 22.1054 185.36C20.8373 193.905 18.2668 206.232 18.2668 206.232C18.2668 206.232 19.3064 207.478 21.6941 208.072C22.1282 205.981 24.3217 195.242 25.4527 187.565L25.4642 187.576Z" fill="#80041D"/>
<path d="M35.2206 117.339C38.0766 110.348 43.1148 105.675 44.737 104.498C47.3989 102.556 53.7508 102.739 55.3159 108.051C56.8811 113.364 57.2124 116.574 54.6648 126.136C52.1057 135.698 39.8474 158.33 38.4537 165.504C37.0599 172.679 26.0354 172.747 28.8001 162.477C31.5648 152.206 31.9189 125.428 35.2206 117.351V117.339Z" fill="#E70000"/>
<path d="M35.3919 136.189C35.4604 133.482 37.4597 131.3 39.9845 130.58C41.1954 130.237 46.3707 131.208 49.6951 131.814C51.306 132.111 52.894 131.197 53.4537 129.654C53.9793 128.181 54.5505 126.593 54.6647 126.124C57.2238 116.562 56.881 113.352 55.3159 108.04C53.7507 102.727 47.3988 102.545 44.737 104.487C43.1147 105.675 38.0766 110.347 35.2205 117.328C31.9189 125.405 31.5647 152.183 28.8 162.454C27.8518 165.995 28.5373 168.303 29.8968 169.514C29.8968 169.377 35.3233 139.308 35.4033 136.178L35.3919 136.189Z" fill="#80041D"/>
<path d="M49.1582 71.5621C49.1582 71.5621 55.8871 70.0884 60.6282 71.5849V73.0815L49.4781 73.3786L49.1582 71.5621Z" fill="#B4F1E6"/>
<path d="M68.751 90.1151C67.163 88.8927 65.575 87.636 64.0899 86.4364L66.032 76.3031C66.032 76.3031 67.7913 80.3587 68.9795 81.7982C70.4304 83.5575 71.2529 85.5339 68.751 90.1151Z" fill="#B4F1E6"/>
<path d="M47.182 44.2922C50.0038 44.2922 52.2886 46.577 52.2886 49.3988C52.2886 52.2206 50.0038 54.5055 47.182 54.5055C44.3602 54.5055 42.0753 52.2206 42.0753 49.3988C42.0753 46.577 44.3602 44.2922 47.182 44.2922Z" fill="#80041D"/>
<path d="M46.6221 64.1592C45.6053 59.2696 41.1156 59.738 43.8346 53.6602C46.5535 47.5711 49.3754 48.7478 52.3114 47.811C59.7601 45.4233 65.7235 55.3739 62.9703 62.0228C60.4227 68.1805 47.7188 69.4029 46.6335 64.1592H46.6221Z" fill="#80041D"/>
<path d="M46.7135 93.0742C46.4622 90.915 45.6853 88.9272 43.7204 81.4899C42.9549 78.5881 41.7782 76.9316 42.5094 75.6292C43.4233 73.9956 46.5879 73.1159 48.6557 73.1159C52.38 73.1159 50.5864 64.125 50.5864 64.125C51.1576 62.2514 57.3496 62.5827 57.064 68.5804C56.7784 74.5782 62.6962 71.8821 64.1013 72.9902C66.0321 74.5211 65.8836 77.777 66.272 79.5478C66.6604 81.3186 69.288 83.4092 68.9338 86.6651C68.5797 89.9211 65.4951 89.8068 65.4951 89.8068C64.3984 91.0749 63.3702 93.3712 63.2674 94.9935C63.0275 98.7749 64.8896 102.545 64.8896 102.545C53.9451 107.343 44.6343 103.128 44.6343 103.128C44.6343 103.128 47.4447 99.5175 46.7021 93.0513L46.7135 93.0742Z" fill="#FD9A9F"/>
<path d="M48.6556 73.1269C52.38 73.1269 50.5864 64.1359 50.5864 64.1359C50.9062 63.0963 52.9512 62.7307 54.6648 63.6447C53.511 63.9417 50.7463 69.037 52.4028 76.4742C52.8712 78.5877 55.1561 79.833 57.2582 80.2557C57.2582 80.2557 44.006 82.5862 43.7089 81.4895C42.9435 78.5877 46.5764 73.1269 48.6442 73.1269H48.6556Z" fill="#FD9A9F"/>
<path d="M63.8957 129.3C63.3017 129.357 62.6962 129.403 62.0793 129.437C61.7251 129.46 61.3595 129.472 60.9939 129.495C60.6626 129.506 60.3314 129.517 59.9886 129.529L56.8812 124.868L53.1112 129.437C42.5094 129.849 31.9305 126.981 31.9305 126.981C32.4103 123.428 33.1529 120.492 33.9983 117.91C33.9983 117.91 33.9983 117.91 33.9983 117.887C37.6198 106.92 43.1377 102.282 37.894 83.3746C37.894 83.3746 37.894 83.3746 37.894 83.3517C37.0943 80.4614 40.2131 76.6228 42.0867 74.7035C43.2634 73.4925 46.6793 73.1841 48.6557 73.1269C51.8431 77.114 56.8698 80.0729 56.8698 80.0729C56.8698 80.0729 60.3199 74.4522 60.7769 72.6471C61.668 72.6243 63.7129 72.6129 64.1128 72.9327C66.0549 74.4636 66.2606 77.5596 66.6376 79.3304C67.026 81.1011 69.5393 83.5916 69.1738 86.859C68.831 89.9664 66.2149 91.6001 65.975 91.7486H65.9521C62.5248 110.644 70.8303 106.337 71.7442 127.575C69.665 128.489 66.9346 129.026 63.8729 129.312L63.8957 129.3Z" fill="url(#paint6_linear_139_1084)"/>
<path d="M66.032 91.7029C66.032 91.7029 65.9977 91.7258 65.9863 91.7372H65.9634C65.9634 92.0228 47.456 96.7982 45.4682 99.4943C43.9831 101.528 37.197 120.252 39.5047 122.526C41.801 124.788 50.8833 118.447 51.8316 119.19C52.4942 119.704 63.3358 128.101 63.8842 129.289C63.2901 129.346 62.6847 129.392 62.0677 129.426C61.7136 129.449 61.348 129.46 60.9825 129.483C60.6512 129.495 60.3198 129.506 59.9771 129.517L56.8697 124.856L53.0997 129.426C42.4979 129.837 31.919 126.97 31.919 126.97C32.3645 123.84 33.13 120.892 33.9868 117.899C33.9868 117.899 33.9868 117.899 33.9868 117.876C37.6083 106.909 43.1262 102.27 37.8825 83.3632C36.7743 73.9153 48.6213 80.2329 51.2604 81.3525C51.3403 81.3868 49.7866 82.552 47.3647 83.9915C45.1026 85.3282 43.0006 86.4477 43.8117 89.2695C44.7942 92.7197 47.6617 94.0449 51.0205 93.7022C51.9001 93.6108 52.7798 93.4851 53.6709 93.3823C53.9907 93.3366 58.7319 93.1995 60.5141 92.9824C62.3876 92.754 64.227 92.297 66.0206 91.7029H66.032Z" fill="#B4F1E6"/>
<path d="M50.3006 59.1668C50.3006 59.1668 52.654 51.501 55.1445 51.1812C57.635 50.8499 59.6343 50.9755 60.9824 53.6717C60.9824 53.6717 62.5361 56.0365 62.1248 58.9725C62.1248 58.9725 65.5635 61.7829 62.1934 66.2727C58.8232 70.7624 52.7226 68.0549 50.5862 64.1478C50.5862 64.1478 47.2846 65.3702 46.7134 62.2742C46.1422 59.1782 48.1871 58.9269 50.3006 59.1782V59.1668Z" fill="#FD9A9F"/>
<path d="M50.3006 59.1665C50.3006 59.1665 52.654 51.5008 55.1445 51.1809C57.1437 50.9182 58.8231 50.9524 60.1026 52.3462C58.4118 51.992 52.7682 58.8923 52.9053 62.868C53.0424 66.9008 57.4408 69.2085 60.8452 67.3121C61.2565 67.0836 61.6335 66.8208 61.9991 66.5124C58.5946 70.6365 52.6883 67.9632 50.5976 64.1361C50.5976 64.1361 47.296 65.3585 46.7248 62.2625C46.1535 59.1665 48.1985 58.9152 50.312 59.1665H50.3006Z" fill="#FD9A9F"/>
<path d="M63.7129 54.9285C63.7129 54.9285 59.7487 54.4943 57.4067 52.3694C55.0647 50.2445 53.9337 50.6786 53.9337 50.6786C60.5712 47.4227 63.7129 54.917 63.7129 54.917V54.9285Z" fill="#80041D"/>
<path d="M55.316 50.7355C56.4241 51.5581 56.7783 54.1857 54.1735 57.2931C51.5574 60.3891 52.6199 63.9763 50.335 62.1027C48.0501 60.2291 48.0158 59.8978 47.6845 57.2131C47.3532 54.517 52.8598 48.9419 55.3046 50.747L55.316 50.7355Z" fill="#80041D"/>
<path d="M45.7996 73.0927C45.7996 73.0927 47.4904 77.1369 50.7235 79.2961C53.9565 81.4553 55.3275 84.3114 55.4531 85.7052L57.7608 87.2475L56.3899 88.9268C56.3899 88.9268 58.492 90.8233 58.4349 93.1767C58.4349 93.1767 60.1714 89.5323 59.6573 86.7219C59.1432 83.9116 56.4128 79.2047 54.8933 77.5596C53.3739 75.9145 49.581 73.1613 49.1698 71.5733C49.1698 71.5733 47.696 71.8932 45.811 73.1041L45.7996 73.0927Z" fill="#B4F1E6"/>
<path d="M60.2512 71.5617C60.2512 71.5617 59.9084 74.5663 58.5718 76.7255C57.2351 78.8847 56.7325 79.1018 57.0524 80.6555C57.3723 82.1978 60.6282 84.7911 58.8917 92.0227C58.8917 92.0227 61.0966 90.1948 61.4621 88.584L60.651 86.9617L61.5421 85.9221C61.5421 85.9221 61.0623 82.8261 60.1598 81.101C59.2573 79.376 62.993 75.0347 62.993 72.2129C62.993 72.2129 61.2908 71.5503 60.2512 71.5503V71.5617Z" fill="#B4F1E6"/>
<path d="M56.0814 80.6555C56.0814 81.0896 56.4356 81.4323 56.8697 81.4323C57.3038 81.4323 57.6465 81.0782 57.6465 80.6555C57.6465 80.2328 57.2924 79.8786 56.8697 79.8786C56.447 79.8786 56.0814 80.2328 56.0814 80.6555Z" fill="white"/>
<path d="M58.8689 85.9335C58.8689 86.3676 59.2231 86.7217 59.6458 86.7217C60.0685 86.7217 60.434 86.3676 60.434 85.9335C60.434 85.4993 60.0799 85.1452 59.6458 85.1452C59.2116 85.1452 58.8689 85.4993 58.8689 85.9335Z" fill="white"/>
<path d="M57.7951 92.2171C57.7951 92.6513 58.1493 93.0054 58.572 93.0054C58.9947 93.0054 59.3602 92.6513 59.3602 92.2171C59.3602 91.783 59.0061 91.4403 58.572 91.4403C58.1378 91.4403 57.7951 91.7944 57.7951 92.2171Z" fill="white"/>
<path d="M57.498 99.7916C57.498 100.226 57.8522 100.568 58.2749 100.568C58.6976 100.568 59.0631 100.214 59.0631 99.7916C59.0631 99.3689 58.709 99.0148 58.2749 99.0148C57.8408 99.0148 57.498 99.3689 57.498 99.7916Z" fill="white"/>
<path d="M57.0067 107.525C57.0067 107.96 57.3608 108.314 57.7835 108.314C58.2062 108.314 58.5604 107.96 58.5604 107.525C58.5604 107.091 58.2062 106.749 57.7835 106.749C57.3608 106.749 57.0067 107.103 57.0067 107.525Z" fill="white"/>
<path d="M56.5269 115.26C56.5269 115.695 56.8811 116.037 57.3038 116.037C57.7265 116.037 58.092 115.683 58.092 115.26C58.092 114.838 57.7379 114.472 57.3038 114.472C56.8696 114.472 56.5269 114.826 56.5269 115.26Z" fill="white"/>
<path d="M176.619 206.986L169.616 207.34C170.062 213.075 167.206 215.794 161.345 216.331C157.895 216.651 158.169 220.889 158.169 220.889H177.248C177.248 220.889 179.544 218.902 177.111 214.606C176.517 213.555 176.619 206.986 176.619 206.986Z" fill="#FD9A9F"/>
<path d="M161.345 216.331C157.895 216.651 158.169 220.889 158.169 220.889H177.248C177.248 220.889 179.544 218.901 177.111 214.606C175.82 215.337 172.529 216.114 168.451 213.532C166.874 214.811 163.733 216.114 161.345 216.331Z" fill="#80041D"/>
<path d="M165.298 215.292C165.298 215.292 168.554 213.361 168.954 211.647C169.353 209.934 171.376 211.487 171.57 211.967C171.764 212.447 169.182 215.246 165.286 215.292H165.298Z" fill="#80041D"/>
<path d="M170.302 113.558C167.663 124.788 168.463 145.774 168.04 164.087C167.697 178.665 167.949 200.497 167.549 209.579C167.549 209.579 175.431 211.155 178.767 209.533C178.767 209.533 184.491 171.776 185.919 166.589C187.336 161.414 191.951 128.283 188.25 114.14C184.548 99.9968 171.342 109.136 170.302 113.546V113.558Z" fill="#E70000"/>
<path d="M187.907 128.375C187.907 128.375 183.463 149.556 182.137 164.133C181.612 169.982 178.767 209.545 178.767 209.545C178.767 209.545 182.686 183.509 184.034 176.483C185.919 166.612 191.323 140.702 191.323 140.702L187.907 128.386V128.375Z" fill="#80041D"/>
<path d="M200.074 206.986L207.077 207.34C206.631 213.075 209.487 215.794 215.348 216.331C218.798 216.651 218.524 220.889 218.524 220.889H199.445C199.445 220.889 197.149 218.902 199.582 214.606C200.176 213.555 200.074 206.986 200.074 206.986Z" fill="#FD9A9F"/>
<path d="M215.348 216.331C218.798 216.651 218.524 220.889 218.524 220.889H199.445C199.445 220.889 197.149 218.901 199.582 214.606C200.873 215.337 204.164 216.114 208.242 213.532C209.819 214.811 212.96 216.114 215.348 216.331Z" fill="#80041D"/>
<path d="M211.395 215.292C211.395 215.292 208.139 213.361 207.739 211.647C207.34 209.934 205.317 211.487 205.123 211.967C204.929 212.447 207.511 215.246 211.407 215.292H211.395Z" fill="#80041D"/>
<path d="M209.27 209.579C209.27 209.579 201.387 211.156 198.051 209.534C198.051 209.534 193.47 170.611 192.042 165.424C190.626 160.249 184.868 128.284 188.569 114.152C192.271 100.009 205.489 109.148 206.517 113.558C206.951 115.374 207.282 117.693 207.545 120.355C208.927 134.007 209.43 156.719 209.144 168.92C209.064 172.267 209.019 175.74 208.984 179.202C208.859 190.878 208.95 202.565 209.27 209.579Z" fill="#E70000"/>
<path d="M207.545 120.356C207.34 119.91 207.122 119.488 206.894 119.076C206.311 117.991 205.706 117.02 204.518 116.689C203.775 116.483 202.77 116.654 201.993 116.666C200.93 116.689 197.457 116.3 197.332 117.945C199.811 123.246 202.279 128.57 203.946 134.191C205.66 139.983 207.134 145.729 206.894 151.738C206.78 155.029 206.586 158.342 206.814 161.632C207.065 165.116 207.797 168.555 208.391 172.005C208.79 174.381 208.916 176.792 208.996 179.202C209.03 175.73 209.087 172.268 209.156 168.921C209.442 156.719 208.927 134.008 207.557 120.356H207.545Z" fill="#80041D"/>
<path d="M180.389 84.0371C180.001 89.0067 171.433 107.126 169.891 110.564C168.04 114.7 160.168 114.197 160.123 110.05C160.077 106.372 168.028 83.5573 169.525 81.2039C172.221 76.954 180.869 77.8223 180.389 84.0371Z" fill="#FD9A9F"/>
<path d="M177.602 96.6271C180.332 90.4123 181.406 82.7352 181.635 80.0162C182.172 73.5386 174.049 71.585 171.273 75.8463C170.576 76.9088 165.458 84.0147 163.527 90.4923C167.183 94.7307 176.585 96.6842 177.613 96.6271H177.602Z" fill="#80041D"/>
<path d="M166.954 128.376C166.954 128.376 186.193 132.797 210.207 127.747C210.207 127.747 209.601 113.798 207.968 99.9519C207.716 97.8499 207.442 95.7364 207.145 93.6914C206.677 90.4698 206.151 87.3852 205.557 84.6205C204.746 80.8162 203.798 77.6174 202.713 75.5039C200.908 71.9852 192.442 71.9852 191.163 71.871C189.883 71.7567 180.127 72.6364 180.127 72.6364C180.127 72.6364 175.968 72.2823 173.775 74.4986C171.581 76.7149 167.88 86.437 169.217 97.6442C170.393 107.492 167.743 123.772 167.092 127.565C167 128.09 166.943 128.376 166.943 128.376H166.954Z" fill="url(#paint7_linear_139_1084)"/>
<path d="M166.954 128.376C166.954 128.376 186.193 132.797 210.207 127.747C210.207 127.747 209.601 113.798 207.968 99.9518C207.716 97.8498 207.442 95.7363 207.145 93.6913C206.677 90.4697 206.151 87.3851 205.557 84.6204L194.521 79.4338C194.521 79.4338 197.8 93.5771 202.518 102.831C207.237 112.073 210.241 131.597 167.08 127.576C166.989 128.101 166.932 128.387 166.932 128.387L166.954 128.376Z" fill="#80041D"/>
<path d="M181.178 67.7352C181.178 67.7352 181.84 71.608 180.629 72.1221C179.407 72.6362 177.785 72.8076 177.785 72.8076C177.785 72.8076 184.445 82.4383 192.019 71.9165C192.019 71.9165 189.757 71.9393 189.061 71.0368C188.364 70.1229 187.93 65.6103 188.272 62.6285L181.178 67.7352Z" fill="#FD9A9F"/>
<path d="M188.706 71.1625C188.009 70.2485 187.918 65.6103 188.272 62.6285L184.228 65.5417C185.028 66.2615 186.239 68.2607 186.204 68.3864C187.255 70.3628 187.85 73.1503 185.793 74.6698C184.217 75.8465 182.571 75.3895 180.629 74.8183C183.234 76.7604 186.856 77.5144 190.968 72.442C190.968 72.442 189.403 72.065 188.706 71.1625Z" fill="#FD9A9F"/>
<path d="M165.024 114.232C160.351 115.26 142.781 113.466 139.468 113.192C135.458 112.861 133.813 106.772 137.948 106.657C141.935 106.543 164.624 104.51 166.92 105.035C171.09 105.983 170.873 112.941 165.024 114.232Z" fill="#FD9A9F"/>
<path d="M208.985 79.0679C212.606 82.4952 221.312 100.546 223.014 103.904C225.059 107.949 221.197 112.518 217.496 110.633C214.343 109.034 200.851 88.3673 199.959 85.7283C198.349 80.9644 204.472 74.7838 208.996 79.0565L208.985 79.0679Z" fill="#FD9A9F"/>
<path d="M218.41 111.354C213.657 111.925 196.338 107.172 193.048 106.567C189.095 105.847 188.078 100.855 192.202 101.14C196.189 101.426 218.958 101.632 221.197 102.386C225.253 103.745 224.362 110.634 218.41 111.342V111.354Z" fill="#FD9A9F"/>
<path d="M216.079 86.8367C212.172 81.2845 206.151 76.4063 203.946 74.8069C198.68 70.9912 192.808 76.9433 195.024 81.5244C195.572 82.6669 198.611 88.9959 203.158 93.9884C208.676 93.0402 215.599 87.7393 216.079 86.8367Z" fill="url(#paint8_linear_139_1084)"/>
<path d="M178.482 104.419C180.012 103.414 181.463 102.42 180.252 103.071C178.71 103.905 177.042 102.545 178.573 101.711C180.492 100.672 182.56 99.2893 184.742 98.8095C187.107 98.2954 191.814 101.437 194.087 101.631C195.001 101.711 194.339 106.018 193.619 106.292C191.243 107.229 188.501 105.915 188.135 106.053C187.187 106.692 186.753 107.149 185.93 107.846C184.879 108.737 182.731 107.846 183.771 106.978C184.434 106.418 184.102 106.19 183.131 106.944C181.886 107.915 179.727 106.875 180.961 105.915C181.486 105.504 181.555 105.196 180.812 105.687C179.304 106.681 176.962 105.39 178.459 104.407L178.482 104.419Z" fill="#FD9A9F"/>
<path d="M192.008 101.631L195.127 101.814L194.533 106.258C194.533 106.258 193.196 106.11 192.545 106.041C191.894 105.972 191.997 101.631 191.997 101.631H192.008Z" fill="#FD9A9F"/>
<path d="M216.079 101.905C216.079 101.905 216.547 102.042 216.079 102.408C215.611 102.774 219.952 104.282 219.952 104.282L222.442 103.95L220.82 100.706H215.165L216.079 101.905Z" fill="#FD9A9F"/>
<path d="M192.442 56.893C192.385 56.5502 190.134 54.7338 189.883 54.848C189.849 54.848 190.009 62.6051 189.643 63.3134C189.38 63.8275 188.981 65.0042 189.723 65.3013C190.42 65.5755 191.288 65.187 191.665 64.6044C194.11 60.9258 192.568 57.7498 192.431 56.893H192.442Z" fill="#A80475"/>
<path d="M177.773 52.1978V63.9191C177.773 67.0837 180.572 69.6541 184.022 69.6541C187.473 69.6541 190.272 67.0837 190.272 63.9191V63.6564C190.272 63.6564 193.482 64.3533 193.482 60.8346C193.482 57.3159 191.46 57.8071 191.46 57.8071V52.1864H177.762L177.773 52.1978Z" fill="#FD9A9F"/>
<path d="M191.482 57.8189V50.6787H186.616C186.616 50.6787 186.616 53.2492 186.616 53.2834V65.4389C186.616 67.5638 184.559 69.2889 182.423 69.2204C181.76 69.1975 181.155 69.0147 180.618 68.7177C181.6 69.3118 182.766 69.6545 184.022 69.6545C187.473 69.6545 190.272 67.084 190.272 63.9195V63.6567C190.272 63.6567 193.482 64.3536 193.482 60.8349C193.482 57.3162 191.46 57.8075 191.46 57.8075L191.482 57.8189Z" fill="#FD9A9F"/>
<path d="M191.677 46.3715C191.677 46.3715 191.677 46.3486 191.677 46.3372C189.963 42.8071 178.63 41.9617 174.86 45.9145C173.329 47.5253 174.552 52.175 176.837 52.7234C178.367 53.089 185.633 52.8262 187.073 52.2093C187.712 54.7455 188.272 59.7494 189.666 59.7494C190.351 59.7494 191.757 58.6184 191.482 57.8186C194.944 57.2474 195.013 47.3768 191.677 46.3715Z" fill="#80041D"/>
<path d="M169.251 112.576H130.111V114.644H169.251V112.576Z" fill="#B4F1E6"/>
<path d="M169.251 114.644H187.267V113.478C187.267 112.976 186.867 112.576 186.365 112.576H169.251V114.644Z" fill="#B4F1E6"/>
<path d="M131.208 112.575H170.188L165.058 88.573C164.91 87.8761 164.327 87.3734 163.641 87.3734H128.535C127.141 87.3734 126.113 88.7443 126.421 90.1952L131.208 112.575Z" fill="#B4F1E6"/>
<path d="M130.26 112.575H169.239L164.11 88.573C163.961 87.8761 163.379 87.3734 162.693 87.3734H126.844C125.827 87.3734 125.073 88.3788 125.301 89.4298L130.248 112.575H130.26Z" fill="url(#paint9_linear_139_1084)"/>
<path opacity="0.34" d="M145.568 87.3734L134.589 112.575H139.616L150.995 87.3734H145.568Z" fill="#FDCDF3"/>
<path opacity="0.34" d="M153.771 87.3734L142.792 112.575H144.746L156.136 87.3734H153.771Z" fill="#FDCDF3"/>
<path d="M145.054 114.197C144.928 113.82 144.483 113.181 143.992 113.352C143.934 113.375 143.877 113.409 143.843 113.443C143.843 113.169 143.786 112.906 143.683 112.632C143.466 112.072 142.838 111.296 142.221 111.855C141.981 112.072 141.821 112.381 141.695 112.712C141.513 112.221 141.158 111.81 140.553 111.627C139.673 111.376 139.376 112.015 139.273 112.724C139.022 112.05 138.497 111.09 137.777 111.684C137.377 112.015 137.183 112.712 137.023 113.181C136.794 113.855 136.657 114.552 136.6 115.26C136.6 115.283 136.6 115.317 136.6 115.34C136.554 115.42 136.532 115.523 136.6 115.637C136.977 116.334 137.88 116.996 138.542 116.254C138.714 116.071 138.862 115.842 138.988 115.603C139.045 116.265 139.273 116.814 139.925 116.882C140.621 116.951 141.09 116.357 141.398 115.671C141.398 115.683 141.41 115.705 141.421 115.717C141.65 115.991 141.947 116.357 142.358 116.299C142.678 116.254 142.906 115.968 143.078 115.671C143.1 115.751 143.146 115.82 143.215 115.842C144.369 116.368 145.431 115.306 145.043 114.175L145.054 114.197Z" fill="#FD9A9F"/>
<path d="M182.594 58.1501L182.331 57.0533C182.252 56.7449 182.331 56.4136 182.514 56.1851C182.663 55.9909 182.88 55.8881 183.108 55.8881H186.935C187.381 55.8881 187.735 56.2993 187.735 56.8134V58.8584C187.735 59.3496 187.404 59.7495 186.981 59.7837L184.742 59.9551C184.742 59.9551 184.651 59.9551 184.605 59.9551C183.668 59.9551 182.857 59.2354 182.594 58.1615V58.1501ZM186.947 59.361C187.153 59.3496 187.312 59.1211 187.312 58.847V56.802C187.312 56.5164 187.141 56.2879 186.924 56.2879H183.097C182.96 56.2879 182.868 56.3793 182.823 56.4364C182.72 56.5735 182.674 56.7677 182.72 56.9619L182.983 58.0587C183.211 58.984 183.919 59.601 184.696 59.5324L186.935 59.361H186.947Z" fill="#A80475"/>
<path d="M178.573 59.9439L176.334 59.7725C175.911 59.7382 175.58 59.3384 175.58 58.8471V56.8022C175.58 56.2881 175.945 55.8768 176.379 55.8768H180.207C180.435 55.8768 180.652 55.991 180.801 56.1738C180.983 56.4137 181.052 56.7336 180.983 57.0421L180.721 58.1388C180.458 59.2127 179.647 59.9324 178.71 59.9324C178.664 59.9324 178.619 59.9324 178.573 59.9324V59.9439ZM176.391 56.2881C176.174 56.2881 176.002 56.5166 176.002 56.8022V58.8471C176.002 59.1213 176.162 59.3498 176.368 59.3612L178.607 59.5326C179.384 59.6011 180.104 58.9842 180.321 58.0588L180.584 56.9621C180.629 56.7793 180.584 56.5737 180.481 56.4366C180.435 56.3795 180.344 56.2881 180.207 56.2881H176.379H176.391Z" fill="#A80475"/>
<path d="M182.446 57.1912L182.617 56.8142C182.617 56.8142 181.463 56.3115 180.675 56.837L180.903 57.1798C181.486 56.7799 182.434 57.1912 182.446 57.2026V57.1912Z" fill="#A80475"/>
<path d="M190.18 56.9963H187.53V57.4076H190.18V56.9963Z" fill="#A80475"/>
<path d="M110.221 215.897H95.0385C92.1939 215.897 90.0918 212.812 90.743 209.591L92.3081 201.902C92.7765 199.594 94.5587 197.961 96.6036 197.961H108.668C110.713 197.961 112.495 199.594 112.963 201.913L114.528 209.602C115.18 212.824 113.077 215.908 110.233 215.897H110.221Z" fill="#80041D"/>
<path d="M109.696 152.08L135.298 179.373C136.12 180.253 136.692 181.35 136.932 182.549L144.335 218.787C144.666 220.409 142.815 221.54 141.581 220.478L121.703 203.227C121.315 202.884 120.823 202.679 120.321 202.622L107.754 201.753C107.08 201.548 106.543 200.954 106.44 200.188L108.496 152.789C108.359 151.761 108.896 151.441 109.696 152.08Z" fill="#47010C"/>
<path d="M95.3241 152.069L69.7222 179.35C68.8996 180.23 68.3284 181.327 68.0885 182.526L60.6741 218.764C60.3428 220.386 62.1935 221.517 63.4274 220.455L83.3057 203.204C83.6941 202.861 84.1854 202.656 84.6994 202.599L97.2662 201.73C97.9402 201.525 98.4772 200.931 98.58 200.165L96.5351 152.766C96.6722 151.738 96.1352 151.418 95.3355 152.057L95.3241 152.069Z" fill="#47010C"/>
<path d="M128.923 138.12C128.923 177.134 117.099 208.756 102.533 208.756C87.9669 208.756 76.177 177.122 76.1884 138.097C76.1884 118.275 79.2387 98.7856 84.1512 84.391C84.0826 84.608 84.0598 84.8365 84.0598 85.0536C84.0598 88.6294 92.3424 91.5312 102.556 91.5312C112.769 91.5312 121.052 88.6294 121.052 85.0536C121.052 84.8022 121.006 84.5623 120.926 84.3224C120.926 84.3224 120.937 84.3224 120.949 84.3224C125.873 98.7171 128.923 118.264 128.923 138.131V138.12Z" fill="url(#paint10_linear_139_1084)"/>
<path d="M102.556 91.5315C112.771 91.5315 121.052 88.6314 121.052 85.0539C121.052 81.4764 112.771 78.5763 102.556 78.5763C92.3406 78.5763 84.0596 81.4764 84.0596 85.0539C84.0596 88.6314 92.3406 91.5315 102.556 91.5315Z" fill="#80041D"/>
<path d="M186.901 0H223.711C226.635 0 229 2.36483 229 5.28946V25.4648C229 28.3894 226.635 30.7543 223.711 30.7543H200.691L192.705 40.3621C192.111 41.1618 190.843 40.7391 190.843 39.7452L193.265 30.7543H186.901C183.977 30.7543 181.612 28.3894 181.612 25.4648V5.28946C181.612 2.36483 183.977 0 186.901 0Z" fill="url(#paint11_linear_139_1084)"/>
<path d="M187.473 5.68941V7.186H208.722L208.745 5.68941H187.473Z" fill="white"/>
<path d="M187.473 10.1674V11.6526H225.87L225.893 10.1674H187.473Z" fill="white"/>
<path d="M187.473 14.6459V16.1311H223.128L223.151 14.6459H187.473Z" fill="white"/>
<path d="M210.95 7.186H217.507L217.53 5.68941H210.972L210.95 7.186Z" fill="white"/>
<path d="M187.473 18.8272V20.3123H208.722L208.745 18.8272H187.473Z" fill="white"/>
<path d="M187.473 23.3057V24.7908H225.87L225.893 23.3057H187.473Z" fill="white"/>
<path d="M210.95 20.3123H217.507L217.53 18.8272H210.972L210.95 20.3123Z" fill="white"/>
<path d="M84.608 41.0481C84.6766 31.0404 92.845 22.9976 102.841 23.0433C112.849 23.1005 120.949 31.3031 120.869 41.3108C120.835 45.972 119.041 50.2104 116.139 53.3978C112.529 57.3506 109.913 62.4458 109.879 67.7924V68.3293L95.2098 68.2265V67.7467C95.2555 62.3658 92.7079 57.2135 89.1549 53.1807C86.2989 49.9476 84.5738 45.6978 84.608 41.0366V41.0481Z" fill="url(#paint12_linear_139_1084)"/>
<path d="M98.0431 54.4829C98.0431 54.4829 97.1291 50.4844 96.4894 46.543C96.1124 44.2353 95.9296 42.5673 95.8724 41.3563C95.5297 41.2764 95.187 41.1164 94.8443 40.8765C92.0453 38.923 94.6386 34.9016 94.7529 34.7302C94.8443 34.5931 95.0956 34.5703 95.3241 34.6731C95.5526 34.7874 95.6554 34.9816 95.564 35.1187C94.8785 36.1697 93.4962 39.1743 95.3469 40.4652C95.5183 40.5909 95.6897 40.6709 95.8496 40.728C95.8039 38.2603 96.398 38.169 96.7407 38.1118C97.2891 38.0319 97.8032 38.1918 98.1002 38.546C98.7285 39.2771 98.283 40.6937 97.2662 41.2078C97.0948 41.2992 96.9235 41.3563 96.7293 41.3792C96.8892 44.4295 97.7803 49.6504 98.8999 54.54C98.9456 54.7114 98.7857 54.837 98.5458 54.8142C98.4886 54.8142 98.4201 54.7913 98.3744 54.7685C98.2144 54.7114 98.0774 54.5857 98.0431 54.46V54.4829ZM97.1291 38.7402C96.8207 38.8201 96.695 39.5056 96.7064 40.6252C97.4376 40.2025 97.7003 39.1172 97.3919 38.763C97.3919 38.763 97.3805 38.7402 97.3576 38.7402C97.3233 38.7287 97.2548 38.7173 97.1291 38.7402Z" fill="white"/>
<path d="M106.92 54.86C106.92 54.86 106.806 54.8943 106.748 54.8943C106.509 54.9057 106.349 54.7801 106.394 54.6087C107.594 49.7419 108.565 44.5324 108.771 41.4821C108.588 41.4479 108.405 41.3907 108.245 41.2994C107.24 40.7624 106.817 39.3344 107.457 38.6261C107.765 38.2719 108.279 38.1234 108.828 38.2148C109.17 38.2719 109.753 38.3747 109.673 40.8424C109.833 40.7967 110.004 40.7053 110.187 40.591C112.072 39.3229 110.736 36.2955 110.061 35.233C109.97 35.0959 110.084 34.8903 110.313 34.7875C110.541 34.6732 110.793 34.7075 110.884 34.8446C110.987 35.016 113.523 39.0716 110.69 40.9909C110.347 41.2194 109.993 41.3793 109.65 41.4593C109.57 42.6703 109.365 44.3382 108.953 46.6345C108.256 50.5645 107.285 54.5173 107.274 54.5516C107.24 54.6772 107.114 54.8029 106.943 54.86H106.92ZM108.176 38.8203L108.142 38.8431C107.834 39.1973 108.074 40.2712 108.805 40.7167C108.828 39.5971 108.713 38.9117 108.416 38.8203C108.291 38.7974 108.222 38.8089 108.188 38.8203H108.176Z" fill="white"/>
<path d="M98.0545 54.0261L98.5 53.6719C100.922 51.7069 104.418 51.7298 106.817 53.729L107.251 54.0946L107.148 68.752L97.9631 68.6835L98.0659 54.0261H98.0545ZM106.383 54.4945L106.257 54.3917C104.178 52.6552 101.139 52.6323 99.037 54.3345L98.9113 54.4374L98.8085 67.8267L106.28 67.8838L106.383 54.4945Z" fill="white"/>
<path d="M94.9357 69.3462L110.13 69.4604C110.747 69.4604 111.25 68.9692 111.261 68.3523C111.261 67.7354 110.77 67.2327 110.153 67.2213L94.9585 67.107C94.3416 67.107 93.839 67.5983 93.8275 68.2152C93.8275 68.8321 94.3188 69.3348 94.9357 69.3462Z" fill="#80041D"/>
<path d="M95.7354 71.5964L109.307 71.6993C109.856 71.6993 110.313 71.208 110.313 70.5911C110.313 69.9742 109.879 69.4715 109.319 69.4601L95.7468 69.3573C95.1985 69.3573 94.7415 69.8485 94.7415 70.4654C94.7415 71.0823 95.1756 71.585 95.7354 71.5964Z" fill="#E70000"/>
<path d="M95.7125 73.8477L109.285 73.9505C109.833 73.9505 110.29 73.4592 110.29 72.8423C110.29 72.2254 109.856 71.7227 109.296 71.7113L95.724 71.6085C95.1756 71.6085 94.7186 72.0997 94.7186 72.7167C94.7186 73.3336 95.1527 73.8362 95.7125 73.8477Z" fill="#80041D"/>
<path d="M95.7012 76.0867L109.273 76.1895C109.822 76.1895 110.279 75.6982 110.279 75.0813C110.279 74.4644 109.844 73.9617 109.285 73.9503L95.7126 73.8475C95.1642 73.8475 94.7073 74.3387 94.7073 74.9557C94.7073 75.5726 95.1528 76.0752 95.7012 76.0867Z" fill="#E70000"/>
<path d="M95.6783 78.3369L109.25 78.4397C109.799 78.4397 110.256 77.9485 110.256 77.3316C110.256 76.7147 109.822 76.212 109.262 76.2006L95.6897 76.0977C95.1414 76.0977 94.6844 76.589 94.6844 77.2059C94.6844 77.8228 95.1185 78.3255 95.6783 78.3369Z" fill="#80041D"/>
<path d="M106.04 80.6564L98.8658 80.5993C97.6319 80.5993 96.6266 79.5825 96.638 78.3372L108.291 78.4286C108.291 79.6625 107.274 80.6564 106.029 80.6564H106.04Z" fill="#E70000"/>
<path d="M102.636 17.5825C102.064 17.4454 101.642 16.9313 101.653 16.3144L101.71 9.05998C101.71 8.35167 102.293 7.76903 103.013 7.78046C103.721 7.78046 104.304 8.3631 104.292 9.08283L104.235 16.3373C104.235 17.0456 103.652 17.6282 102.933 17.6168C102.83 17.6168 102.727 17.6054 102.636 17.5825Z" fill="url(#paint13_linear_139_1084)"/>
<path d="M90.3545 19.9131C90.0346 19.8332 89.749 19.639 89.5662 19.3419L85.6706 13.0585C85.2935 12.4531 85.4763 11.6534 86.0932 11.2764C86.6987 10.8994 87.4984 11.0936 87.8754 11.6991L91.7711 17.9824C92.1481 18.5879 91.9654 19.3876 91.3484 19.7646C91.04 19.9588 90.6858 20.0045 90.366 19.9246L90.3545 19.9131Z" fill="url(#paint14_linear_139_1084)"/>
<path d="M82.049 29.4182C81.969 29.3954 81.9004 29.3725 81.8205 29.3383L75.0573 26.3108C74.4061 26.0138 74.1091 25.2598 74.4061 24.6086C74.6917 23.9574 75.4571 23.6604 76.1083 23.9574L82.8715 26.9849C83.5227 27.2819 83.8197 28.0359 83.5227 28.6871C83.2599 29.2697 82.6316 29.5553 82.0375 29.4182H82.049Z" fill="url(#paint15_linear_139_1084)"/>
<path d="M72.9324 44.8865C72.384 44.7494 71.9728 44.2696 71.9499 43.6755C71.9271 42.9672 72.4869 42.3617 73.1952 42.3389L79.33 42.1218C80.0383 42.0989 80.6438 42.6587 80.6667 43.367C80.6895 44.0754 80.1297 44.6808 79.4214 44.7037L73.2866 44.9207C73.1609 44.9207 73.0467 44.9207 72.9324 44.8865Z" fill="url(#paint16_linear_139_1084)"/>
<path d="M115.796 20.1074C115.659 20.0731 115.534 20.016 115.408 19.936C114.802 19.5476 114.631 18.7479 115.02 18.1538L119.007 11.9276C119.395 11.3221 120.195 11.1507 120.789 11.5391C121.394 11.9276 121.566 12.7273 121.177 13.3213L117.19 19.5476C116.882 20.0274 116.322 20.233 115.796 20.1074Z" fill="url(#paint17_linear_139_1084)"/>
<path d="M123.953 29.7496C123.576 29.6583 123.234 29.3955 123.074 29.0071C122.788 28.3559 123.097 27.5904 123.748 27.3163L130.557 24.3916C131.219 24.106 131.973 24.4145 132.259 25.0657C132.544 25.7169 132.236 26.4823 131.585 26.7679L124.776 29.6925C124.513 29.8068 124.228 29.8296 123.965 29.7611L123.953 29.7496Z" fill="url(#paint18_linear_139_1084)"/>
<path d="M126.695 45.0354C126.101 44.8869 125.678 44.35 125.713 43.7102C125.747 43.0019 126.352 42.4536 127.072 42.4878L133.207 42.7963C133.915 42.8306 134.464 43.436 134.429 44.1558C134.395 44.8641 133.79 45.4124 133.07 45.3782L126.935 45.0697C126.855 45.0697 126.775 45.0583 126.695 45.0354Z" fill="url(#paint19_linear_139_1084)"/>
<path d="M70.8647 91.4062C70.8647 91.4062 70.8647 91.4062 70.8647 91.429C70.7733 91.589 70.6705 91.7603 70.5562 91.9317C69.4709 93.5539 67.4945 95.0505 65.9179 94.902C62.662 94.605 42.9322 86.1967 38.9908 83.9918C37.8827 83.3749 37.6313 81.764 38.0312 80.0275C38.2939 78.7937 38.8994 77.4913 39.7791 76.4517C40.7045 75.3321 41.3671 74.304 42.6009 74.2811H42.7266C42.7266 74.2811 42.8294 74.2811 42.8636 74.2811C42.955 74.2811 43.0236 74.304 43.1035 74.3154C43.5948 74.3954 44.9772 74.9095 46.9079 75.732C47.2163 75.8462 47.5134 75.9948 47.8447 76.1204C48.4844 76.406 49.1699 76.7031 49.8896 77.0229C50.2437 77.1829 50.6207 77.3543 50.9978 77.5256C51.5575 77.7884 52.1402 78.0511 52.7343 78.3253C53.3283 78.5995 53.9224 78.8737 54.5507 79.1593C56.7899 80.2103 59.1319 81.3413 61.3368 82.4495C66.5577 85.0542 69.9164 87.0192 70.6704 88.0131C70.9103 88.3445 71.0703 88.6758 71.1731 89.0185C71.196 89.0756 71.2074 89.1213 71.2188 89.1898C71.3787 89.9324 71.2417 90.6864 70.8647 91.3833V91.4062Z" fill="url(#paint20_linear_139_1084)"/>
<path d="M70.5447 91.9319C69.4594 93.5541 67.483 95.0507 65.9065 94.9022C62.6505 94.6052 42.9207 86.1969 38.9793 83.992C37.8712 83.3751 37.6198 81.7642 38.0197 80.0277C38.054 80.1534 38.6823 82.2897 41.0586 83.535C43.4919 84.8145 62.6848 94.0568 67.5059 92.0347C69.0824 91.3721 69.9963 91.4863 70.5333 91.9204L70.5447 91.9319Z" fill="#B4F1E6"/>
<path d="M65.0952 87.5333C69.3564 84.2774 85.1448 78.5081 86.9499 75.7435C88.7549 72.9788 93.0619 69.5857 95.5753 70.1227C98.1343 70.6711 97.6431 72.6475 96.3178 74.761C95.4724 76.0976 94.3643 77.4343 90.937 78.7595C87.4983 80.0847 75.3657 90.2752 70.6588 92.8913C65.9977 95.4961 62.2162 89.7497 65.1066 87.5448L65.0952 87.5333Z" fill="#FD9A9F"/>
<path d="M109.513 177.945L105.903 179.042V184.571L109.513 185.668V189.129L94.273 183.771V179.841L109.513 174.46V177.922V177.945ZM103.207 179.818L99.6767 180.915C99.4368 180.984 99.1398 181.075 98.7742 181.189C98.4086 181.304 98.0316 181.418 97.6432 181.532C97.2548 181.646 96.9235 181.738 96.6379 181.806C96.9235 181.875 97.2776 181.966 97.6889 182.092C98.1116 182.217 98.5 182.332 98.877 182.435C99.254 182.549 99.5168 182.629 99.6767 182.674L103.207 183.76V179.807V179.818Z" fill="white"/>
<path d="M100.99 166.806V160.786H108.862C109.125 161.586 109.33 162.408 109.49 163.265C109.65 164.122 109.719 165.093 109.719 166.178C109.719 167.686 109.422 168.966 108.828 170.017C108.233 171.068 107.354 171.867 106.189 172.416C105.023 172.964 103.595 173.238 101.904 173.238C100.316 173.238 98.9341 172.93 97.7688 172.324C96.6035 171.707 95.7124 170.816 95.0727 169.64C94.4329 168.463 94.113 167.024 94.113 165.321C94.113 164.522 94.2044 163.722 94.3758 162.945C94.5471 162.168 94.7756 161.448 95.0498 160.82L97.6203 161.894C97.3804 162.362 97.1862 162.888 97.0262 163.482C96.8663 164.076 96.7863 164.704 96.7863 165.356C96.7863 166.292 97.0034 167.103 97.4261 167.789C97.8488 168.474 98.4543 169.011 99.2311 169.388C100.008 169.765 100.91 169.96 101.962 169.96C102.955 169.96 103.824 169.822 104.589 169.56C105.355 169.297 105.949 168.863 106.383 168.28C106.817 167.698 107.034 166.944 107.034 166.007C107.034 165.55 107.011 165.161 106.965 164.853C106.92 164.533 106.874 164.247 106.828 163.962H103.664V166.841H100.99V166.806Z" fill="white"/>
<path d="M109.513 148.447V157.187H94.3415V148.447H96.9805V153.965H100.316V148.824H102.955V153.965H106.863V148.447H109.524H109.513Z" fill="white"/>
<path d="M109.513 131.813V135.903L98.0316 142.506V142.598C98.5114 142.575 98.9912 142.541 99.471 142.529C99.9509 142.506 100.442 142.484 100.922 142.472C101.402 142.449 101.882 142.426 102.373 142.415H109.513V145.294H94.3415V141.238L105.709 134.646V134.578C105.24 134.589 104.772 134.612 104.303 134.635C103.835 134.658 103.378 134.669 102.91 134.692C102.441 134.715 101.984 134.726 101.516 134.738H94.3301V131.847H109.502L109.513 131.813Z" fill="white"/>
<path d="M96.7977 121.554C96.7977 122.171 96.912 122.719 97.1519 123.188C97.3918 123.656 97.7345 124.056 98.1801 124.376C98.6256 124.696 99.174 124.936 99.8138 125.107C100.454 125.278 101.162 125.358 101.962 125.358C103.035 125.358 103.949 125.221 104.703 124.959C105.457 124.696 106.04 124.273 106.44 123.713C106.84 123.154 107.034 122.434 107.034 121.543C107.034 120.926 106.965 120.309 106.828 119.692C106.691 119.075 106.497 118.401 106.234 117.67H108.93C109.205 118.344 109.41 119.007 109.524 119.646C109.639 120.286 109.707 121.029 109.707 121.84C109.707 123.405 109.387 124.684 108.736 125.69C108.085 126.695 107.182 127.438 106.017 127.929C104.852 128.409 103.492 128.66 101.939 128.66C100.785 128.66 99.7338 128.5 98.7856 128.192C97.8259 127.883 97.0034 127.426 96.3065 126.821C95.6096 126.215 95.0727 125.473 94.6843 124.593C94.3072 123.702 94.113 122.685 94.113 121.543C94.113 120.789 94.2044 120.035 94.3986 119.281C94.5929 118.527 94.8556 117.796 95.1869 117.11L97.8031 118.15C97.5289 118.721 97.3004 119.292 97.0948 119.863C96.8891 120.435 96.7977 121.006 96.7977 121.554Z" fill="white"/>
<path d="M100.591 109.73L94.3415 106.566V103.104L103.607 108.142H109.513V111.341H103.709L94.3415 116.379V112.895L100.591 109.753V109.73Z" fill="white"/>
<defs>
<linearGradient id="paint0_linear_139_1084" x1="-0.000492139" y1="111.73" x2="220.877" y2="111.73" gradientUnits="userSpaceOnUse">
<stop stop-color="white"/>
<stop offset="1" stop-color="#B4F1E6"/>
</linearGradient>
<linearGradient id="paint1_linear_139_1084" x1="131.288" y1="192.98" x2="210.835" y2="192.98" gradientUnits="userSpaceOnUse">
<stop stop-color="white"/>
<stop offset="1" stop-color="#B4F1E6"/>
</linearGradient>
<linearGradient id="paint2_linear_139_1084" x1="-106.498" y1="106.28" x2="322.451" y2="106.28" gradientUnits="userSpaceOnUse">
<stop stop-color="white"/>
<stop offset="1" stop-color="#B4F1E6"/>
</linearGradient>
<linearGradient id="paint3_linear_139_1084" x1="128.375" y1="183.554" x2="146.573" y2="183.554" gradientUnits="userSpaceOnUse">
<stop stop-color="#BE042F"/>
<stop offset="1" stop-color="#47010C"/>
</linearGradient>
<linearGradient id="paint4_linear_139_1084" x1="151.92" y1="188.924" x2="175.626" y2="188.924" gradientUnits="userSpaceOnUse">
<stop stop-color="#BE042F"/>
<stop offset="1" stop-color="#47010C"/>
</linearGradient>
<linearGradient id="paint5_linear_139_1084" x1="77.8677" y1="122.161" x2="71.093" y2="56.231" gradientUnits="userSpaceOnUse">
<stop stop-color="white"/>
<stop offset="1" stop-color="#B4F1E6"/>
</linearGradient>
<linearGradient id="paint6_linear_139_1084" x1="52.46" y1="124.776" x2="45.6739" y2="58.8351" gradientUnits="userSpaceOnUse">
<stop stop-color="white"/>
<stop offset="1" stop-color="#B4F1E6"/>
</linearGradient>
<linearGradient id="paint7_linear_139_1084" x1="188.501" y1="132.66" x2="189.586" y2="69.7118" gradientUnits="userSpaceOnUse">
<stop stop-color="#80041D"/>
<stop offset="1" stop-color="#E70000"/>
</linearGradient>
<linearGradient id="paint8_linear_139_1084" x1="204.449" y1="132.934" x2="205.534" y2="69.9859" gradientUnits="userSpaceOnUse">
<stop stop-color="#80041D"/>
<stop offset="1" stop-color="#E70000"/>
</linearGradient>
<linearGradient id="paint9_linear_139_1084" x1="169.251" y1="99.9744" x2="125.267" y2="99.9744" gradientUnits="userSpaceOnUse">
<stop stop-color="white"/>
<stop offset="1" stop-color="#B4F1E6"/>
</linearGradient>
<linearGradient id="paint10_linear_139_1084" x1="93.6105" y1="212.618" x2="109.525" y2="79.4899" gradientUnits="userSpaceOnUse">
<stop stop-color="#BE042F"/>
<stop offset="1" stop-color="#47010C"/>
</linearGradient>
<linearGradient id="paint11_linear_139_1084" x1="181.612" y1="20.3924" x2="229" y2="20.3924" gradientUnits="userSpaceOnUse">
<stop stop-color="#BE042F"/>
<stop offset="1" stop-color="#47010C"/>
</linearGradient>
<linearGradient id="paint12_linear_139_1084" x1="84.608" y1="45.6978" x2="120.88" y2="45.6978" gradientUnits="userSpaceOnUse">
<stop stop-color="#80041D"/>
<stop offset="1" stop-color="#E70000"/>
</linearGradient>
<linearGradient id="paint13_linear_139_1084" x1="101.653" y1="12.7043" x2="104.292" y2="12.7043" gradientUnits="userSpaceOnUse">
<stop stop-color="#80041D"/>
<stop offset="1" stop-color="#E70000"/>
</linearGradient>
<linearGradient id="paint14_linear_139_1084" x1="85.4763" y1="15.5148" x2="91.9539" y2="15.5148" gradientUnits="userSpaceOnUse">
<stop stop-color="#80041D"/>
<stop offset="1" stop-color="#E70000"/>
</linearGradient>
<linearGradient id="paint15_linear_139_1084" x1="74.2919" y1="26.6535" x2="83.6369" y2="26.6535" gradientUnits="userSpaceOnUse">
<stop stop-color="#80041D"/>
<stop offset="1" stop-color="#E70000"/>
</linearGradient>
<linearGradient id="paint16_linear_139_1084" x1="71.9499" y1="43.527" x2="80.6667" y2="43.527" gradientUnits="userSpaceOnUse">
<stop stop-color="#80041D"/>
<stop offset="1" stop-color="#E70000"/>
</linearGradient>
<linearGradient id="paint17_linear_139_1084" x1="114.802" y1="15.7319" x2="121.383" y2="15.7319" gradientUnits="userSpaceOnUse">
<stop stop-color="#80041D"/>
<stop offset="1" stop-color="#E70000"/>
</linearGradient>
<linearGradient id="paint18_linear_139_1084" x1="122.971" y1="27.0307" x2="132.362" y2="27.0307" gradientUnits="userSpaceOnUse">
<stop stop-color="#80041D"/>
<stop offset="1" stop-color="#E70000"/>
</linearGradient>
<linearGradient id="paint19_linear_139_1084" x1="125.713" y1="43.9387" x2="134.429" y2="43.9387" gradientUnits="userSpaceOnUse">
<stop stop-color="#80041D"/>
<stop offset="1" stop-color="#E70000"/>
</linearGradient>
<linearGradient id="paint20_linear_139_1084" x1="58.5264" y1="124.148" x2="51.7404" y2="58.2185" gradientUnits="userSpaceOnUse">
<stop stop-color="white"/>
<stop offset="1" stop-color="#B4F1E6"/>
</linearGradient>
</defs>
</svg>
