<svg width="24" height="25" viewBox="0 0 24 25" fill="none" xmlns="http://www.w3.org/2000/svg">
<path d="M10.6599 10.6716V6.00258H13.3279V10.6716H17.997V13.3397H13.3279L13.3273 18.0087H10.6592V13.3397H5.99018V10.6716H10.6599Z" fill="#BF0A30"/>
<path fill-rule="evenodd" clip-rule="evenodd" d="M5.20577 20.6709C6.83861 22.1456 8.62752 23.3636 10.6472 24.3241C11.7291 24.8377 13.0124 24.791 14.0496 24.1993C15.7992 23.2015 17.322 22.0002 18.7941 20.6709C21.915 17.8521 23.7339 13.9734 23.8533 9.88269L23.9927 5.11292C24.0087 4.55796 23.9934 3.33467 23.9934 3.33467C23.2926 3.22417 22.5894 3.12943 21.8843 3.05053C19.7032 2.78906 17.5314 2.52959 15.6258 1.36433L14.2671 0.533908C13.69 0.184641 13.0283 0 12.3538 0C11.6792 0 11.0175 0.184641 10.4404 0.533908L9.13912 1.32965C6.96 2.661 4.30465 2.91312 1.73466 3.15725C1.15237 3.21261 0.574071 3.26797 0.00711475 3.33467C0.00711475 3.33467 -0.00889344 4.5653 0.00711475 5.12826L0.146519 9.88269C0.265914 13.9734 2.08484 17.8521 5.20577 20.6709ZM1.33446 4.53595C1.33446 4.7494 1.33646 4.94616 1.34113 5.08957L1.47987 9.844C1.58859 13.5592 3.24077 17.0984 6.09956 19.681C7.64168 21.0731 9.32321 22.217 11.2202 23.1188C11.5618 23.2797 11.9369 23.3565 12.3142 23.3429C12.6915 23.3294 13.0601 23.2257 13.3893 23.0407C15.0268 22.1069 16.4702 20.9724 17.9003 19.681C20.7591 17.0984 22.4112 13.5599 22.52 9.844L22.6594 5.07423C22.6634 4.92482 22.666 4.71471 22.666 4.4906C22.3539 4.45102 22.0359 4.41189 21.7122 4.3732L21.6762 4.3692C20.9352 4.286 20.1964 4.18481 19.4604 4.06571C17.9636 3.81225 16.3975 3.39937 14.9301 2.50291L13.5714 1.67182C13.2038 1.45057 12.7828 1.33366 12.3538 1.33366C11.9247 1.33366 11.5037 1.45057 11.1361 1.67182L9.83481 2.46756C8.28735 3.41271 6.57981 3.86094 4.9343 4.12574C3.91378 4.28983 2.81455 4.39455 1.78536 4.49327L1.33446 4.53595Z" fill="#BF0A30"/>
</svg>
