<svg width="195" height="28" viewBox="0 0 195 28" fill="none" xmlns="http://www.w3.org/2000/svg">
<g clip-path="url(#clip0_6_96)">
<path d="M0 2.74902H9.78578C12.3106 2.74902 14.2115 3.39267 15.4884 4.64837C16.4549 5.5988 16.9535 6.79285 16.9535 8.20345V8.26511C16.9535 10.3795 15.9258 11.9736 13.8368 13.0458C16.7348 13.9962 18.1692 15.7422 18.1692 18.2551V18.3168C18.1692 20.1861 17.4214 21.6568 15.9564 22.699C14.5235 23.7095 12.5599 24.2013 10.0978 24.2013H0V2.74902ZM13.1196 8.81551C13.1196 7.0079 11.8426 6.08755 9.28571 6.08755H3.77117V11.7871H9.00586C11.7478 11.7871 13.1196 10.8066 13.1196 8.87567V8.81401V8.81551ZM14.3354 17.8566C14.3354 15.9257 12.8397 14.9752 9.84848 14.9752H3.77117V20.8598H10.1283C12.933 20.8598 14.3354 19.8793 14.3354 17.9183V17.8566Z" fill="#FEFEFE"/>
<path d="M21.1589 16.2024V16.1407C21.1589 13.7812 22 11.7886 23.6516 10.1645C25.366 8.51026 27.4534 7.68164 29.9461 7.68164C32.4388 7.68164 34.5278 8.50875 36.21 10.1329C37.8616 11.757 38.7027 13.7496 38.7027 16.0776V16.1392C38.7027 18.4687 37.8616 20.4598 36.21 22.0839C34.4957 23.7381 32.4082 24.5668 29.8834 24.5668C27.3586 24.5668 25.3017 23.7396 23.6501 22.1155C21.9985 20.4914 21.1574 18.5303 21.1574 16.2009L21.1589 16.2024ZM34.9331 16.2024V16.1407C34.9331 14.7001 34.4651 13.4744 33.5307 12.4639C32.5642 11.4533 31.35 10.9314 29.8849 10.9314C28.4199 10.9314 27.2057 11.4217 26.2698 12.4338C25.366 13.4143 24.9301 14.6399 24.9301 16.0806V16.1422C24.9301 17.5829 25.3981 18.7785 26.3325 19.7891C27.2989 20.7996 28.5132 21.3215 29.9476 21.3215C31.3821 21.3215 32.659 20.8312 33.5934 19.8191C34.4972 18.8386 34.9331 17.6431 34.9331 16.2024Z" fill="#FEFEFE"/>
<path d="M41.6343 16.2024V16.1407C41.6343 13.7812 42.4754 11.7886 44.127 10.1645C45.8414 8.51026 47.9288 7.68164 50.4215 7.68164C52.9142 7.68164 55.0032 8.50875 56.6854 10.1329C58.337 11.757 59.1781 13.7496 59.1781 16.0776V16.1392C59.1781 18.4687 58.337 20.4598 56.6854 22.0839C54.9711 23.7381 52.8836 24.5668 50.3588 24.5668C47.834 24.5668 45.7771 23.7396 44.1255 22.1155C42.4739 20.4914 41.6328 18.5303 41.6328 16.2009L41.6343 16.2024ZM55.4085 16.2024V16.1407C55.4085 14.7001 54.9405 13.4744 54.0061 12.4639C53.0396 11.4533 51.8254 10.9314 50.3603 10.9314C48.8953 10.9314 47.6811 11.4217 46.7452 12.4338C45.8414 13.4143 45.4055 14.6399 45.4055 16.0806V16.1422C45.4055 17.5829 45.8735 18.7785 46.8079 19.7891C47.7744 20.7996 48.9886 21.3215 50.423 21.3215C51.8575 21.3215 53.1344 20.8312 54.0688 19.8191C54.9726 18.8386 55.4085 17.6431 55.4085 16.2024Z" fill="#FEFEFE"/>
<path d="M63.012 1.82861H66.7831V15.1902L73.6083 8.01992H78.1899L71.6462 14.6082L78.4086 24.1997H73.9829L69.1214 17.1813L66.7847 19.5724V24.1997H63.0135V1.82861H63.012Z" fill="#FEFEFE"/>
<path d="M81.5849 2.74902H85.668L92.3066 12.8924L98.9452 2.74902H103.028V24.1998H99.196V8.81551L92.3081 18.9288H92.1843L85.3591 8.87717V24.1998H81.588V2.74902H81.5849Z" fill="#FEFEFE"/>
<path d="M106.517 16.1708V16.1092C106.517 13.7496 107.264 11.7886 108.76 10.1645C110.288 8.51026 112.219 7.68164 114.556 7.68164C117.049 7.68164 119.012 8.54033 120.477 10.2863C121.786 11.8804 122.441 13.903 122.441 16.3844C122.441 16.5994 122.41 16.9363 122.378 17.4265H110.286C110.505 18.7138 111.034 19.7244 111.907 20.4598C112.748 21.1651 113.778 21.532 115.024 21.532C116.645 21.532 118.141 20.8884 119.48 19.6011L121.693 21.532C119.979 23.5547 117.735 24.5653 114.961 24.5653C112.562 24.5653 110.535 23.7998 108.947 22.2358C107.326 20.6733 106.515 18.6507 106.515 16.1678L106.517 16.1708ZM118.702 14.9753C118.576 13.7181 118.173 12.7075 117.455 11.942C116.708 11.1149 115.741 10.7164 114.525 10.7164C113.31 10.7164 112.438 11.1149 111.658 11.9119C110.88 12.6774 110.412 13.7196 110.256 14.9768H118.702V14.9753Z" fill="#FEFEFE"/>
<path d="M192.091 0H130.323C128.716 0 127.414 1.2806 127.414 2.8603V25.1397C127.414 26.7194 128.716 28 130.323 28H192.091C193.698 28 195 26.7194 195 25.1397V2.8603C195 1.2806 193.698 0 192.091 0Z" fill="url(#paint0_linear_6_96)"/>
<path d="M142.295 16.6685L133.608 5.64087H130.67V22.3079H133.852V10.9539L142.801 22.3079H145.478V5.64087H142.295V16.6685Z" fill="white"/>
<path d="M189.221 5.64086L185.359 17.4415L181.383 5.59424H178.689L174.713 17.4415L170.851 5.64086H167.363L173.271 22.4252H176.008L179.989 10.9795L183.969 22.4252H186.731L192.614 5.64086H189.221Z" fill="white"/>
<path d="M165.952 14.9016C165.522 19.0131 162.188 22.2914 158.007 22.7125V24.2254C160.449 24.0178 162.717 22.9817 164.471 21.2568C166.225 19.5319 167.277 17.3017 167.49 14.9016H165.953H165.952ZM164.471 6.74173C162.717 5.01683 160.449 3.98219 158.007 3.77466V5.28602C162.188 5.7086 165.522 8.98546 165.952 13.0985H167.488C167.277 10.6968 166.224 8.46664 164.47 6.74173H164.471ZM146.693 13.0985H148.23C148.66 8.98697 151.994 5.7086 156.175 5.28602V3.77466C153.733 3.98219 151.465 5.01683 149.711 6.74173C147.957 8.46664 146.905 10.6968 146.693 13.0985ZM148.23 14.9016H146.693C146.905 17.3032 147.957 19.5334 149.711 21.2568C151.465 22.9817 153.733 24.0163 156.175 24.2254V22.7125C151.994 22.2899 148.66 19.0131 148.23 14.9016Z" fill="white"/>
<path d="M163.078 14.9016C162.68 17.4642 160.614 19.4959 158.009 19.8869V21.0268C161.249 20.6207 163.823 18.0883 164.237 14.9016H163.078ZM158.009 6.97339V8.1133C160.614 8.5043 162.68 10.536 163.078 13.0985H164.237C163.824 9.91189 161.249 7.38093 158.009 6.97339ZM149.948 13.0985H151.107C151.505 10.536 153.571 8.5043 156.176 8.1133V6.97339C152.936 7.37943 150.362 9.91189 149.948 13.0985ZM151.107 14.9016H149.948C150.361 18.0883 152.936 20.6192 156.176 21.0268V19.8869C153.571 19.4959 151.505 17.4642 151.107 14.9016Z" fill="white"/>
<path d="M157.091 17.607C155.068 17.607 153.422 15.9889 153.422 13.9993C153.422 12.0097 155.068 10.3916 157.091 10.3916C159.114 10.3916 160.76 12.0097 160.76 13.9993C160.76 15.9889 159.114 17.607 157.091 17.607ZM157.091 11.521C155.701 11.521 154.571 12.6338 154.571 13.9993C154.571 15.3648 155.702 16.4776 157.091 16.4776C158.48 16.4776 159.611 15.3648 159.611 13.9993C159.611 12.6338 158.48 11.521 157.091 11.521Z" fill="white"/>
<path d="M157.091 15.279C157.81 15.279 158.392 14.706 158.392 13.9992C158.392 13.2925 157.81 12.7195 157.091 12.7195C156.372 12.7195 155.79 13.2925 155.79 13.9992C155.79 14.706 156.372 15.279 157.091 15.279Z" fill="white"/>
<path d="M157.092 2.90552H157.091C156.788 2.90552 156.542 3.14723 156.542 3.4454V8.45318C156.542 8.75135 156.788 8.99306 157.091 8.99306H157.092C157.396 8.99306 157.641 8.75135 157.641 8.45318V3.4454C157.641 3.14723 157.396 2.90552 157.092 2.90552Z" fill="white"/>
<path d="M157.092 19.0071H157.091C156.788 19.0071 156.542 19.2488 156.542 19.547V24.5547C156.542 24.8529 156.788 25.0946 157.091 25.0946H157.092C157.396 25.0946 157.641 24.8529 157.641 24.5547V19.547C157.641 19.2488 157.396 19.0071 157.092 19.0071Z" fill="white"/>
<path d="M145.808 13.9979V13.9994C145.808 14.2976 146.054 14.5393 146.357 14.5393H151.45C151.753 14.5393 151.999 14.2976 151.999 13.9994V13.9979C151.999 13.6998 151.753 13.458 151.45 13.458H146.357C146.054 13.458 145.808 13.6998 145.808 13.9979Z" fill="white"/>
<path d="M162.182 13.9994V14.0009C162.182 14.2991 162.428 14.5408 162.731 14.5408H167.823C168.127 14.5408 168.372 14.2991 168.372 14.0009V13.9994C168.372 13.7012 168.127 13.4595 167.823 13.4595H162.731C162.428 13.4595 162.182 13.7012 162.182 13.9994Z" fill="white"/>
</g>
<defs>
<linearGradient id="paint0_linear_6_96" x1="138.044" y1="36.7779" x2="183.593" y2="-9.54169" gradientUnits="userSpaceOnUse">
<stop stop-color="#CD1C69"/>
<stop offset="1" stop-color="#E70000"/>
</linearGradient>
<clipPath id="clip0_6_96">
<rect width="195" height="28" fill="white"/>
</clipPath>
</defs>
</svg>
