<svg width="19" height="17" viewBox="0 0 19 17" fill="none" xmlns="http://www.w3.org/2000/svg">
<path d="M1.18754 7.12647H15.2713L10.9606 1.94898C10.7591 1.70648 10.6621 1.39383 10.6911 1.07983C10.72 0.76582 10.8725 0.476176 11.115 0.274611C11.3575 0.0730473 11.6702 -0.023926 11.9842 0.0050249C12.2982 0.0339758 12.5878 0.186479 12.7894 0.428986L18.7269 7.55397C18.7668 7.61064 18.8025 7.67018 18.8338 7.7321C18.8338 7.79147 18.8338 7.8271 18.9169 7.88647C18.9707 8.02263 18.9989 8.16756 19 8.31397C18.9989 8.46038 18.9707 8.60531 18.9169 8.74147C18.9169 8.80084 18.9169 8.83647 18.8338 8.89584C18.8025 8.95776 18.7668 9.0173 18.7269 9.07397L12.7894 16.199C12.6777 16.333 12.5379 16.4408 12.3799 16.5147C12.2218 16.5886 12.0495 16.6267 11.875 16.6265C11.5976 16.627 11.3287 16.5304 11.115 16.3533C10.9948 16.2536 10.8954 16.1312 10.8225 15.993C10.7497 15.8549 10.7048 15.7037 10.6904 15.5482C10.6761 15.3926 10.6926 15.2358 10.739 15.0866C10.7853 14.9375 10.8607 14.799 10.9606 14.679L15.2713 9.50147H1.18754C0.872594 9.50147 0.570547 9.37636 0.347849 9.15366C0.12515 8.93096 4.01066e-05 8.62891 4.01066e-05 8.31397C4.01066e-05 7.99903 0.12515 7.69698 0.347849 7.47428C0.570547 7.25158 0.872594 7.12647 1.18754 7.12647Z" fill="#87E5D5"/>
</svg>
