<svg width="30" height="32" viewBox="0 0 30 32" fill="none" xmlns="http://www.w3.org/2000/svg">
<path d="M9.31087 11.9636L10.8064 4.65866M17.7515 9.70154L19.2471 2.3966M2.22559 13.8634H28.9777V28.4266C28.9777 29.0464 28.7314 29.6407 28.2932 30.079C27.855 30.5172 27.2606 30.7634 26.6408 30.7634H4.56009C3.94032 30.7634 3.34594 30.5172 2.9077 30.079C2.46946 29.6407 2.22326 29.0464 2.22326 28.4266L2.22559 13.8634ZM2.22326 13.8634L28.0593 6.93941L26.9376 2.75648C26.8584 2.4598 26.7215 2.18165 26.5347 1.93791C26.348 1.69417 26.115 1.48963 25.8492 1.33597C25.5833 1.18232 25.2898 1.08257 24.9854 1.04242C24.6809 1.00228 24.3716 1.02252 24.075 1.102L2.75372 6.81789C2.1555 6.97837 1.64547 7.36978 1.33568 7.9061C1.02589 8.44243 0.941688 9.0798 1.10158 9.67818L2.22326 13.8634ZM8.35978 24.8232H11.3463H16.416L16.416 23.7984H8.35978L8.35978 24.8232Z" stroke="#BF0A30" stroke-width="2" stroke-linecap="round" stroke-linejoin="round"/>
</svg>
