<svg width="26" height="27" viewBox="0 0 26 27" fill="none" xmlns="http://www.w3.org/2000/svg">
<path d="M18.9001 2.70002C18.5421 2.70002 18.1987 2.55778 17.9455 2.30461C17.6923 2.05143 17.5501 1.70805 17.5501 1.35001C17.5501 0.991964 17.6923 0.648584 17.9455 0.395408C18.1987 0.142233 18.5421 0 18.9001 0H24.3001C24.6582 0 25.0016 0.142233 25.2547 0.395408C25.5079 0.648584 25.6502 0.991964 25.6502 1.35001V6.75004C25.6502 7.10809 25.5079 7.45146 25.2547 7.70464C25.0016 7.95782 24.6582 8.10005 24.3001 8.10005C23.9421 8.10005 23.5987 7.95782 23.3455 7.70464C23.0924 7.45146 22.9501 7.10809 22.9501 6.75004V4.60893L15.1295 12.4295C14.8764 12.6826 14.5331 12.8248 14.1751 12.8248C13.8171 12.8248 13.4738 12.6826 13.2206 12.4295L9.45006 8.65895L2.30446 15.8045C2.04985 16.0505 1.70883 16.1865 1.35487 16.1835C1.0009 16.1804 0.6623 16.0384 0.411998 15.7881C0.161695 15.5378 0.0197161 15.1992 0.0166402 14.8452C0.0135643 14.4913 0.149638 14.1502 0.395552 13.8956L8.4956 5.79559C8.74877 5.5425 9.09208 5.40032 9.45006 5.40032C9.80803 5.40032 10.1513 5.5425 10.4045 5.79559L14.1751 9.56616L21.0412 2.70002H18.9001ZM2.70002 21.6001V25.6502C2.70002 26.0082 2.55778 26.3516 2.30461 26.6048C2.05143 26.8579 1.70805 27.0002 1.35001 27.0002C0.991964 27.0002 0.648584 26.8579 0.395408 26.6048C0.142233 26.3516 0 26.0082 0 25.6502V21.6001C0 21.2421 0.142233 20.8987 0.395408 20.6455C0.648584 20.3924 0.991964 20.2501 1.35001 20.2501C1.70805 20.2501 2.05143 20.3924 2.30461 20.6455C2.55778 20.8987 2.70002 21.2421 2.70002 21.6001ZM9.45006 16.2001C9.45006 15.8421 9.30783 15.4987 9.05465 15.2455C8.80147 14.9923 8.45809 14.8501 8.10005 14.8501C7.74201 14.8501 7.39863 14.9923 7.14545 15.2455C6.89227 15.4987 6.75004 15.8421 6.75004 16.2001V25.6502C6.75004 26.0082 6.89227 26.3516 7.14545 26.6048C7.39863 26.8579 7.74201 27.0002 8.10005 27.0002C8.45809 27.0002 8.80147 26.8579 9.05465 26.6048C9.30783 26.3516 9.45006 26.0082 9.45006 25.6502V16.2001ZM14.8501 17.5501C15.2081 17.5501 15.5515 17.6923 15.8047 17.9455C16.0579 18.1987 16.2001 18.5421 16.2001 18.9001V25.6502C16.2001 26.0082 16.0579 26.3516 15.8047 26.6048C15.5515 26.8579 15.2081 27.0002 14.8501 27.0002C14.492 27.0002 14.1487 26.8579 13.8955 26.6048C13.6423 26.3516 13.5001 26.0082 13.5001 25.6502V18.9001C13.5001 18.5421 13.6423 18.1987 13.8955 17.9455C14.1487 17.6923 14.492 17.5501 14.8501 17.5501ZM22.9501 12.1501C22.9501 11.792 22.8079 11.4486 22.5547 11.1955C22.3016 10.9423 21.9582 10.8001 21.6001 10.8001C21.2421 10.8001 20.8987 10.9423 20.6455 11.1955C20.3924 11.4486 20.2501 11.792 20.2501 12.1501V25.6502C20.2501 26.0082 20.3924 26.3516 20.6455 26.6048C20.8987 26.8579 21.2421 27.0002 21.6001 27.0002C21.9582 27.0002 22.3016 26.8579 22.5547 26.6048C22.8079 26.3516 22.9501 26.0082 22.9501 25.6502V12.1501Z" fill="#BF0A30"/>
</svg>
