<svg width="264" height="223" viewBox="0 0 264 223" fill="none" xmlns="http://www.w3.org/2000/svg">
<path d="M219.287 79.2494C193.628 71.4615 171.501 60.4537 146.444 29.9038C121.376 -0.646153 54.0141 8.75722 34.4273 54.5821C14.8405 100.407 28.9456 142.7 52.4431 150.533C75.9405 158.365 86.0236 166.03 99.0035 196.09C109.41 220.2 167.279 231.81 185.205 208.557C217.995 166.03 218.908 182.642 234.573 150.923C250.238 119.203 245.659 87.249 219.298 79.2494H219.287Z" fill="url(#paint0_linear_139_1083)"/>
<path d="M203.489 35.252C186.052 15.5539 179.456 9.66004 160.182 13.8158C140.907 17.9716 172.225 51.4183 204.146 67.8185C236.066 84.2188 224.825 59.3622 203.489 35.252Z" fill="url(#paint1_linear_139_1083)"/>
<path d="M237.682 221.214H31.0625V222.741H237.682V221.214Z" fill="#B4F1E6"/>
<mask id="mask0_139_1083" style="mask-type:luminance" maskUnits="userSpaceOnUse" x="25" y="12" width="219" height="210">
<path d="M219.287 79.2494C193.628 71.4615 171.501 60.4537 146.444 29.9038C121.376 -0.646153 54.0141 8.75722 34.4273 54.5821C14.8405 100.407 28.9456 142.7 52.4431 150.533C75.9405 158.365 86.0236 166.03 99.0035 196.09C109.41 220.2 167.279 231.81 185.205 208.557C217.995 166.03 218.908 182.642 234.573 150.923C250.238 119.203 245.659 87.249 219.298 79.2494H219.287Z" fill="white"/>
</mask>
<g mask="url(#mask0_139_1083)">
<path d="M56.6882 73.1886V64.9885H70.2919V25.7593H74.0466V64.9885H88.7089V73.1886H96.5636V237.637H39.9313V73.1886H56.6882Z" fill="#B4F1E6"/>
<path d="M39.9202 221.125H47.775L47.775 73.1999H39.9202L39.9202 221.125Z" fill="#B4F1E6"/>
<path d="M68.2531 237.637H124.885L124.885 112.362H68.2531L68.2531 237.637Z" fill="#B4F1E6"/>
<path d="M68.2533 237.637H76.108L76.108 112.362H68.2533L68.2533 237.637Z" fill="#B4F1E6"/>
<path d="M108.853 121.075H116.975V117.699H108.853V121.075Z" fill="#B4F1E6"/>
<path d="M95.171 121.075H103.293V117.699H95.171V121.075Z" fill="#B4F1E6"/>
<path d="M108.853 133.363H116.975V129.988H108.853V133.363Z" fill="#B4F1E6"/>
<path d="M95.171 133.363H103.293V129.988H95.171V133.363Z" fill="#B4F1E6"/>
<path d="M81.4894 133.363H89.6115V129.988H81.4894V133.363Z" fill="#B4F1E6"/>
<path d="M108.853 145.63H116.975V142.254H108.853V145.63Z" fill="#B4F1E6"/>
<path d="M81.4894 145.63H89.6115V142.254H81.4894V145.63Z" fill="#B4F1E6"/>
<path d="M95.171 151.769H103.293V148.394H95.171V151.769Z" fill="#B4F1E6"/>
<path d="M108.853 157.92H116.975V154.544H108.853V157.92Z" fill="#B4F1E6"/>
<path d="M95.171 164.058H103.293V160.682H95.171V164.058Z" fill="#B4F1E6"/>
<path d="M108.853 170.197H116.975V166.822H108.853V170.197Z" fill="#B4F1E6"/>
<path d="M81.4894 170.197H89.6115V166.822H81.4894V170.197Z" fill="#B4F1E6"/>
<path d="M108.853 181.55H116.975V178.174H108.853V181.55Z" fill="#B4F1E6"/>
<path d="M95.171 181.55H103.293V178.174H95.171V181.55Z" fill="#B4F1E6"/>
<path d="M108.853 193.829H116.975V190.453H108.853V193.829Z" fill="#B4F1E6"/>
<path d="M95.171 193.829H103.293V190.453H95.171V193.829Z" fill="#B4F1E6"/>
<path d="M81.4894 193.829H89.6115V190.453H81.4894V193.829Z" fill="#B4F1E6"/>
<path d="M108.853 206.117H116.975V202.741H108.853V206.117Z" fill="#B4F1E6"/>
<path d="M81.4894 206.117H89.6115V202.741H81.4894V206.117Z" fill="#B4F1E6"/>
<path d="M95.171 212.245H103.293V208.869H95.171V212.245Z" fill="#B4F1E6"/>
<path d="M81.4894 212.245H89.6115V208.869H81.4894V212.245Z" fill="#B4F1E6"/>
<path d="M108.853 218.384H116.975V215.008H108.853V218.384Z" fill="#B4F1E6"/>
<path d="M95.171 224.523H103.293V221.147H95.171V224.523Z" fill="#B4F1E6"/>
<path d="M203.756 237.637H260.388V112.362H203.756V237.637Z" fill="#B4F1E6"/>
<path d="M203.756 237.637H211.611L211.611 112.362H203.756L203.756 237.637Z" fill="#B4F1E6"/>
<path d="M123.303 237.637H199.288L199.288 52.7772H123.303L123.303 237.637Z" fill="#B4F1E6"/>
<path d="M123.303 237.637H131.158L131.158 52.7772H123.303L123.303 237.637Z" fill="#B4F1E6"/>
<path d="M179.423 66.5478H191.289V61.6233H179.423V66.5478Z" fill="#B4F1E6"/>
<path d="M159.446 66.5478H171.312V61.6233H159.446V66.5478Z" fill="#B4F1E6"/>
<path d="M179.423 84.4972H191.289V79.5727H179.423V84.4972Z" fill="#B4F1E6"/>
<path d="M159.446 84.4972H171.312V79.5727H159.446V84.4972Z" fill="#B4F1E6"/>
<path d="M139.459 84.4972H151.324V79.5727H139.459V84.4972Z" fill="#B4F1E6"/>
<path d="M179.423 102.424H191.289V97.499H179.423V102.424Z" fill="#B4F1E6"/>
<path d="M139.459 102.424H151.324V97.499H139.459V102.424Z" fill="#B4F1E6"/>
<path d="M159.446 111.393H171.312V106.468H159.446V111.393Z" fill="#B4F1E6"/>
<path d="M179.423 120.35H191.289V115.426H179.423V120.35Z" fill="#B4F1E6"/>
<path d="M159.446 129.33H171.312V124.406H159.446V129.33Z" fill="#B4F1E6"/>
<path d="M179.423 138.3H191.289V133.375H179.423V138.3Z" fill="#B4F1E6"/>
<path d="M139.459 138.3H151.324V133.375H139.459V138.3Z" fill="#B4F1E6"/>
<path d="M179.423 154.856H191.289V149.931H179.423V154.856Z" fill="#B4F1E6"/>
<path d="M159.446 154.856H171.312V149.931H159.446V154.856Z" fill="#B4F1E6"/>
<path d="M179.423 172.804H191.289V167.88H179.423V172.804Z" fill="#B4F1E6"/>
<path d="M159.446 172.804H171.312V167.88H159.446V172.804Z" fill="#B4F1E6"/>
<path d="M139.459 172.804H151.324V167.88H139.459V172.804Z" fill="#B4F1E6"/>
<path d="M179.423 190.731H191.289V185.806H179.423V190.731Z" fill="#B4F1E6"/>
<path d="M139.459 190.731H151.324V185.806H139.459V190.731Z" fill="#B4F1E6"/>
<path d="M159.446 199.7H171.312V194.775H159.446V199.7Z" fill="#B4F1E6"/>
<path d="M139.459 199.7H151.324V194.775H139.459V199.7Z" fill="#B4F1E6"/>
<path d="M179.423 208.658H191.289V203.734H179.423V208.658Z" fill="#B4F1E6"/>
<path d="M159.446 217.638H171.312V212.713H159.446V217.638Z" fill="#B4F1E6"/>
<path d="M242.774 237.637H317.255V66.5596H242.774L242.774 237.637Z" fill="#B4F1E6"/>
<path d="M242.774 237.637H250.473L250.473 66.5596H242.774L242.774 237.637Z" fill="#B4F1E6"/>
<path d="M2.09497 237.638H50.0592L50.0592 120.942H2.09497L2.09497 237.638Z" fill="#B4F1E6"/>
<path d="M37.5138 129.654H45.0009V126.546H37.5138V129.654Z" fill="#B4F1E6"/>
<path d="M24.8904 129.654H32.3775V126.546H24.8904V129.654Z" fill="#B4F1E6"/>
<path d="M37.5138 140.974H45.0009V137.865H37.5138V140.974Z" fill="#B4F1E6"/>
<path d="M24.8904 140.974H32.3775V137.865H24.8904V140.974Z" fill="#B4F1E6"/>
<path d="M37.5138 152.282H45.0009V149.174H37.5138V152.282Z" fill="#B4F1E6"/>
<path d="M24.8904 157.942H32.3775V154.834H24.8904V157.942Z" fill="#B4F1E6"/>
<path d="M37.5138 163.602H45.0009V160.494H37.5138V163.602Z" fill="#B4F1E6"/>
<path d="M24.8904 169.262H32.3775V166.154H24.8904V169.262Z" fill="#B4F1E6"/>
<path d="M37.5138 174.922H45.0009V171.814H37.5138V174.922Z" fill="#B4F1E6"/>
<path d="M37.5138 185.384H45.0009V182.275H37.5138V185.384Z" fill="#B4F1E6"/>
<path d="M24.8904 185.384H32.3775V182.275H24.8904V185.384Z" fill="#B4F1E6"/>
<path d="M37.5138 196.704H45.0009V193.595H37.5138V196.704Z" fill="#B4F1E6"/>
<path d="M24.8904 196.704H32.3775V193.595H24.8904V196.704Z" fill="#B4F1E6"/>
<path d="M37.5138 208.023H45.0009V204.915H37.5138V208.023Z" fill="#B4F1E6"/>
<path d="M24.8904 213.683H32.3775V210.575H24.8904V213.683Z" fill="#B4F1E6"/>
<path d="M37.5138 219.343H45.0009V216.234H37.5138V219.343Z" fill="#B4F1E6"/>
<path opacity="0.35" d="M173.897 -3.94317H-29.3799V227.833H173.897V-3.94317Z" fill="white"/>
<path opacity="0.5" d="M42.015 223.644H26.2386L110.814 -1.29171H126.59L42.015 223.644Z" fill="white"/>
<path opacity="0.5" d="M14.1611 223.644H6.27292L90.837 -1.29171H98.7252L14.1611 223.644Z" fill="white"/>
<path opacity="0.5" d="M108.352 223.644H100.463L172.972 22.8631V39.0406L108.352 223.644Z" fill="white"/>
<path opacity="0.35" d="M379.659 -8.53391H176.382V223.242H379.659V-8.53391Z" fill="white"/>
<path opacity="0.5" d="M209.996 223.644H194.219L278.794 -1.29171H294.571L209.996 223.644Z" fill="white"/>
<path opacity="0.5" d="M182.142 223.644H174.254L258.829 -1.29171H266.717L182.142 223.644Z" fill="white"/>
<path d="M388.137 37.8594V35.2077H380.839V-6.59512H177.54H-30.1932V-1.29176H-25.77V0.579999H105.321V35.2077H-30.1932V37.8594H105.321V105.923H-30.1932V108.574H105.321V176.638H-30.1932V179.289H105.321V223.644H-25.7254V225.181H-30.1932V231.32H380.828V230.83V179.3H388.126V176.649H380.828V108.586H388.126V105.934H380.828V37.8705H388.126L388.137 37.8594ZM177.551 108.574H240.869V176.638H177.551V108.574ZM177.551 105.923V37.8594H240.869V105.923H177.551ZM177.551 35.2077V0.579999H240.869V35.2077H177.551ZM177.551 179.289H240.869V223.644H177.574V225.181H177.551V179.3V179.289ZM245.314 223.644V179.289H308.631V223.644H245.314ZM245.314 176.638V108.574H308.631V176.638H245.314ZM245.314 105.923V37.8594H308.631V105.923H245.314ZM245.314 35.2077V0.579999H308.631V35.2077H245.314ZM313.077 0.579999H376.394V35.2077H313.077V0.579999ZM109.778 0.579999H173.095V35.2077H109.778V0.579999ZM109.778 37.8594H173.095V105.923H109.778V37.8594ZM109.778 108.574H173.095V176.638H109.778V108.574ZM109.778 179.289H173.095V225.17H173.073V223.632H109.789V179.278L109.778 179.289ZM376.383 225.17H376.361V223.632H313.077V179.278H376.394V225.159L376.383 225.17ZM376.383 176.638H313.066V108.574H376.383V176.638ZM376.383 105.923H313.066V37.8594H376.383V105.923Z" fill="url(#paint2_linear_139_1083)"/>
</g>
<path d="M193.818 58.3816H190.609L192.458 31.8983H195.678L193.818 58.3816Z" fill="#47010C"/>
<path d="M160.649 221.192H159.045L183.122 133.654H184.726L160.649 221.192Z" fill="#BE042F"/>
<path d="M189.718 133.654H188.18V221.192H189.718V133.654Z" fill="#BE042F"/>
<path d="M218.986 221.192H217.382L193.305 133.654H194.91L218.986 221.192Z" fill="#BE042F"/>
<path d="M171.891 182.32L185.428 133.654H182.219L168.682 182.32H171.891Z" fill="#47010C"/>
<path d="M190.542 133.654H187.333V182.32H190.542V133.654Z" fill="#47010C"/>
<path d="M209.36 182.32L195.667 133.654H192.458L206.151 182.32H209.36Z" fill="#47010C"/>
<path d="M195.656 133.654H182.219V137.063H195.656V133.654Z" fill="#E70000"/>
<path d="M199.656 38.0036H187.623L187.857 34.5943H199.901L199.656 38.0036Z" fill="#BE042F"/>
<path d="M203.021 136.483H174.877V139.893H203.021V136.483Z" fill="#BE042F"/>
<path d="M188.704 192.257L165.529 200.19V198.842L188.704 190.898V192.257Z" fill="#BE042F"/>
<path d="M212.435 200.068L189.183 192.257V190.898L212.435 198.72V200.068Z" fill="#BE042F"/>
<path d="M116.184 136.517H256.611C256.912 136.517 257.168 136.283 257.18 135.982L257.391 133.018C257.414 132.717 257.191 132.483 256.89 132.483H116.462C116.161 132.483 115.905 132.717 115.894 133.018L115.682 135.982C115.66 136.283 115.883 136.517 116.184 136.517Z" fill="#80041D"/>
<path d="M123.281 41.6689H262.784C263.341 41.6689 263.82 41.2232 263.853 40.6662L263.998 38.6273C264.032 38.0703 263.619 37.6246 263.073 37.6246H123.57C123.013 37.6246 122.534 38.0703 122.501 38.6273L122.356 40.6662C122.323 41.2232 122.735 41.6689 123.281 41.6689Z" fill="#80041D"/>
<path d="M117.521 136.695L124.328 39.4743H258.45L251.653 136.695H117.521Z" fill="white"/>
<path d="M258.26 39.6525L251.486 136.505H117.732L124.506 39.6525H258.26ZM258.661 39.2849H124.161L124.139 39.6302L117.365 136.483L117.342 136.884H251.843L251.865 136.539L258.639 39.6859L258.661 39.2849Z" fill="#A80475"/>
<path d="M114.39 136.517H254.818C255.118 136.517 255.375 136.283 255.386 135.982L255.597 133.018C255.62 132.717 255.397 132.483 255.096 132.483H114.668C114.368 132.483 114.111 132.717 114.1 133.018L113.889 135.982C113.866 136.283 114.089 136.517 114.39 136.517Z" fill="#47010C"/>
<path d="M121.487 41.6689H260.99C261.547 41.6689 262.026 41.2232 262.059 40.6662L262.204 38.6273C262.238 38.0703 261.825 37.6246 261.28 37.6246H121.777C121.22 37.6246 120.741 38.0703 120.707 38.6273L120.562 40.6662C120.529 41.2232 120.941 41.6689 121.487 41.6689Z" fill="#47010C"/>
<path d="M215.789 63.317L215.755 63.5176L199.377 63.3505L209.494 49.5016L210.196 49.8804C214.329 52.6212 216.636 57.6349 215.789 63.3282V63.317Z" fill="#E70000"/>
<path d="M174.933 67.3278C174.888 67.5952 174.866 67.8626 174.833 68.13C174.732 69.1327 174.732 70.1243 174.833 71.0714C174.989 72.6757 175.401 74.2021 176.036 75.5837C176.259 76.0739 176.504 76.5307 176.782 76.9875C176.816 77.0432 176.86 77.11 176.894 77.1657C178.844 80.2519 182.041 82.4134 185.974 82.8368C188.08 83.0596 190.007 83.0262 191.768 82.7699C191.89 82.7588 192.002 82.7364 192.124 82.7142C199.946 81.4217 204.291 75.7954 205.995 70.5143C206.029 70.4029 206.062 70.2803 206.096 70.1689C206.307 69.4893 206.463 68.8207 206.586 68.1745C206.63 67.9406 206.675 67.7066 206.708 67.4726L192.614 67.3055H192.269L191.355 67.2944L191.266 55.2281V54.8939V54.7825V53.8578L191.244 51.9749L190.197 52.1754C183.289 53.1558 177.172 58.7043 175.367 65.4003C175.133 66.2582 175.033 66.871 174.955 67.3278H174.933Z" fill="url(#paint3_linear_139_1083)"/>
<path d="M193.506 65.3002L193.417 48.7106L194.464 48.51C195.868 48.3206 197.338 48.276 198.909 48.51C200.937 48.8108 202.775 49.5239 204.346 50.5712L193.495 65.3002H193.506Z" fill="#80041D"/>
<path d="M223.053 52.1868L222.853 53.5572H236.88L237.08 52.1868H223.053Z" fill="#E70000"/>
<path d="M222.474 56.2978L222.284 57.6682H247.609L247.81 56.2978H222.474Z" fill="#E70000"/>
<path d="M221.894 60.4089L221.705 61.7793H245.214L245.425 60.4089H221.894Z" fill="#E70000"/>
<path d="M238.339 53.5572H242.673L242.874 52.1868H238.551L238.339 53.5572Z" fill="#E70000"/>
<path d="M221.348 64.2532L221.159 65.6236H235.175L235.387 64.2532H221.348Z" fill="#E70000"/>
<path d="M220.78 68.3643L220.58 69.7346H245.916L246.116 68.3643H220.78Z" fill="#E70000"/>
<path d="M220.201 72.4753L220 73.8457H243.52L243.732 72.4753H220.201Z" fill="#E70000"/>
<path d="M236.646 65.6236H240.969L241.18 64.2532H236.857L236.646 65.6236Z" fill="#E70000"/>
<path d="M208.313 89.0091L209.583 92.1956L213.048 92.7304L210.285 95.1926L210.552 98.6911L207.566 97.0199L204.28 98.6577L205.204 95.1592L202.887 92.6746L206.452 92.1844L208.313 89.0091Z" fill="url(#paint4_linear_139_1083)"/>
<path d="M220.947 89.0644L222.229 92.262L225.694 92.7857L222.919 95.2479L223.198 98.7575L220.212 97.0863L216.914 98.7241L217.839 95.2257L215.533 92.7411L219.087 92.2398L220.947 89.0644Z" fill="url(#paint5_linear_139_1083)"/>
<path d="M233.593 89.1315L234.863 92.3291L238.328 92.8528L235.565 95.3151L235.832 98.8246L232.846 97.1534L229.56 98.7912L230.484 95.2928L228.167 92.8082L231.732 92.3069L233.593 89.1315Z" fill="url(#paint6_linear_139_1083)"/>
<g opacity="0.5">
<path d="M174.097 96.3843C173.819 96.3064 173.54 96.2395 173.284 96.1838L173.685 94.7354C173.852 94.7689 174.175 94.8469 174.61 94.9583L174.097 96.3843Z" fill="#BE042F"/>
<path d="M186.498 127.826C186.119 127.826 185.751 127.803 185.372 127.748C185.072 127.703 184.782 127.658 184.503 127.592L184.971 126.154C185.183 126.199 185.406 126.243 185.662 126.277C185.963 126.321 186.275 126.333 186.587 126.333H186.81L186.743 127.814H186.498V127.826ZM189.183 125.965C189.773 125.809 190.42 125.597 191.088 125.33L191.534 126.711C190.798 127.001 190.096 127.224 189.428 127.402L189.172 125.954L189.183 125.965ZM182.063 126.522C181.439 126.054 180.938 125.464 180.582 124.762L181.919 124.037C182.175 124.55 182.531 124.962 182.977 125.308L182.052 126.533L182.063 126.522ZM193.428 124.294C194.007 124.004 194.62 123.692 195.288 123.336L195.912 124.639C195.21 125.018 194.575 125.341 193.985 125.631L193.428 124.294ZM197.584 122.065L199.433 121.007L200.09 122.288L198.23 123.347L197.572 122.065H197.584ZM179.891 122.166C179.835 121.52 179.835 120.829 179.902 120.06L181.395 119.982C181.339 120.684 181.328 121.33 181.373 121.909L179.891 122.177V122.166ZM201.728 119.681C202.341 119.336 202.976 118.979 203.6 118.634L204.235 119.937C203.611 120.283 202.998 120.628 202.386 120.974L201.728 119.681ZM205.951 117.386C206.586 117.063 207.232 116.74 207.889 116.428L208.435 117.765C207.823 118.054 207.188 118.366 206.552 118.701L205.962 117.386H205.951ZM180.292 117.364C180.426 116.718 180.57 116.038 180.76 115.269L182.208 115.514C182.03 116.238 181.874 116.896 181.751 117.52L180.292 117.364ZM210.318 115.347C211.02 115.057 211.678 114.801 212.335 114.567L212.725 115.971C212.09 116.205 211.444 116.45 210.797 116.729L210.318 115.358V115.347ZM214.864 113.743C215.555 113.542 216.257 113.375 216.959 113.219L217.148 114.679C216.502 114.823 215.833 114.991 215.165 115.18L214.864 113.743ZM226.061 114.266C225.404 114.177 224.747 114.11 224.089 114.077L224.29 112.595C225.003 112.629 225.716 112.707 226.407 112.796L226.061 114.255V114.266ZM219.555 112.773C220.279 112.684 220.992 112.617 221.694 112.584L221.627 114.066C220.97 114.099 220.301 114.155 219.621 114.244L219.555 112.762V112.773ZM181.439 112.773L181.997 110.746L183.434 111.013L182.866 113.041L181.428 112.762L181.439 112.773ZM182.643 108.283C182.821 107.537 182.955 106.88 183.044 106.3L184.515 106.389C184.425 107.013 184.281 107.715 184.091 108.506L182.643 108.283ZM183.178 103.938C183.122 103.348 182.966 102.768 182.732 102.222L184.08 101.509C184.392 102.2 184.581 102.935 184.659 103.693L183.178 103.938ZM181.495 100.384C181.105 99.9607 180.637 99.5485 180.102 99.1474L181.038 97.933C181.64 98.3786 182.175 98.8577 182.632 99.348L181.495 100.384ZM178.119 97.933C177.562 97.6433 176.961 97.3759 176.348 97.1419L176.983 95.7604C177.674 96.0278 178.298 96.3175 178.888 96.6183L178.119 97.933Z" fill="#BE042F"/>
<path d="M229.359 114.957C229.047 114.868 228.769 114.79 228.523 114.734L228.991 113.297C229.292 113.375 229.593 113.453 229.894 113.542L229.37 114.957H229.359Z" fill="#BE042F"/>
</g>
<path d="M174.955 95.4262C175.033 94.5571 174.387 93.8441 173.507 93.8441C172.627 93.8441 171.858 94.5571 171.78 95.4262C171.702 96.3064 172.348 97.0083 173.228 97.0083C174.108 97.0083 174.877 96.2952 174.944 95.4262H174.955Z" fill="#E70000"/>
<path d="M233.225 114.612C233.359 113.041 232.2 111.76 230.618 111.76C229.036 111.76 227.654 113.041 227.51 114.612C227.376 116.194 228.535 117.464 230.117 117.464C231.699 117.464 233.08 116.183 233.225 114.612Z" fill="white"/>
<path d="M230.05 118.322C228 118.322 226.485 116.662 226.663 114.612C226.841 112.562 228.657 110.902 230.696 110.902C232.735 110.902 234.261 112.562 234.083 114.612C233.905 116.662 232.089 118.322 230.05 118.322ZM230.551 112.607C229.448 112.607 228.479 113.509 228.379 114.601C228.278 115.704 229.103 116.595 230.206 116.595C231.309 116.595 232.278 115.704 232.379 114.601C232.479 113.498 231.654 112.607 230.551 112.607Z" fill="url(#paint7_linear_139_1083)"/>
<path d="M200.313 122.611C200.391 121.731 199.745 121.029 198.865 121.029C197.985 121.029 197.216 121.742 197.138 122.611C197.06 123.492 197.706 124.193 198.586 124.193C199.467 124.193 200.235 123.492 200.313 122.611Z" fill="#E70000"/>
<path d="M184.537 111.448C184.615 110.567 183.969 109.865 183.089 109.865C182.208 109.865 181.44 110.578 181.373 111.448C181.295 112.328 181.941 113.03 182.821 113.03C183.701 113.03 184.47 112.317 184.548 111.448H184.537Z" fill="#E70000"/>
<path d="M217.449 113.843C217.527 112.963 216.881 112.261 216 112.261C215.12 112.261 214.352 112.974 214.274 113.843C214.196 114.723 214.842 115.425 215.722 115.425C216.602 115.425 217.371 114.712 217.438 113.843H217.449Z" fill="#E70000"/>
<path d="M150.299 205.905C149.575 205.883 148.873 205.961 148.205 206.128C148.271 205.761 148.316 205.382 148.327 205.003C148.494 200.446 144.929 196.625 140.372 196.469C138.266 196.391 136.328 197.115 134.824 198.363C133.119 194.051 128.985 190.92 124.039 190.753C117.387 190.519 111.805 195.722 111.571 202.374C111.56 202.786 111.571 203.198 111.594 203.599C110.446 202.964 109.142 202.574 107.739 202.518C103.003 202.351 99.037 206.05 98.8699 210.785C98.7028 215.521 102.402 219.487 107.137 219.654L150.522 221.203V221.169C154.399 220.924 157.53 217.782 157.675 213.816C157.82 209.604 154.533 206.061 150.31 205.917L150.299 205.905Z" fill="#B4F1E6"/>
<path d="M144.316 205.716C143.592 205.716 142.89 205.828 142.233 206.017C142.288 205.65 142.322 205.271 142.322 204.892C142.322 200.335 138.634 196.647 134.077 196.647C131.971 196.647 130.055 197.438 128.596 198.742C126.735 194.486 122.49 191.511 117.554 191.511C110.903 191.511 105.499 196.903 105.499 203.566C105.499 203.978 105.521 204.391 105.566 204.792C104.396 204.19 103.07 203.845 101.666 203.845C96.9313 203.845 93.0875 207.688 93.0875 212.424C93.0875 217.159 96.9313 221.003 101.666 221.003H145.085V220.969C148.951 220.59 151.97 217.337 151.97 213.371C151.97 209.159 148.55 205.739 144.338 205.739L144.316 205.716Z" fill="url(#paint8_linear_139_1083)"/>
<path d="M62.0471 205.003C61.2783 204.981 60.5318 205.059 59.8299 205.237C59.8968 204.848 59.9525 204.446 59.9636 204.045C60.1307 199.221 56.3649 195.177 51.5406 195.01C49.3123 194.932 47.2511 195.7 45.669 197.015C43.8641 192.447 39.4855 189.138 34.2601 188.949C27.2187 188.704 21.3026 194.207 21.0574 201.249C21.0463 201.683 21.0574 202.118 21.0797 202.552C19.8653 201.873 18.4838 201.461 16.9908 201.405C11.9771 201.227 7.77677 205.148 7.5985 210.151C7.42024 215.165 11.342 219.365 16.3446 219.543L62.281 221.181V221.136C66.3811 220.88 69.7013 217.549 69.8461 213.36C70.0021 208.903 66.5148 205.148 62.0582 204.992L62.0471 205.003Z" fill="#B4F1E6"/>
<path d="M54.248 204.803C53.4793 204.803 52.7439 204.914 52.042 205.115C52.0977 204.725 52.1311 204.324 52.1311 203.923C52.1311 199.099 48.2205 195.188 43.3962 195.188C41.1679 195.188 39.1401 196.035 37.5915 197.405C35.6194 192.904 31.1294 189.751 25.8929 189.751C18.8403 189.751 13.1358 195.466 13.1358 202.508C13.1358 202.942 13.1581 203.377 13.2027 203.811C11.966 203.176 10.5622 202.809 9.08033 202.809C4.06665 202.809 0 206.875 0 211.889C0 216.903 4.06665 220.969 9.08033 220.969H55.0502V220.925C59.1392 220.524 62.3368 217.081 62.3368 212.881C62.3368 208.413 58.7158 204.792 54.248 204.792V204.803Z" fill="#B4F1E6"/>
<path d="M81.957 186.764L64.8214 186.653L70.3141 111.559L76.921 111.637L81.957 186.764Z" fill="#B4F1E6"/>
<path d="M133.787 208.502C133.186 208.479 132.606 208.546 132.049 208.691C132.105 208.39 132.138 208.078 132.15 207.755C132.283 203.978 129.331 200.803 125.554 200.669C123.805 200.602 122.2 201.215 120.952 202.24C119.537 198.664 116.106 196.068 112.006 195.923C106.491 195.722 101.856 200.045 101.655 205.56C101.644 205.906 101.655 206.24 101.666 206.585C100.719 206.051 99.6275 205.727 98.4687 205.694C94.5469 205.56 91.249 208.624 91.1042 212.546C90.9594 216.468 94.0344 219.766 97.9562 219.91L133.954 221.192V221.158C137.174 220.958 139.77 218.351 139.882 215.064C140.004 211.566 137.275 208.635 133.776 208.513L133.787 208.502Z" fill="#B4F1E6"/>
<path d="M128.818 208.357C128.217 208.357 127.637 208.446 127.08 208.602C127.125 208.29 127.147 207.978 127.147 207.666C127.147 203.889 124.083 200.825 120.306 200.825C118.557 200.825 116.975 201.483 115.76 202.563C114.212 199.031 110.691 196.569 106.602 196.569C101.076 196.569 96.6081 201.048 96.6081 206.563C96.6081 206.908 96.6304 207.243 96.6638 207.588C95.6945 207.087 94.5915 206.808 93.4328 206.808C89.4998 206.808 86.3134 209.995 86.3134 213.916C86.3134 217.838 89.4998 221.036 93.4328 221.036H129.453V221.002C132.662 220.691 135.169 217.983 135.169 214.696C135.169 211.198 132.328 208.357 128.829 208.357H128.818Z" fill="url(#paint9_linear_139_1083)"/>
<path d="M70.9047 208.58C70.3031 208.557 69.7237 208.624 69.1778 208.769C69.2335 208.468 69.2669 208.156 69.278 207.844C69.4117 204.09 66.4704 200.937 62.7157 200.803C60.9776 200.747 59.3732 201.338 58.1365 202.374C56.7216 198.809 53.3123 196.235 49.2456 196.09C43.7528 195.901 39.1514 200.19 38.9508 205.672C38.9397 206.017 38.9508 206.351 38.962 206.686C38.015 206.162 36.9342 205.839 35.7755 205.794C31.876 205.661 28.5892 208.702 28.4555 212.613C28.3218 216.512 31.3635 219.799 35.2741 219.933L71.0607 221.203V221.17C74.2583 220.969 76.8431 218.373 76.9546 215.109C77.0771 211.633 74.3586 208.713 70.8824 208.591L70.9047 208.58Z" fill="#F6E9EA"/>
<path d="M65.9578 208.424C65.3562 208.424 64.788 208.513 64.2309 208.669C64.2754 208.368 64.2977 208.056 64.2977 207.733C64.2977 203.979 61.2561 200.926 57.4903 200.926C55.7522 200.926 54.1701 201.583 52.9668 202.653C51.4293 199.143 47.9309 196.692 43.8531 196.692C38.3603 196.692 33.9148 201.149 33.9148 206.63C33.9148 206.976 33.9371 207.31 33.9705 207.644C33.0012 207.154 31.9205 206.864 30.7618 206.864C26.8511 206.864 23.6869 210.028 23.6869 213.939C23.6869 217.85 26.8511 221.014 30.7618 221.014H66.5817V220.98C69.7682 220.668 72.2639 217.983 72.2639 214.708C72.2639 211.232 69.4451 208.413 65.969 208.413L65.9578 208.424Z" fill="url(#paint10_linear_139_1083)"/>
<path d="M110.992 199.499C109.989 199.466 109.02 199.577 108.095 199.811C108.184 199.287 108.251 198.752 108.273 198.218C108.496 191.756 103.582 186.33 97.3098 186.107C94.413 186.007 91.7279 187.032 89.6556 188.803C87.2936 182.675 81.6003 178.252 74.7928 177.996C65.6234 177.662 57.9134 185.037 57.5903 194.474C57.568 195.065 57.5792 195.644 57.6126 196.223C56.0305 195.31 54.2256 194.764 52.287 194.686C45.7581 194.452 40.2764 199.7 40.0536 206.418C39.8196 213.136 44.9224 218.774 51.4514 219.008L111.281 221.203V221.147C116.629 220.801 120.952 216.345 121.142 210.718C121.353 204.735 116.807 199.722 110.992 199.51V199.499Z" fill="url(#paint11_linear_139_1083)"/>
<path d="M104.463 199.231C103.46 199.231 102.502 199.387 101.577 199.655C101.644 199.131 101.7 198.596 101.7 198.05C101.7 191.588 96.608 186.341 90.3242 186.341C87.4162 186.341 84.7757 187.466 82.7702 189.315C80.2077 183.277 74.3472 179.065 67.5398 179.065C58.3592 179.065 50.9166 186.719 50.9166 196.167C50.9166 196.758 50.9501 197.337 51.0058 197.905C49.3903 197.059 47.5742 196.568 45.6356 196.568C39.1066 196.568 33.8144 202.017 33.8144 208.735C33.8144 215.453 39.1066 220.901 45.6356 220.901H105.51V220.846C110.836 220.311 115.003 215.687 115.003 210.061C115.003 204.078 110.29 199.231 104.474 199.231H104.463Z" fill="#B4F1E6"/>
<path d="M80.1073 115.292H66.9491C64.4869 115.292 62.6597 112.986 63.2279 110.591L64.5871 104.853C64.9994 103.126 66.5369 101.912 68.3084 101.912H78.7591C80.5306 101.912 82.0682 103.137 82.4804 104.853L83.8285 110.591C84.3967 112.986 82.5695 115.292 80.1073 115.292Z" fill="#47010C"/>
<path d="M84.7088 60.944L106.892 83.9734C107.605 84.7199 108.095 85.6447 108.307 86.6586L114.724 117.242C115.014 118.612 113.409 119.571 112.34 118.668L95.115 104.106C94.7696 103.816 94.3574 103.638 93.9117 103.594L83.0153 102.858C82.4248 102.691 81.968 102.179 81.8789 101.544L83.6615 61.5456C83.539 60.6766 84.0069 60.4092 84.6977 60.9552L84.7088 60.944Z" fill="#47010C"/>
<path d="M62.4258 60.944L40.243 83.9734C39.5299 84.7199 39.0397 85.6447 38.828 86.6586L32.4105 117.242C32.1208 118.612 33.7252 119.571 34.7948 118.668L52.0196 104.106C52.365 103.816 52.7772 103.638 53.2229 103.594L64.1193 102.858C64.7098 102.691 65.1666 102.19 65.2557 101.544L63.4842 61.5456C63.6067 60.6766 63.1388 60.4092 62.448 60.9552L62.4258 60.944Z" fill="#47010C"/>
<path d="M98.1343 57.2674C98.1343 86.3801 87.0708 109.978 73.4558 109.967C59.8298 109.967 48.7997 86.3578 48.8108 57.2451C48.8108 42.4603 51.663 27.9096 56.2645 17.1804C56.2088 17.3363 56.1753 17.5035 56.1753 17.6706C56.1753 20.3445 63.9187 22.5059 73.4781 22.5059C83.0375 22.5059 90.7809 20.3445 90.7809 17.6706C90.7809 17.4812 90.7363 17.3029 90.6695 17.1246C90.6695 17.1246 90.6806 17.1246 90.6918 17.1246C95.2932 27.865 98.1566 42.4492 98.1454 57.2674H98.1343Z" fill="url(#paint12_linear_139_1083)"/>
<path d="M90.7809 17.6703C90.7809 20.3443 83.0375 22.5057 73.4781 22.5057C63.9187 22.5057 56.1754 20.3443 56.1754 17.6703C56.1754 14.9964 63.9187 12.8349 73.4781 12.8349C83.0375 12.8349 90.7809 14.9964 90.7809 17.6703Z" fill="#FD9A9F"/>
<path d="M90.6694 17.1244C91.9173 20.8791 79.9513 22.4835 73.4892 22.4946C67.0272 22.5058 55.1949 20.9906 56.2867 17.1802C60.7099 6.80747 66.7709 0.0111552 73.4558 1.37229e-05C80.1407 -0.0111278 86.224 6.76285 90.6806 17.1244H90.6694Z" fill="url(#paint13_linear_139_1083)"/>
<path d="M150.622 136.984C151.87 133.162 137.52 120.004 137.52 120.004C132.718 123.492 122.757 127.926 125.643 138.923C128.506 149.808 150.578 174.397 150.578 174.397C150.578 174.397 157.719 170.899 158.432 166.442C159.146 161.985 149.374 140.794 150.622 136.973V136.984Z" fill="#80041D"/>
<path d="M99.1929 217.281C97.5663 216.946 96.3184 215.286 96.519 214.228C97.0426 211.42 102.569 208.423 105.31 206.473L100.842 201.393C96.8532 203.955 95.4271 208.334 89.1656 211.019C84.7089 212.924 86.7367 215.186 86.7367 215.186L94.3798 220.623C94.8254 220.935 95.3491 221.102 95.895 221.102H102.847C103.304 221.102 103.627 220.668 103.494 220.233C103.226 219.32 102.301 217.938 99.1818 217.292L99.1929 217.281Z" fill="#FD9A9F"/>
<path d="M99.1929 217.281C97.5662 216.947 96.3184 215.286 96.5189 214.228C96.5858 213.871 96.7306 213.504 96.9535 213.147C93.5107 212.323 92.1515 210.562 91.6724 209.705C90.9259 210.173 90.1126 210.607 89.1767 211.008C84.7201 212.913 86.7478 215.175 86.7478 215.175L94.3909 220.612C94.8366 220.924 95.3602 221.091 95.9062 221.091H102.858C103.315 221.091 103.638 220.657 103.505 220.222C103.237 219.309 102.313 217.927 99.1929 217.281Z" fill="#80041D"/>
<path d="M159.569 216.701C150.221 214.373 152.605 208.312 153.586 201.95L146.21 201.259C146.945 206.529 146.321 208.724 145.776 216.178C145.397 221.47 146.901 220.991 146.901 220.991L164.917 221.214C164.917 221.214 164.972 218.049 159.569 216.701Z" fill="#FD9A9F"/>
<path d="M159.613 216.568C157.998 216.111 155.045 214.974 153.92 213.504C153.586 213.047 152.817 214.974 152.226 215.598C151.057 216.857 146.912 216.044 145.831 215.164C145.831 215.531 145.809 215.832 145.776 216.178C145.397 221.47 146.901 220.991 146.901 220.991L164.917 221.214C164.917 221.214 165.229 218.138 159.602 216.568H159.613Z" fill="#80041D"/>
<path d="M145.62 167.166C145.218 171.289 145.519 207.465 145.519 207.465C149.096 209.036 153.541 207.554 153.541 207.554C154.076 203.242 158.443 166.453 158.443 166.453C158.443 166.453 146.032 163.055 145.631 167.166H145.62Z" fill="#80041D"/>
<path d="M125.71 175.088C122.3 177.851 97.5996 203.755 97.5996 203.755C98.4909 207.543 102.246 209.694 102.246 209.694C105.878 206.897 136.016 184.737 136.016 184.737C136.016 184.737 129.13 172.314 125.71 175.077V175.088Z" fill="#E70000"/>
<path d="M144.684 151.401C149.252 130.934 143.525 125.374 143.525 125.374C137.609 125.876 126.712 124.093 123.582 136.115C120.484 148.014 127.225 187.065 127.225 187.065C127.225 187.065 133.798 187.923 136.695 184.134C139.592 180.346 143.781 155.467 144.684 151.401Z" fill="#E70000"/>
<path d="M178.654 131.97C175.267 132.081 173.93 135.246 171.067 134.098C168.203 132.951 166.9 133.062 166.956 130.711C167.011 128.36 168.917 128.483 172.76 128.36C176.515 128.238 183.69 131.814 178.654 131.981V131.97Z" fill="#FD9A9F"/>
<path d="M139.926 85.945C141.987 84.218 144.661 83.8615 148.216 88.8529C151.491 93.4655 156.26 108.729 157.964 112.618C159.546 116.25 154.154 122.3 148.684 116.361C143.202 110.423 141.208 103.203 139.391 96.8191C137.575 90.435 137.709 87.8167 139.937 85.9338L139.926 85.945Z" fill="#80041D"/>
<path d="M148.193 116.473C151.859 121.007 157.151 125.007 165.808 132.851C165.808 132.851 169.919 130.578 170.71 127.124C170.71 127.124 157.441 112.74 155.691 111.147C153.942 109.554 144.383 111.771 148.193 116.484V116.473Z" fill="#80041D"/>
<path d="M154.733 77.2328C154.733 77.2328 152.427 77.6339 152.193 79.3385C151.959 81.0543 153.04 82.6364 153.04 82.6364C153.04 82.6364 148.149 84.1627 143.67 82.6475C143.67 82.6475 145.709 78.1464 145.553 73.4447C145.386 68.743 154.744 77.2216 154.744 77.2216L154.733 77.2328Z" fill="#FD9A9F"/>
<path d="M149.92 80.5639C149.853 78.3467 151.558 76.6421 153.597 76.241C151.112 74.1575 145.419 69.7678 145.542 73.4445C145.709 78.1462 143.659 82.6473 143.659 82.6473C145.865 83.3938 148.171 83.3938 149.942 83.2155C149.92 82.3354 149.942 81.444 149.909 80.5639H149.92Z" fill="#FD9A9F"/>
<path d="M158.889 62.3472C158.889 62.3472 159.346 65.4669 159.09 68.0183C158.833 70.5697 159.758 73.9678 157.285 76.8423C154.8 79.7168 149.207 76.4635 147.937 72.9539C146.667 69.4444 147.826 66.7147 149.642 65.1214C151.458 63.5282 158.889 62.3472 158.889 62.3472Z" fill="#FD9A9F"/>
<path d="M154.778 73.3327C154.834 72.0737 156.371 62.8151 156.371 62.8151C154.043 63.3054 150.767 64.1298 149.642 65.1214C147.826 66.7147 146.656 69.4444 147.937 72.9539C149.14 76.2741 154.221 79.3603 156.861 77.2434C155.569 76.4189 154.722 74.8925 154.778 73.3439V73.3327Z" fill="#FD9A9F"/>
<path d="M156.137 64.4417C156.137 64.4417 155.146 65.3887 154.7 67.6059C154.254 69.823 153.842 71.0263 153.096 69.5556C152.349 68.0738 152.16 65.723 150.232 67.1268C148.951 68.0515 148.962 69.901 149.352 70.9149C149.731 71.9288 148.438 74.1459 145.809 73.2769C143.18 72.419 141.486 65.2885 141.486 65.2885C141.486 65.2885 153.563 61.6007 156.148 64.4529L156.137 64.4417Z" fill="#80041D"/>
<path d="M157.396 55.4953C157.396 55.4953 160.928 56.3977 161.24 59.4059C161.519 62.0687 160.059 64.6647 155.324 64.4196C150.6 64.1745 150.254 67.127 147.759 67.8957C145.263 68.6645 142.745 67.9069 141.553 65.4335C140.327 62.871 140.728 59.7513 143.815 57.2445C146.901 54.7376 157.095 51.1836 157.396 55.4842V55.4953Z" fill="#80041D"/>
<path d="M160.17 91.7716C160.126 92.3064 160.07 92.8412 160.026 93.3871C159.491 99.6041 159.023 106.49 156.471 112.495C156.226 113.085 156.037 113.843 155.914 114.723C155.892 114.879 155.87 115.035 155.848 115.191C155.848 115.224 155.847 115.258 155.836 115.28C155.758 115.926 155.703 116.617 155.669 117.352C155.29 124.516 153.552 136.182 152.293 136.616C149.419 137.619 140.784 137.296 133.709 136.349C133.197 136.282 132.684 136.204 132.183 136.126C132.049 136.104 131.927 136.081 131.793 136.059C131.592 136.026 131.392 135.992 131.191 135.959C131.046 135.936 130.902 135.914 130.768 135.881C130.59 135.847 130.423 135.814 130.244 135.78C130.01 135.736 129.787 135.691 129.554 135.647H129.531C129.386 135.613 129.23 135.591 129.086 135.558C128.874 135.513 128.662 135.469 128.462 135.413C128.373 135.391 128.295 135.368 128.205 135.357C126.534 134.956 125.164 134.488 124.306 133.976C124.284 133.953 124.25 133.942 124.228 133.92C124.105 133.842 123.994 133.764 123.894 133.686C123.849 133.652 123.805 133.619 123.771 133.586C123.66 133.474 123.559 133.374 123.481 133.263C123.459 133.229 123.437 133.184 123.415 133.151C123.392 133.106 123.37 133.062 123.359 133.017C123.359 133.017 123.359 133.017 123.359 133.006C123.337 132.962 123.337 132.917 123.325 132.873C122.746 129.396 131.002 95.0695 132.807 90.6352C134.589 86.2343 137.353 83.1481 139.28 82.513C139.336 82.4907 139.403 82.4796 139.481 82.4573C139.559 82.4462 139.637 82.4239 139.726 82.4128C139.859 82.3905 140.015 82.3682 140.183 82.3348C140.695 82.2679 141.352 82.2122 142.099 82.1676C142.177 82.1676 142.266 82.1676 142.355 82.1565C142.444 82.1565 142.522 82.1565 142.611 82.1454C142.823 82.1454 143.046 82.1231 143.269 82.1231C143.425 82.1231 143.57 82.1231 143.726 82.1119C143.759 82.1119 143.792 82.1119 143.815 82.1119C147.803 82.0117 153.252 82.1899 156.171 82.6022C156.349 82.6244 156.538 82.669 156.717 82.7359C158.9 83.5269 160.583 87.1256 160.159 91.7605L160.17 91.7716Z" fill="url(#paint14_linear_139_1083)"/>
<path d="M156.717 82.7472C156.26 83.1149 154.912 84.0062 151.558 84.463C148.494 84.8752 144.316 83.6831 142.366 85.1315C140.283 86.669 135.704 87.8945 129.531 106.88C128.64 109.609 127.336 124.45 127.203 127.313C126.991 132.048 129.854 135.034 133.698 136.349C133.186 136.282 132.673 136.204 132.172 136.126C132.049 136.104 131.916 136.081 131.782 136.07C131.581 136.037 131.381 136.004 131.18 135.97C131.035 135.948 130.891 135.926 130.757 135.892C130.579 135.859 130.411 135.825 130.233 135.792C129.999 135.747 129.765 135.703 129.542 135.658C129.542 135.658 129.531 135.658 129.52 135.658C129.375 135.625 129.219 135.602 129.074 135.569C128.863 135.524 128.662 135.48 128.451 135.424C128.361 135.402 128.283 135.38 128.194 135.368C126.523 134.967 125.153 134.499 124.295 133.987C124.272 133.976 124.239 133.953 124.217 133.942C124.094 133.864 123.983 133.786 123.883 133.708C123.838 133.675 123.793 133.642 123.76 133.608C123.649 133.508 123.548 133.396 123.47 133.285C123.448 133.252 123.426 133.207 123.403 133.174C123.381 133.129 123.359 133.084 123.348 133.04C123.348 133.04 123.348 133.04 123.348 133.029C123.325 132.984 123.325 132.94 123.314 132.895C122.735 129.43 130.991 95.0919 132.785 90.6576C134.567 86.2568 137.33 83.1817 139.258 82.5355C139.314 82.5132 139.38 82.5021 139.458 82.4798C139.536 82.4687 139.614 82.4464 139.703 82.4352C139.837 82.4129 139.993 82.3907 140.16 82.3573C140.673 82.2904 141.319 82.2347 142.077 82.1901C142.155 82.1901 142.244 82.1901 142.333 82.179C142.422 82.179 142.511 82.179 142.589 82.1678C142.801 82.1678 143.024 82.1456 143.246 82.1456C143.402 82.1456 143.547 82.1456 143.703 82.1344C143.737 82.1344 143.759 82.1344 143.792 82.1344C147.781 82.0342 153.229 82.2124 156.148 82.6247C156.338 82.647 156.516 82.6915 156.694 82.7584L156.717 82.7472Z" fill="#80041D"/>
<path d="M154.21 82.3015C152.672 81.5884 151.391 82.2124 149.954 80.9311C147.38 78.6471 143.848 78.9814 143.848 78.9814L140.183 82.9254C140.183 82.9254 149.152 86.0674 154.21 82.2904V82.3015Z" fill="url(#paint15_linear_139_1083)"/>
<path d="M160.026 93.3871C159.491 99.604 159.023 106.489 156.472 112.495C156.226 113.085 156.037 113.843 155.914 114.723C157.363 103.08 154.956 91.9499 154.956 91.9499C154.956 91.9499 158.165 92.117 160.026 93.3871Z" fill="#80041D"/>
<path d="M194.375 90.9032C197.506 90.0676 200.77 90.6693 201.193 88.1959C201.561 86.0456 200.659 84.5749 199.355 83.2602C199.121 83.0262 203.756 79.862 203.132 79.2715C202.274 78.4582 197.851 82.2574 197.338 82.4691C196.224 82.9259 194.765 84.4523 193.094 86.3575C190.665 89.1317 176.504 97.2761 172.459 100.819C168.449 104.34 170.643 111.17 173.652 109.164C178.108 106.212 191.233 91.75 194.364 90.9144L194.375 90.9032Z" fill="#FD9A9F"/>
<path d="M153.196 83.4493C155.257 81.7335 159.201 82.3797 163.457 86.101C167.713 89.8222 174.688 99.5933 177.195 103.014C179.534 106.211 175.613 113.297 168.961 108.718C162.31 104.139 156.783 98.0558 153.307 92.3959C149.753 86.5912 152.249 84.2292 153.185 83.4493H153.196Z" fill="url(#paint16_linear_139_1083)"/>
<path d="M175.434 109.409C180.359 106.289 187.066 99.8159 195.834 92.1172C195.834 92.1172 194.041 87.772 190.709 86.5799C190.709 86.5799 172.783 99.7937 170.989 101.342C169.195 102.902 170.309 112.651 175.434 109.409Z" fill="url(#paint17_linear_139_1083)"/>
<path d="M155.669 117.364C155.669 116.863 155.714 116.172 155.836 115.292C155.758 115.938 155.703 116.629 155.669 117.364Z" fill="#47010C"/>
<path d="M69.1553 94.4914C69.1553 94.9259 69.2444 95.3159 69.4116 95.6502C69.5787 95.9844 69.8238 96.2741 70.1469 96.4969C70.47 96.7309 70.8488 96.898 71.3056 97.0205C71.7624 97.1431 72.2638 97.1988 72.832 97.1988C73.5896 97.1988 74.247 97.1097 74.7818 96.9091C75.3166 96.7197 75.7288 96.43 76.0185 96.0289C76.3082 95.6278 76.4419 95.1153 76.4419 94.4914C76.4419 94.0569 76.3973 93.6112 76.297 93.1767C76.1967 92.7422 76.063 92.2631 75.8736 91.7395H77.79C77.9905 92.2186 78.1242 92.6865 78.2134 93.1433C78.3025 93.6001 78.3471 94.1237 78.3471 94.7031C78.3471 95.8172 78.1131 96.7309 77.6563 97.4439C77.1995 98.157 76.5533 98.6918 75.7177 99.0371C74.8932 99.3825 73.9239 99.5497 72.8097 99.5497C71.9964 99.5497 71.2499 99.4383 70.5703 99.2154C69.8906 98.9926 69.3001 98.6694 68.8099 98.2461C68.3085 97.8227 67.9297 97.2879 67.6623 96.664C67.3949 96.0401 67.2612 95.3159 67.2612 94.4914C67.2612 93.9566 67.3281 93.4219 67.4618 92.8759C67.5955 92.33 67.7849 91.8175 68.0189 91.3273L69.8795 92.0626C69.6901 92.4637 69.523 92.8759 69.3781 93.277C69.2333 93.6892 69.1664 94.0904 69.1664 94.4803L69.1553 94.4914Z" fill="white"/>
<path d="M67.4061 86.2911C67.4061 85.3107 67.5287 84.5085 67.7627 83.8623C67.9966 83.2272 68.3532 82.7481 68.8322 82.4473C69.3113 82.1465 69.913 81.9794 70.6372 81.9794C71.1274 81.9794 71.5619 82.0685 71.9296 82.2579C72.2972 82.4473 72.6092 82.6924 72.8655 82.9932C73.1217 83.294 73.3334 83.6283 73.4894 83.9848L78.1911 80.8095V83.3497L74.0465 85.9234V87.1379H78.1911V89.4219H67.4061V86.28V86.2911ZM69.2779 86.4583V87.149H72.197V86.4137C72.197 85.656 72.0744 85.1101 71.8182 84.787C71.5619 84.4639 71.1942 84.2968 70.704 84.2968C70.2138 84.2968 69.8238 84.475 69.6121 84.8204C69.4005 85.1658 69.289 85.7118 69.289 86.4583H69.2779Z" fill="white"/>
<path d="M78.1911 73.2443V79.4612H67.4061V73.2443H69.2779V77.1661H71.651V73.5117H73.5228V77.1661H76.3082V73.2443H78.2022H78.1911Z" fill="white"/>
<path d="M78.1911 64.3982L75.6286 65.1781V69.1111L78.1911 69.891V72.3532L67.3616 68.5428V65.7463L78.1911 61.9248V64.3871V64.3982ZM73.7011 65.724L71.1943 66.5039C71.0271 66.5485 70.8155 66.6153 70.5481 66.7045C70.2807 66.7825 70.0133 66.8716 69.7459 66.9496C69.4673 67.0276 69.2334 67.0944 69.0328 67.139C69.2334 67.1836 69.4896 67.2615 69.7793 67.3395C70.069 67.4175 70.3587 67.5067 70.626 67.5847C70.8934 67.6627 71.0829 67.7183 71.1943 67.7518L73.7011 68.5317V65.724Z" fill="white"/>
<path d="M78.1911 56.4092V58.6932H69.3113V61.6234H67.4061V53.479H69.3113V56.4092H78.1911Z" fill="white"/>
<path d="M72.7874 42.0263C73.6231 42.0263 74.3695 42.1265 75.0603 42.3382C75.7399 42.5499 76.3304 42.8619 76.8207 43.2741C77.3109 43.6975 77.6897 44.2323 77.9571 44.8673C78.2245 45.5135 78.3471 46.2711 78.3471 47.1513C78.3471 48.0315 78.2134 48.7891 77.9571 49.4353C77.6897 50.0815 77.3109 50.6164 76.8207 51.0286C76.3304 51.452 75.7399 51.7639 75.0603 51.9645C74.3807 52.165 73.6119 52.2764 72.7763 52.2764C71.6622 52.2764 70.6817 52.0981 69.8572 51.7305C69.0328 51.3628 68.3865 50.7946 67.9297 50.037C67.4729 49.2794 67.239 48.3101 67.239 47.1291C67.239 45.9481 67.4729 44.9899 67.9297 44.2434C68.3865 43.4969 69.0328 42.9287 69.8684 42.561C70.704 42.1934 71.6733 42.0151 72.7986 42.0151L72.7874 42.0263ZM72.7874 49.9033C73.5451 49.9033 74.1913 49.8142 74.7372 49.6248C75.2831 49.4354 75.6954 49.1345 75.9962 48.7334C76.2859 48.3323 76.4307 47.8087 76.4307 47.1736C76.4307 46.5386 76.2859 45.9927 75.9962 45.5916C75.7065 45.1905 75.2831 44.9007 74.7372 44.7113C74.1913 44.5219 73.5451 44.4328 72.7874 44.4328C71.651 44.4328 70.7708 44.6445 70.1135 45.0679C69.4673 45.4912 69.1442 46.182 69.1442 47.1513C69.1442 47.7975 69.289 48.3212 69.5787 48.7223C69.8684 49.1234 70.2917 49.4242 70.8377 49.6136C71.3836 49.803 72.0298 49.8922 72.7874 49.8922V49.9033Z" fill="white"/>
<path d="M67.4061 36.6447C67.4061 35.6642 67.5287 34.862 67.7627 34.2158C67.9966 33.5808 68.3532 33.1017 68.8322 32.8008C69.3113 32.5 69.913 32.3329 70.6372 32.3329C71.1274 32.3329 71.5619 32.4221 71.9296 32.6115C72.2972 32.8009 72.6092 33.0459 72.8655 33.3468C73.1217 33.6476 73.3334 33.9818 73.4894 34.3384L78.1911 31.1631V33.7033L74.0465 36.277V37.4914H78.1911V39.7754H67.4061V36.6335V36.6447ZM69.2779 36.8118V37.5026H72.197V36.7672C72.197 36.0096 72.0744 35.4637 71.8182 35.1406C71.5619 34.8175 71.1942 34.6504 70.704 34.6504C70.2138 34.6504 69.8238 34.8286 69.6121 35.174C69.4005 35.5194 69.289 36.0653 69.289 36.8118H69.2779Z" fill="white"/>
<defs>
<linearGradient id="paint0_linear_139_1083" x1="25.1687" y1="116.685" x2="243.565" y2="116.685" gradientUnits="userSpaceOnUse">
<stop stop-color="white"/>
<stop offset="1" stop-color="#B4F1E6"/>
</linearGradient>
<linearGradient id="paint1_linear_139_1083" x1="154.277" y1="42.8282" x2="224.034" y2="42.8282" gradientUnits="userSpaceOnUse">
<stop stop-color="white"/>
<stop offset="1" stop-color="#B4F1E6"/>
</linearGradient>
<linearGradient id="paint2_linear_139_1083" x1="-30.1932" y1="112.362" x2="388.137" y2="112.362" gradientUnits="userSpaceOnUse">
<stop stop-color="white"/>
<stop offset="1" stop-color="#B4F1E6"/>
</linearGradient>
<linearGradient id="paint3_linear_139_1083" x1="174.766" y1="67.4727" x2="206.708" y2="67.4727" gradientUnits="userSpaceOnUse">
<stop stop-color="#80041D"/>
<stop offset="1" stop-color="#E70000"/>
</linearGradient>
<linearGradient id="paint4_linear_139_1083" x1="202.887" y1="93.8445" x2="213.048" y2="93.8445" gradientUnits="userSpaceOnUse">
<stop stop-color="#80041D"/>
<stop offset="1" stop-color="#E70000"/>
</linearGradient>
<linearGradient id="paint5_linear_139_1083" x1="215.533" y1="93.911" x2="225.694" y2="93.911" gradientUnits="userSpaceOnUse">
<stop stop-color="#80041D"/>
<stop offset="1" stop-color="#E70000"/>
</linearGradient>
<linearGradient id="paint6_linear_139_1083" x1="228.167" y1="93.978" x2="238.328" y2="93.978" gradientUnits="userSpaceOnUse">
<stop stop-color="#80041D"/>
<stop offset="1" stop-color="#E70000"/>
</linearGradient>
<linearGradient id="paint7_linear_139_1083" x1="226.641" y1="114.612" x2="234.094" y2="114.612" gradientUnits="userSpaceOnUse">
<stop stop-color="#80041D"/>
<stop offset="1" stop-color="#E70000"/>
</linearGradient>
<linearGradient id="paint8_linear_139_1083" x1="122.055" y1="223.565" x2="124.172" y2="173.818" gradientUnits="userSpaceOnUse">
<stop stop-color="white"/>
<stop offset="1" stop-color="#B4F1E6"/>
</linearGradient>
<linearGradient id="paint9_linear_139_1083" x1="110.357" y1="223.064" x2="112.474" y2="173.317" gradientUnits="userSpaceOnUse">
<stop stop-color="white"/>
<stop offset="1" stop-color="#B4F1E6"/>
</linearGradient>
<linearGradient id="paint10_linear_139_1083" x1="47.7192" y1="220.401" x2="49.836" y2="170.654" gradientUnits="userSpaceOnUse">
<stop stop-color="white"/>
<stop offset="1" stop-color="#B4F1E6"/>
</linearGradient>
<linearGradient id="paint11_linear_139_1083" x1="80.0293" y1="221.771" x2="82.1462" y2="172.024" gradientUnits="userSpaceOnUse">
<stop stop-color="white"/>
<stop offset="1" stop-color="#B4F1E6"/>
</linearGradient>
<linearGradient id="paint12_linear_139_1083" x1="71.1941" y1="106.468" x2="75.4279" y2="15.0968" gradientUnits="userSpaceOnUse">
<stop stop-color="#BE042F"/>
<stop offset="1" stop-color="#47010C"/>
</linearGradient>
<linearGradient id="paint13_linear_139_1083" x1="56.2087" y1="11.2529" x2="90.7586" y2="11.2529" gradientUnits="userSpaceOnUse">
<stop stop-color="#80041D"/>
<stop offset="1" stop-color="#E70000"/>
</linearGradient>
<linearGradient id="paint14_linear_139_1083" x1="155.758" y1="142.599" x2="130.088" y2="83.3263" gradientUnits="userSpaceOnUse">
<stop stop-color="#80041D"/>
<stop offset="1" stop-color="#E70000"/>
</linearGradient>
<linearGradient id="paint15_linear_139_1083" x1="140.183" y1="81.5662" x2="154.21" y2="81.5662" gradientUnits="userSpaceOnUse">
<stop stop-color="white"/>
<stop offset="1" stop-color="#B4F1E6"/>
</linearGradient>
<linearGradient id="paint16_linear_139_1083" x1="180.091" y1="132.06" x2="154.422" y2="72.7869" gradientUnits="userSpaceOnUse">
<stop stop-color="#80041D"/>
<stop offset="1" stop-color="#E70000"/>
</linearGradient>
<linearGradient id="paint17_linear_139_1083" x1="194.531" y1="125.809" x2="168.861" y2="66.5363" gradientUnits="userSpaceOnUse">
<stop stop-color="#80041D"/>
<stop offset="1" stop-color="#E70000"/>
</linearGradient>
</defs>
</svg>
