<svg width="28" height="29" viewBox="0 0 28 29" fill="none" xmlns="http://www.w3.org/2000/svg">
<path d="M3.24509 13.7476L0.369609 10.8714C0.113021 10.6148 -0.00997169 10.3152 0.000631121 9.97262C0.0101736 9.62901 0.143239 9.32889 0.399827 9.07224L3.24509 6.22633C3.50168 5.96968 3.80121 5.84136 4.14368 5.84136C4.48615 5.84136 4.78568 5.96968 5.04227 6.22633L7.88753 9.07224C8.14518 9.32889 8.274 9.62849 8.274 9.97104C8.274 10.3136 8.14518 10.6137 7.88753 10.8714L5.04227 13.7157C4.78568 13.9734 4.48615 14.1071 4.14368 14.1166C3.80121 14.1262 3.50168 14.0031 3.24509 13.7476ZM11.8525 29C11.4877 29 11.1824 28.877 10.9364 28.6309C10.6904 28.3838 10.5674 28.0784 10.5674 27.7146V21.6887C9.16464 21.5795 7.77567 21.4295 6.40049 21.2386C5.0253 21.0487 3.65012 20.8037 2.27493 20.5036C2.02895 20.4389 1.82219 20.3148 1.65467 20.1314C1.48714 19.9479 1.44049 19.7379 1.51471 19.5014C1.58575 19.2649 1.72995 19.0915 1.94731 18.9812C2.1636 18.8709 2.39528 18.8481 2.64232 18.9128C4.51584 19.3434 6.40632 19.6483 8.31376 19.8275C10.2212 20.0078 12.1345 20.098 14.0536 20.098C15.9727 20.098 17.8865 20.0078 19.795 19.8275C21.7014 19.6483 23.5914 19.3434 25.4649 18.9128C25.7119 18.8481 25.9441 18.8699 26.1615 18.9781C26.3799 19.0862 26.5241 19.2559 26.5941 19.4871C26.6651 19.7331 26.6174 19.9479 26.4509 20.1314C26.2845 20.3148 26.0777 20.4389 25.8307 20.5036C24.4565 20.8037 23.0819 21.0487 21.7067 21.2386C20.3315 21.4284 18.9426 21.5785 17.5398 21.6887V27.7146C17.5398 28.0784 17.4168 28.3838 17.1708 28.6309C16.9248 28.878 16.6195 29.0011 16.2547 29H11.8525ZM4.14368 12.424L6.56589 9.97422L4.14527 7.54986L1.69125 9.97262L4.14368 12.424ZM14.0536 7.34306C13.0347 7.34306 12.1684 6.98619 11.4548 6.27246C10.7402 5.55873 10.3829 4.69175 10.3829 3.67153C10.3829 2.65131 10.7402 1.78433 11.4548 1.0706C12.1695 0.356866 13.0357 0 14.0536 0C15.0715 0 15.9382 0.356866 16.6539 1.0706C17.3696 1.78433 17.7264 2.65131 17.7243 3.67153C17.7222 4.69175 17.3649 5.55873 16.6523 6.27246C15.9398 6.98619 15.0736 7.34412 14.0536 7.34306ZM14.0536 17.5288C13.3135 17.5288 12.68 17.2648 12.153 16.7366C11.6261 16.2096 11.3626 15.5759 11.3626 14.8357C11.3626 14.0954 11.6261 13.4617 12.153 12.9347C12.68 12.4076 13.3135 12.144 14.0536 12.144C14.7937 12.144 15.4272 12.4076 15.9541 12.9347C16.4811 13.4617 16.7446 14.0954 16.7446 14.8357C16.7446 15.5759 16.4811 16.2096 15.9541 16.7366C15.4272 17.2637 14.7937 17.5283 14.0536 17.5304M14.0536 5.75228C14.6261 5.75228 15.116 5.54865 15.5231 5.14141C15.9303 4.73417 16.1339 4.24421 16.1339 3.67153C16.1339 3.09885 15.9303 2.60889 15.5231 2.20164C15.116 1.7944 14.6261 1.59025 14.0536 1.58919C13.481 1.58813 12.9912 1.79175 12.584 2.20005C12.1769 2.60836 11.9733 3.09832 11.9733 3.66994C11.9733 4.24156 12.1769 4.73152 12.584 5.13982C12.9912 5.54812 13.481 5.75334 14.0536 5.75228ZM21.6176 13.7953L20.2467 11.4091C20.1343 11.2182 20.0781 11.0061 20.0781 10.7728C20.0781 10.5395 20.1343 10.3237 20.2467 10.1253L21.6176 7.73916C21.729 7.53448 21.8822 7.37647 22.0773 7.26511C22.2724 7.15376 22.4881 7.09755 22.7246 7.09649H25.3551C25.5926 7.09649 25.8084 7.1527 26.0024 7.26511C26.1965 7.37753 26.3497 7.53554 26.4621 7.73916L27.833 10.1253C27.9443 10.3162 28 10.5283 28 10.7617C28 10.995 27.9443 11.2108 27.833 11.4091L26.4621 13.7953C26.3497 14 26.1965 14.1585 26.0024 14.2709C25.8084 14.3833 25.5926 14.439 25.3551 14.438H22.7246C22.4871 14.438 22.2713 14.3823 22.0773 14.2709C21.8822 14.1585 21.7284 14 21.616 13.7953M22.8852 12.8472H25.204L26.3539 10.768L25.1945 8.68727H22.8741L21.7242 10.768L22.8852 12.8472Z" fill="#BF0A30"/>
</svg>
