<svg width="30" height="27" viewBox="0 0 30 27" fill="none" xmlns="http://www.w3.org/2000/svg">
<path d="M5 6C4.73478 6 4.48043 6.10536 4.29289 6.29289C4.10536 6.48043 4 6.73478 4 7C4 7.26522 4.10536 7.51957 4.29289 7.70711C4.48043 7.89464 4.73478 8 5 8H23C23.2652 8 23.5196 7.89464 23.7071 7.70711C23.8946 7.51957 24 7.26522 24 7C24 6.73478 23.8946 6.48043 23.7071 6.29289C23.5196 6.10536 23.2652 6 23 6H5ZM4.5 10C4.36739 10 4.24021 10.0527 4.14645 10.1464C4.05268 10.2402 4 10.3674 4 10.5C4 10.6326 4.05268 10.7598 4.14645 10.8536C4.24021 10.9473 4.36739 11 4.5 11H23.5C23.6326 11 23.7598 10.9473 23.8536 10.8536C23.9473 10.7598 24 10.6326 24 10.5C24 10.3674 23.9473 10.2402 23.8536 10.1464C23.7598 10.0527 23.6326 10 23.5 10H4.5ZM18 13.5C18 13.3674 18.0527 13.2402 18.1464 13.1464C18.2402 13.0527 18.3674 13 18.5 13H23.5C23.6326 13 23.7598 13.0527 23.8536 13.1464C23.9473 13.2402 24 13.3674 24 13.5C24 13.6326 23.9473 13.7598 23.8536 13.8536C23.7598 13.9473 23.6326 14 23.5 14H18.5C18.3674 14 18.2402 13.9473 18.1464 13.8536C18.0527 13.7598 18 13.6326 18 13.5ZM18.5 16C18.3674 16 18.2402 16.0527 18.1464 16.1464C18.0527 16.2402 18 16.3674 18 16.5C18 16.6326 18.0527 16.7598 18.1464 16.8536C18.2402 16.9473 18.3674 17 18.5 17H23.5C23.6326 17 23.7598 16.9473 23.8536 16.8536C23.9473 16.7598 24 16.6326 24 16.5C24 16.3674 23.9473 16.2402 23.8536 16.1464C23.7598 16.0527 23.6326 16 23.5 16H18.5ZM18 19.5C18 19.3674 18.0527 19.2402 18.1464 19.1464C18.2402 19.0527 18.3674 19 18.5 19H23.5C23.6326 19 23.7598 19.0527 23.8536 19.1464C23.9473 19.2402 24 19.3674 24 19.5C24 19.6326 23.9473 19.7598 23.8536 19.8536C23.7598 19.9473 23.6326 20 23.5 20H18.5C18.3674 20 18.2402 19.9473 18.1464 19.8536C18.0527 19.7598 18 19.6326 18 19.5ZM18.5 22C18.3674 22 18.2402 22.0527 18.1464 22.1464C18.0527 22.2402 18 22.3674 18 22.5C18 22.6326 18.0527 22.7598 18.1464 22.8536C18.2402 22.9473 18.3674 23 18.5 23H23.5C23.6326 23 23.7598 22.9473 23.8536 22.8536C23.9473 22.7598 24 22.6326 24 22.5C24 22.3674 23.9473 22.2402 23.8536 22.1464C23.7598 22.0527 23.6326 22 23.5 22H18.5ZM4 15C4 14.4696 4.21071 13.9609 4.58579 13.5858C4.96086 13.2107 5.46957 13 6 13H14C14.5304 13 15.0391 13.2107 15.4142 13.5858C15.7893 13.9609 16 14.4696 16 15V21C16 21.5304 15.7893 22.0391 15.4142 22.4142C15.0391 22.7893 14.5304 23 14 23H6C5.46957 23 4.96086 22.7893 4.58579 22.4142C4.21071 22.0391 4 21.5304 4 21V15Z" fill="#BF0A30"/>
<path d="M7 0C6.46957 0 5.96086 0.210714 5.58579 0.585786C5.21071 0.960859 5 1.46957 5 2H2.962C1.252 2 0 3.418 0 5V23C0 25.134 1.683 27 3.923 27H28.017C28.5445 26.9955 29.0488 26.7828 29.4202 26.4082C29.7916 26.0336 30 25.5275 30 25V2C30 1.46957 29.7893 0.960859 29.4142 0.585786C29.0391 0.210714 28.5304 0 28 0H7ZM25.04 4C25.263 4.00308 25.4782 4.08293 25.6492 4.2261C25.8202 4.36926 25.9367 4.567 25.979 4.786C25.993 4.85467 26.0003 4.926 26.001 5V23C26.001 23.5304 26.2117 24.0391 26.5868 24.4142C26.9619 24.7893 27.4706 25 28.001 25H3.923C2.861 25 2 24.105 2 23V5C2 4.448 2.43 4 2.962 4H25.04Z" fill="#BF0A30"/>
</svg>
