<svg width="32" height="26" viewBox="0 0 32 26" fill="none" xmlns="http://www.w3.org/2000/svg">
<path d="M2.70216 8.32C2.56926 8.17518 2.40819 8.05996 2.22916 7.98163C2.05013 7.90331 1.85703 7.8636 1.6621 7.865C1.00606 7.865 0.510031 8.17375 0.190011 8.8075C-0.130008 9.44125 -0.0500033 10.0425 0.462028 10.6112C2.35014 12.3337 3.55022 13.5525 4.06225 14.2675C4.71829 15.1775 5.03831 16.51 5.03831 18.2325C5.03831 20.3612 5.83836 21.9375 7.43845 23.0263C8.33451 23.7413 9.31057 24.2775 10.3986 24.635V18.3138C10.3986 16.7863 9.8706 15.5188 8.86254 14.495M23.1354 14.5763C22.1433 15.5838 21.5993 16.835 21.5993 18.3138V24.7C23.1354 24.1475 24.4155 23.2862 25.4716 22.1487C26.5116 21.0112 27.0396 19.76 27.0396 18.2325C27.0396 16.3962 27.3437 15.08 27.9517 14.2675C28.0957 14.0075 28.3677 13.6825 28.7998 13.2762C29.1678 12.87 29.5518 12.48 29.9358 12.1225C30.3038 11.7812 30.6719 11.4238 31.0239 11.0663L31.5519 10.6112C31.695 10.4732 31.8086 10.3068 31.8856 10.1223C31.9627 9.93777 32.0016 9.73915 32 9.53875C32 9.08375 31.8559 8.6775 31.5519 8.3525C31.2479 8.0275 30.8799 7.865 30.3999 7.865C29.9198 7.865 29.5998 8.01125 29.2958 8.32M15.999 26C17.103 26 18.1751 25.8537 19.1992 25.545V19.7437C19.1992 18.785 18.9112 18.0375 18.2551 17.3225C17.5991 16.6075 16.847 16.25 15.999 16.25C15.1509 16.25 14.3989 16.575 13.7908 17.2412C13.1508 17.875 12.7988 18.6225 12.7988 19.5975V25.545C13.8228 25.8537 14.8949 26 15.999 26ZM11.1987 7.3125C11.1987 8.66125 10.1266 9.75 8.79854 9.75C7.47046 9.75 6.39839 8.66125 6.39839 7.3125C6.39839 5.96375 7.47046 4.875 8.79854 4.875C10.1266 4.875 11.1987 5.96375 11.1987 7.3125ZM25.5996 7.3125C25.5996 8.66125 24.5275 9.75 23.1994 9.75C21.8713 9.75 20.7993 8.66125 20.7993 7.3125C20.7993 5.96375 21.8713 4.875 23.1994 4.875C24.5275 4.875 25.5996 5.96375 25.5996 7.3125ZM18.3991 2.4375C18.3991 3.78625 17.3271 4.875 15.999 4.875C14.6709 4.875 13.5988 3.78625 13.5988 2.4375C13.5988 1.08875 14.6709 0 15.999 0C17.3271 0 18.3991 1.08875 18.3991 2.4375ZM18.3991 11.375C18.3991 12.7238 17.3271 13.8125 15.999 13.8125C14.6709 13.8125 13.5988 12.7238 13.5988 11.375C13.5988 10.0262 14.6709 8.9375 15.999 8.9375C17.3271 8.9375 18.3991 10.0262 18.3991 11.375Z" fill="#BF0A30"/>
</svg>
