<svg width="38" height="38" viewBox="0 0 38 38" fill="none" xmlns="http://www.w3.org/2000/svg">
<g filter="url(#filter0_d_129_1679)">
<circle cx="19" cy="15" r="15" fill="#BF0A30"/>
</g>
<path d="M19 0C16.0333 0 13.1332 0.879734 10.6665 2.52796C8.19972 4.17618 6.27713 6.51885 5.14181 9.25974C4.0065 12.0006 3.70945 15.0166 4.28823 17.9263C4.86701 20.8361 6.29562 23.5088 8.3934 25.6066C10.4912 27.7044 13.1639 29.133 16.0737 29.7118C18.9834 30.2905 21.9994 29.9935 24.7403 28.8582C27.4811 27.7229 29.8238 25.8003 31.472 23.3335C33.1203 20.8668 34 17.9667 34 15C33.996 11.023 32.4144 7.20997 29.6022 4.39778C26.79 1.5856 22.977 0.00397107 19 0ZM27.9085 11.5695V12.5385C27.9085 12.6127 27.8937 12.6861 27.8649 12.7544C27.836 12.8227 27.7938 12.8846 27.7407 12.9363C27.6875 12.9881 27.6246 13.0286 27.5555 13.0556C27.4864 13.0826 27.4126 13.0955 27.3385 13.0935C25.7547 12.9816 24.2396 12.4033 22.984 11.4315V18.5235C22.9837 19.3084 22.827 20.0854 22.5231 20.8091C22.2192 21.5328 21.7741 22.1887 21.214 22.7385C20.6493 23.3027 19.9776 23.7485 19.2384 24.0499C18.4992 24.3512 17.7072 24.5021 16.909 24.4935C15.3038 24.4912 13.7631 23.8613 12.616 22.7385C11.8861 22.0026 11.3603 21.0893 11.0905 20.0886C10.8207 19.0878 10.816 18.0341 11.077 17.031C11.3155 16.068 11.797 15.183 12.4765 14.4615C12.9832 13.8421 13.622 13.3438 14.3461 13.0031C15.0702 12.6623 15.8613 12.4877 16.6615 12.492H17.8915V15.0465C17.892 15.1207 17.8768 15.1941 17.8467 15.262C17.8166 15.3298 17.7724 15.3904 17.7171 15.4398C17.6617 15.4892 17.5965 15.5262 17.5257 15.5484C17.4549 15.5706 17.3802 15.5775 17.3065 15.5685C16.5923 15.354 15.8228 15.4251 15.1601 15.767C14.4973 16.1088 13.9932 16.6946 13.754 17.4008C13.5147 18.1071 13.559 18.8786 13.8776 19.5529C14.1961 20.2271 14.764 20.7513 15.4615 21.015C15.8665 21.2475 16.3195 21.384 16.7845 21.4155C17.1445 21.4305 17.5045 21.3855 17.8465 21.2775C18.4174 21.0849 18.9141 20.7189 19.2671 20.2306C19.6201 19.7423 19.812 19.156 19.816 18.5535V5.631C19.816 5.48804 19.8727 5.35092 19.9736 5.24969C20.0746 5.14846 20.2115 5.0914 20.3545 5.091H22.477C22.6149 5.09117 22.7475 5.1441 22.8477 5.23893C22.9478 5.33376 23.0078 5.4633 23.0155 5.601C23.0929 6.26284 23.3031 6.90225 23.6335 7.4809C23.9639 8.05955 24.4078 8.56552 24.9385 8.9685C25.6556 9.50683 26.5074 9.83694 27.4 9.9225C27.5337 9.93393 27.6587 9.99342 27.7519 10.0899C27.8452 10.1865 27.9002 10.3135 27.907 10.4475L27.9085 11.5695Z" fill="#FEFEFE"/>
<defs>
<filter id="filter0_d_129_1679" x="0" y="0" width="38" height="38" filterUnits="userSpaceOnUse" color-interpolation-filters="sRGB">
<feFlood flood-opacity="0" result="BackgroundImageFix"/>
<feColorMatrix in="SourceAlpha" type="matrix" values="0 0 0 0 0 0 0 0 0 0 0 0 0 0 0 0 0 0 127 0" result="hardAlpha"/>
<feOffset dy="4"/>
<feGaussianBlur stdDeviation="2"/>
<feComposite in2="hardAlpha" operator="out"/>
<feColorMatrix type="matrix" values="0 0 0 0 0 0 0 0 0 0 0 0 0 0 0 0 0 0 0.25 0"/>
<feBlend mode="normal" in2="BackgroundImageFix" result="effect1_dropShadow_129_1679"/>
<feBlend mode="normal" in="SourceGraphic" in2="effect1_dropShadow_129_1679" result="shape"/>
</filter>
</defs>
</svg>
