<svg width="125" height="125" viewBox="0 0 125 125" fill="none" xmlns="http://www.w3.org/2000/svg">
<path opacity="0.4" d="M72 101.506C97.9574 101.506 119 95.3841 119 87.8329C119 80.2816 97.9574 74.1602 72 74.1602C46.0426 74.1602 25 80.2816 25 87.8329C25 95.3841 46.0426 101.506 72 101.506Z" fill="url(#paint0_radial_248_3010)"/>
<g filter="url(#filter0_d_248_3010)">
<path style="mix-blend-mode:overlay" d="M95.6029 14.0088H48.3892C41.4185 14.0088 35.7676 19.6597 35.7676 26.6304V73.7244C35.7676 80.6952 41.4185 86.3461 48.3892 86.3461H95.6029C102.574 86.3461 108.224 80.6952 108.224 73.7244V26.6304C108.224 19.6597 102.574 14.0088 95.6029 14.0088Z" fill="url(#paint1_linear_248_3010)"/>
<path d="M95.3207 14.0084C102.448 14.0084 108.233 19.7851 108.233 26.9205V73.442C108.233 80.5689 102.456 86.3542 95.3207 86.3542H48.6796C41.5527 86.3542 35.7674 80.5775 35.7674 73.442V26.9205C35.7674 19.7936 41.5441 14.0084 48.6796 14.0084H95.3207ZM95.3207 13H48.6796C41.0058 13 34.7676 19.2467 34.7676 26.9205V73.442C34.7676 81.1158 41.0143 87.3625 48.6881 87.3625H95.3292C103.003 87.3625 109.25 81.1158 109.25 73.442V26.9205C109.25 19.2467 103.003 13 95.3292 13H95.3207Z" fill="url(#paint2_linear_248_3010)"/>
<path d="M84.7585 62.2478L86.2796 52.3265H76.76V45.8918C76.76 43.1743 78.0931 40.5338 82.3573 40.5338H86.6813V32.0909C86.6813 32.0909 82.7504 31.4243 78.9989 31.4243C71.1627 31.4243 66.0355 36.1756 66.0355 44.7809V52.3436H57.3191V62.2649H66.0355V86.252H76.76V62.2649H84.7585V62.2478Z" fill="url(#paint3_linear_248_3010)"/>
</g>
<defs>
<filter id="filter0_d_248_3010" x="0.917578" y="0.69" width="123.722" height="123.602" filterUnits="userSpaceOnUse" color-interpolation-filters="sRGB">
<feFlood flood-opacity="0" result="BackgroundImageFix"/>
<feColorMatrix in="SourceAlpha" type="matrix" values="0 0 0 0 0 0 0 0 0 0 0 0 0 0 0 0 0 0 127 0" result="hardAlpha"/>
<feOffset dx="-9.23" dy="12.31"/>
<feGaussianBlur stdDeviation="12.31"/>
<feColorMatrix type="matrix" values="0 0 0 0 0.709804 0 0 0 0 0.85098 0 0 0 0 0.960784 0 0 0 0.75 0"/>
<feBlend mode="normal" in2="BackgroundImageFix" result="effect1_dropShadow_248_3010"/>
<feBlend mode="normal" in="SourceGraphic" in2="effect1_dropShadow_248_3010" result="shape"/>
</filter>
<radialGradient id="paint0_radial_248_3010" cx="0" cy="0" r="1" gradientUnits="userSpaceOnUse" gradientTransform="translate(72 87.7923) scale(48.6493 12.1623)">
<stop stop-color="#4676ED"/>
<stop offset="0.09" stop-color="#4C7BED" stop-opacity="0.96"/>
<stop offset="0.24" stop-color="#5F89EF" stop-opacity="0.86"/>
<stop offset="0.42" stop-color="#7EA0F2" stop-opacity="0.69"/>
<stop offset="0.63" stop-color="#A9BFF6" stop-opacity="0.46"/>
<stop offset="0.87" stop-color="#DFE7FB" stop-opacity="0.17"/>
<stop offset="1" stop-color="white" stop-opacity="0"/>
</radialGradient>
<linearGradient id="paint1_linear_248_3010" x1="72.0003" y1="19.1788" x2="72.0003" y2="91.5246" gradientUnits="userSpaceOnUse">
<stop stop-color="white"/>
<stop offset="0.15" stop-color="#FCFCFC" stop-opacity="0.85"/>
<stop offset="0.45" stop-color="#F6F6F6" stop-opacity="0.58"/>
<stop offset="0.71" stop-color="#F2F2F2" stop-opacity="0.37"/>
<stop offset="0.9" stop-color="#EFEFEF" stop-opacity="0.25"/>
<stop offset="1" stop-color="#EFEFEF" stop-opacity="0.2"/>
</linearGradient>
<linearGradient id="paint2_linear_248_3010" x1="72.0001" y1="87.354" x2="72.0001" y2="13" gradientUnits="userSpaceOnUse">
<stop stop-color="white" stop-opacity="0.9"/>
<stop offset="0.03" stop-color="white" stop-opacity="0.83"/>
<stop offset="0.11" stop-color="white" stop-opacity="0.68"/>
<stop offset="0.17" stop-color="white" stop-opacity="0.58"/>
<stop offset="0.23" stop-color="white" stop-opacity="0.52"/>
<stop offset="0.28" stop-color="white" stop-opacity="0.5"/>
<stop offset="0.46" stop-color="#FDFDFD" stop-opacity="0.48"/>
<stop offset="0.67" stop-color="#F9F9F9" stop-opacity="0.43"/>
<stop offset="0.89" stop-color="#F3F3F3" stop-opacity="0.35"/>
<stop offset="1" stop-color="#EFEFEF" stop-opacity="0.3"/>
</linearGradient>
<linearGradient id="paint3_linear_248_3010" x1="72.0002" y1="33.2701" x2="72.0002" y2="83.9532" gradientUnits="userSpaceOnUse">
<stop stop-color="#4676ED"/>
<stop offset="0.19" stop-color="#436DE4"/>
<stop offset="0.49" stop-color="#3B54CD"/>
<stop offset="0.87" stop-color="#2F2DA8"/>
<stop offset="1" stop-color="#2B1E99"/>
</linearGradient>
</defs>
</svg>
