<svg width="220" height="78" viewBox="0 0 220 78" fill="none" xmlns="http://www.w3.org/2000/svg">
<g filter="url(#filter0_d_248_2999)">
<rect x="16" y="12" width="188" height="46" rx="23" fill="white" shape-rendering="crispEdges"/>
<path d="M37.652 36.212C37.652 36.484 37.596 36.736 37.484 36.968C37.372 37.2 37.208 37.4 36.992 37.568C36.784 37.736 36.532 37.868 36.236 37.964C35.94 38.06 35.612 38.108 35.252 38.108C34.868 38.108 34.516 38.06 34.196 37.964C33.876 37.86 33.596 37.72 33.356 37.544C33.124 37.36 32.936 37.144 32.792 36.896C32.656 36.648 32.58 36.372 32.564 36.068H33.692C33.724 36.388 33.872 36.656 34.136 36.872C34.408 37.08 34.776 37.184 35.24 37.184C35.672 37.184 36.004 37.092 36.236 36.908C36.468 36.716 36.584 36.484 36.584 36.212C36.584 35.972 36.488 35.784 36.296 35.648C36.104 35.512 35.864 35.4 35.576 35.312C35.288 35.224 34.976 35.14 34.64 35.06C34.304 34.972 33.992 34.856 33.704 34.712C33.416 34.56 33.176 34.364 32.984 34.124C32.792 33.884 32.696 33.56 32.696 33.152C32.696 32.904 32.752 32.668 32.864 32.444C32.976 32.22 33.136 32.024 33.344 31.856C33.56 31.688 33.816 31.556 34.112 31.46C34.408 31.364 34.74 31.316 35.108 31.316C35.836 31.316 36.42 31.5 36.86 31.868C37.308 32.228 37.552 32.732 37.592 33.38H36.5C36.476 33.044 36.34 32.772 36.092 32.564C35.852 32.348 35.512 32.24 35.072 32.24C34.664 32.24 34.348 32.328 34.124 32.504C33.9 32.672 33.788 32.888 33.788 33.152C33.788 33.408 33.88 33.608 34.064 33.752C34.256 33.896 34.492 34.016 34.772 34.112C35.06 34.208 35.368 34.3 35.696 34.388C36.032 34.468 36.344 34.58 36.632 34.724C36.92 34.86 37.16 35.044 37.352 35.276C37.544 35.508 37.644 35.82 37.652 36.212ZM45.5255 38H44.4335V37.028C44.2255 37.372 43.9335 37.636 43.5575 37.82C43.1815 38.004 42.7735 38.096 42.3335 38.096C41.9575 38.096 41.6055 38.04 41.2775 37.928C40.9495 37.808 40.6615 37.632 40.4135 37.4C40.1735 37.16 39.9815 36.864 39.8375 36.512C39.7015 36.16 39.6335 35.748 39.6335 35.276V31.424H40.7135V35.132C40.7135 35.804 40.8815 36.308 41.2175 36.644C41.5535 36.98 41.9975 37.148 42.5495 37.148C43.1175 37.148 43.5735 36.976 43.9175 36.632C44.2615 36.28 44.4335 35.748 44.4335 35.036V31.424H45.5255V38ZM48.9613 32.636C49.0573 32.46 49.1813 32.292 49.3333 32.132C49.4933 31.972 49.6773 31.832 49.8853 31.712C50.0933 31.592 50.3253 31.496 50.5813 31.424C50.8373 31.352 51.1173 31.316 51.4213 31.316C51.8613 31.316 52.2693 31.396 52.6453 31.556C53.0293 31.716 53.3613 31.944 53.6413 32.24C53.9213 32.528 54.1413 32.88 54.3013 33.296C54.4613 33.712 54.5413 34.176 54.5413 34.688C54.5413 35.2 54.4613 35.668 54.3013 36.092C54.1413 36.508 53.9213 36.868 53.6413 37.172C53.3613 37.468 53.0293 37.7 52.6453 37.868C52.2693 38.028 51.8613 38.108 51.4213 38.108C51.1173 38.108 50.8373 38.072 50.5813 38C50.3333 37.92 50.1053 37.82 49.8973 37.7C49.6893 37.58 49.5053 37.44 49.3453 37.28C49.1933 37.12 49.0653 36.956 48.9613 36.788V41.12H47.8693V31.424H48.9613V32.636ZM53.4253 34.688C53.4253 34.304 53.3653 33.96 53.2453 33.656C53.1253 33.352 52.9613 33.1 52.7533 32.9C52.5533 32.692 52.3173 32.536 52.0453 32.432C51.7813 32.32 51.4973 32.264 51.1933 32.264C50.8973 32.264 50.6133 32.32 50.3413 32.432C50.0693 32.544 49.8293 32.704 49.6213 32.912C49.4213 33.12 49.2613 33.376 49.1413 33.68C49.0213 33.976 48.9613 34.316 48.9613 34.7C48.9613 35.084 49.0213 35.428 49.1413 35.732C49.2613 36.036 49.4213 36.296 49.6213 36.512C49.8293 36.72 50.0693 36.88 50.3413 36.992C50.6133 37.096 50.8973 37.148 51.1933 37.148C51.4973 37.148 51.7813 37.092 52.0453 36.98C52.3173 36.868 52.5533 36.708 52.7533 36.5C52.9613 36.292 53.1253 36.036 53.2453 35.732C53.3653 35.42 53.4253 35.072 53.4253 34.688ZM57.5707 32.636C57.6667 32.46 57.7907 32.292 57.9427 32.132C58.1027 31.972 58.2867 31.832 58.4947 31.712C58.7027 31.592 58.9347 31.496 59.1907 31.424C59.4467 31.352 59.7267 31.316 60.0307 31.316C60.4707 31.316 60.8787 31.396 61.2547 31.556C61.6387 31.716 61.9707 31.944 62.2507 32.24C62.5307 32.528 62.7507 32.88 62.9107 33.296C63.0707 33.712 63.1507 34.176 63.1507 34.688C63.1507 35.2 63.0707 35.668 62.9107 36.092C62.7507 36.508 62.5307 36.868 62.2507 37.172C61.9707 37.468 61.6387 37.7 61.2547 37.868C60.8787 38.028 60.4707 38.108 60.0307 38.108C59.7267 38.108 59.4467 38.072 59.1907 38C58.9427 37.92 58.7147 37.82 58.5067 37.7C58.2987 37.58 58.1147 37.44 57.9547 37.28C57.8027 37.12 57.6747 36.956 57.5707 36.788V41.12H56.4787V31.424H57.5707V32.636ZM62.0347 34.688C62.0347 34.304 61.9747 33.96 61.8547 33.656C61.7347 33.352 61.5707 33.1 61.3627 32.9C61.1627 32.692 60.9267 32.536 60.6547 32.432C60.3907 32.32 60.1067 32.264 59.8027 32.264C59.5067 32.264 59.2227 32.32 58.9507 32.432C58.6787 32.544 58.4387 32.704 58.2307 32.912C58.0307 33.12 57.8707 33.376 57.7507 33.68C57.6307 33.976 57.5707 34.316 57.5707 34.7C57.5707 35.084 57.6307 35.428 57.7507 35.732C57.8707 36.036 58.0307 36.296 58.2307 36.512C58.4387 36.72 58.6787 36.88 58.9507 36.992C59.2227 37.096 59.5067 37.148 59.8027 37.148C60.1067 37.148 60.3907 37.092 60.6547 36.98C60.9267 36.868 61.1627 36.708 61.3627 36.5C61.5707 36.292 61.7347 36.036 61.8547 35.732C61.9747 35.42 62.0347 35.072 62.0347 34.688ZM71.3281 34.7C71.3281 35.22 71.2401 35.692 71.0641 36.116C70.8881 36.532 70.6481 36.888 70.3441 37.184C70.0401 37.48 69.6801 37.708 69.2641 37.868C68.8561 38.028 68.4201 38.108 67.9561 38.108C67.4921 38.108 67.0601 38.028 66.6601 37.868C66.2601 37.708 65.9121 37.48 65.6161 37.184C65.3281 36.888 65.1001 36.532 64.9321 36.116C64.7641 35.692 64.6801 35.22 64.6801 34.7C64.6801 34.18 64.7641 33.712 64.9321 33.296C65.1081 32.88 65.3441 32.524 65.6401 32.228C65.9441 31.932 66.2961 31.708 66.6961 31.556C67.1041 31.396 67.5401 31.316 68.0041 31.316C68.4681 31.316 68.9041 31.396 69.3121 31.556C69.7201 31.708 70.0721 31.932 70.3681 32.228C70.6641 32.524 70.8961 32.88 71.0641 33.296C71.2401 33.712 71.3281 34.18 71.3281 34.7ZM65.7961 34.7C65.7961 35.116 65.8561 35.48 65.9761 35.792C66.0961 36.096 66.2521 36.348 66.4441 36.548C66.6441 36.748 66.8721 36.9 67.1281 37.004C67.3921 37.1 67.6681 37.148 67.9561 37.148C68.2441 37.148 68.5201 37.1 68.7841 37.004C69.0561 36.9 69.2961 36.748 69.5041 36.548C69.7201 36.348 69.8921 36.096 70.0201 35.792C70.1481 35.48 70.2121 35.116 70.2121 34.7C70.2121 34.284 70.1481 33.924 70.0201 33.62C69.9001 33.316 69.7361 33.064 69.5281 32.864C69.3201 32.664 69.0801 32.516 68.8081 32.42C68.5441 32.316 68.2721 32.264 67.9921 32.264C67.7041 32.264 67.4281 32.316 67.1641 32.42C66.9001 32.516 66.6641 32.664 66.4561 32.864C66.2561 33.064 66.0961 33.316 65.9761 33.62C65.8561 33.924 65.7961 34.284 65.7961 34.7ZM74.3558 38H73.2638V31.424H74.3558V32.492C74.5398 32.124 74.8078 31.836 75.1598 31.628C75.5118 31.412 75.9518 31.304 76.4798 31.304V32.432H76.1918C75.9278 32.432 75.6838 32.464 75.4598 32.528C75.2358 32.592 75.0398 32.704 74.8718 32.864C74.7118 33.016 74.5838 33.22 74.4878 33.476C74.3998 33.724 74.3558 34.04 74.3558 34.424V38ZM78.4804 32.324H77.6284V31.424H78.4804V29.768H79.5724V31.424H81.2884V32.324H79.5724V36.2C79.5724 36.528 79.6404 36.756 79.7764 36.884C79.9124 37.012 80.1484 37.076 80.4844 37.076H81.2884V38H80.3044C79.7204 38 79.2684 37.868 78.9484 37.604C78.6364 37.332 78.4804 36.864 78.4804 36.2V32.324Z" fill="#D0D5DD"/>
<path d="M111.384 29.624H117.528V30.98H115.296V38H113.616V30.98H111.384V29.624ZM119.254 29.12H120.934V32.18C121.15 31.9 121.434 31.676 121.786 31.508C122.146 31.34 122.55 31.256 122.998 31.256C123.374 31.256 123.718 31.32 124.03 31.448C124.35 31.568 124.626 31.748 124.858 31.988C125.09 32.228 125.27 32.528 125.398 32.888C125.526 33.24 125.59 33.644 125.59 34.1V38H123.91V34.328C123.91 33.792 123.774 33.384 123.502 33.104C123.238 32.824 122.882 32.684 122.434 32.684C121.978 32.684 121.614 32.824 121.342 33.104C121.07 33.384 120.934 33.792 120.934 34.328V38H119.254V29.12ZM129.367 38H127.687V31.352H129.367V32.384C129.575 32.04 129.851 31.768 130.195 31.568C130.539 31.36 130.943 31.256 131.407 31.256V33.02H130.963C130.715 33.02 130.491 33.048 130.291 33.104C130.099 33.152 129.931 33.24 129.787 33.368C129.651 33.496 129.547 33.668 129.475 33.884C129.403 34.1 129.367 34.368 129.367 34.688V38ZM139.459 34.676C139.459 35.196 139.367 35.668 139.183 36.092C139.007 36.516 138.763 36.88 138.451 37.184C138.139 37.48 137.771 37.708 137.347 37.868C136.923 38.028 136.471 38.108 135.991 38.108C135.511 38.108 135.063 38.028 134.647 37.868C134.239 37.708 133.883 37.48 133.579 37.184C133.283 36.88 133.047 36.516 132.871 36.092C132.703 35.668 132.619 35.196 132.619 34.676C132.619 34.148 132.707 33.676 132.883 33.26C133.059 32.836 133.299 32.476 133.603 32.18C133.915 31.876 134.279 31.644 134.695 31.484C135.111 31.324 135.559 31.244 136.039 31.244C136.519 31.244 136.967 31.324 137.383 31.484C137.799 31.644 138.159 31.876 138.463 32.18C138.775 32.476 139.019 32.836 139.195 33.26C139.371 33.676 139.459 34.148 139.459 34.676ZM134.323 34.676C134.323 35.004 134.367 35.292 134.455 35.54C134.543 35.788 134.663 35.996 134.815 36.164C134.967 36.324 135.143 36.444 135.343 36.524C135.551 36.604 135.767 36.644 135.991 36.644C136.215 36.644 136.431 36.604 136.639 36.524C136.847 36.444 137.031 36.324 137.191 36.164C137.351 35.996 137.479 35.788 137.575 35.54C137.679 35.292 137.731 35.004 137.731 34.676C137.731 34.34 137.683 34.052 137.587 33.812C137.491 33.564 137.363 33.36 137.203 33.2C137.043 33.032 136.859 32.908 136.651 32.828C136.451 32.748 136.239 32.708 136.015 32.708C135.791 32.708 135.575 32.748 135.367 32.828C135.167 32.908 134.987 33.032 134.827 33.2C134.675 33.36 134.551 33.564 134.455 33.812C134.367 34.052 134.323 34.34 134.323 34.676ZM147.467 38H145.775V37.16C145.567 37.44 145.287 37.664 144.935 37.832C144.591 38 144.211 38.084 143.795 38.084C143.411 38.084 143.055 38.024 142.727 37.904C142.399 37.776 142.115 37.592 141.875 37.352C141.643 37.112 141.459 36.816 141.323 36.464C141.195 36.112 141.131 35.708 141.131 35.252V31.352H142.811V35.012C142.811 35.548 142.943 35.956 143.207 36.236C143.479 36.516 143.839 36.656 144.287 36.656C144.743 36.656 145.103 36.516 145.367 36.236C145.639 35.956 145.775 35.548 145.775 35.012V31.352H147.467V38ZM149.193 34.652C149.193 34.132 149.269 33.664 149.421 33.248C149.581 32.824 149.797 32.464 150.069 32.168C150.349 31.872 150.673 31.644 151.041 31.484C151.409 31.324 151.805 31.244 152.229 31.244C152.757 31.244 153.205 31.348 153.573 31.556C153.941 31.764 154.225 32.012 154.425 32.3V31.352H156.117V38.048C156.117 38.496 156.049 38.916 155.913 39.308C155.777 39.7 155.569 40.04 155.289 40.328C155.017 40.624 154.673 40.856 154.257 41.024C153.849 41.192 153.373 41.276 152.829 41.276C152.357 41.276 151.925 41.22 151.533 41.108C151.149 40.996 150.809 40.832 150.513 40.616C150.225 40.408 149.989 40.152 149.805 39.848C149.629 39.544 149.521 39.2 149.481 38.816H151.149C151.237 39.12 151.425 39.36 151.713 39.536C152.001 39.72 152.357 39.812 152.781 39.812C153.013 39.812 153.229 39.776 153.429 39.704C153.629 39.64 153.801 39.536 153.945 39.392C154.097 39.248 154.213 39.064 154.293 38.84C154.381 38.624 154.425 38.36 154.425 38.048V37.016C154.225 37.304 153.941 37.56 153.573 37.784C153.205 38 152.757 38.108 152.229 38.108C151.805 38.108 151.409 38.028 151.041 37.868C150.673 37.7 150.349 37.464 150.069 37.16C149.797 36.856 149.581 36.492 149.421 36.068C149.269 35.644 149.193 35.172 149.193 34.652ZM154.425 34.676C154.425 34.364 154.377 34.088 154.281 33.848C154.185 33.6 154.053 33.392 153.885 33.224C153.725 33.056 153.537 32.932 153.321 32.852C153.113 32.764 152.893 32.72 152.661 32.72C152.437 32.72 152.217 32.764 152.001 32.852C151.793 32.932 151.609 33.052 151.449 33.212C151.289 33.372 151.157 33.576 151.053 33.824C150.957 34.064 150.909 34.34 150.909 34.652C150.909 34.964 150.957 35.244 151.053 35.492C151.157 35.74 151.289 35.948 151.449 36.116C151.609 36.284 151.793 36.412 152.001 36.5C152.217 36.588 152.437 36.632 152.661 36.632C152.893 36.632 153.113 36.592 153.321 36.512C153.537 36.424 153.725 36.296 153.885 36.128C154.053 35.96 154.185 35.756 154.281 35.516C154.377 35.268 154.425 34.988 154.425 34.676ZM158.258 29.12H159.938V32.18C160.154 31.9 160.438 31.676 160.79 31.508C161.15 31.34 161.554 31.256 162.002 31.256C162.378 31.256 162.722 31.32 163.034 31.448C163.354 31.568 163.63 31.748 163.862 31.988C164.094 32.228 164.274 32.528 164.402 32.888C164.53 33.24 164.594 33.644 164.594 34.1V38H162.914V34.328C162.914 33.792 162.778 33.384 162.506 33.104C162.242 32.824 161.886 32.684 161.438 32.684C160.982 32.684 160.618 32.824 160.346 33.104C160.074 33.384 159.938 33.792 159.938 34.328V38H158.258V29.12ZM173.111 34.676C173.111 35.196 173.019 35.668 172.835 36.092C172.659 36.516 172.415 36.88 172.103 37.184C171.791 37.48 171.423 37.708 170.999 37.868C170.575 38.028 170.123 38.108 169.643 38.108C169.163 38.108 168.715 38.028 168.299 37.868C167.891 37.708 167.535 37.48 167.231 37.184C166.935 36.88 166.699 36.516 166.523 36.092C166.355 35.668 166.271 35.196 166.271 34.676C166.271 34.148 166.359 33.676 166.535 33.26C166.711 32.836 166.951 32.476 167.255 32.18C167.567 31.876 167.931 31.644 168.347 31.484C168.763 31.324 169.211 31.244 169.691 31.244C170.171 31.244 170.619 31.324 171.035 31.484C171.451 31.644 171.811 31.876 172.115 32.18C172.427 32.476 172.671 32.836 172.847 33.26C173.023 33.676 173.111 34.148 173.111 34.676ZM167.975 34.676C167.975 35.004 168.019 35.292 168.107 35.54C168.195 35.788 168.315 35.996 168.467 36.164C168.619 36.324 168.795 36.444 168.995 36.524C169.203 36.604 169.419 36.644 169.643 36.644C169.867 36.644 170.083 36.604 170.291 36.524C170.499 36.444 170.683 36.324 170.843 36.164C171.003 35.996 171.131 35.788 171.227 35.54C171.331 35.292 171.383 35.004 171.383 34.676C171.383 34.34 171.335 34.052 171.239 33.812C171.143 33.564 171.015 33.36 170.855 33.2C170.695 33.032 170.511 32.908 170.303 32.828C170.103 32.748 169.891 32.708 169.667 32.708C169.443 32.708 169.227 32.748 169.019 32.828C168.819 32.908 168.639 33.032 168.479 33.2C168.327 33.36 168.203 33.564 168.107 33.812C168.019 34.052 167.975 34.34 167.975 34.676ZM181.12 38H179.428V37.16C179.22 37.44 178.94 37.664 178.588 37.832C178.244 38 177.864 38.084 177.448 38.084C177.064 38.084 176.708 38.024 176.38 37.904C176.052 37.776 175.768 37.592 175.528 37.352C175.296 37.112 175.112 36.816 174.976 36.464C174.848 36.112 174.784 35.708 174.784 35.252V31.352H176.464V35.012C176.464 35.548 176.596 35.956 176.86 36.236C177.132 36.516 177.492 36.656 177.94 36.656C178.396 36.656 178.756 36.516 179.02 36.236C179.292 35.956 179.428 35.548 179.428 35.012V31.352H181.12V38ZM183.541 32.732H182.749V31.352H183.541V29.708H185.233V31.352H186.721V32.732H185.233V35.948C185.233 36.172 185.285 36.336 185.389 36.44C185.493 36.536 185.677 36.584 185.941 36.584H186.721V38H185.665C185.345 38 185.053 37.964 184.789 37.892C184.533 37.82 184.309 37.704 184.117 37.544C183.933 37.376 183.789 37.164 183.685 36.908C183.589 36.644 183.541 36.32 183.541 35.936V32.732Z" fill="#1C1C1C"/>
</g>
<defs>
<filter id="filter0_d_248_2999" x="0" y="0" width="220" height="78" filterUnits="userSpaceOnUse" color-interpolation-filters="sRGB">
<feFlood flood-opacity="0" result="BackgroundImageFix"/>
<feColorMatrix in="SourceAlpha" type="matrix" values="0 0 0 0 0 0 0 0 0 0 0 0 0 0 0 0 0 0 127 0" result="hardAlpha"/>
<feOffset dy="4"/>
<feGaussianBlur stdDeviation="8"/>
<feComposite in2="hardAlpha" operator="out"/>
<feColorMatrix type="matrix" values="0 0 0 0 0 0 0 0 0 0 0 0 0 0 0 0 0 0 0.25 0"/>
<feBlend mode="normal" in2="BackgroundImageFix" result="effect1_dropShadow_248_2999"/>
<feBlend mode="normal" in="SourceGraphic" in2="effect1_dropShadow_248_2999" result="shape"/>
</filter>
</defs>
</svg>
