<svg width="137" height="137" viewBox="0 0 137 137" fill="none" xmlns="http://www.w3.org/2000/svg">
<path opacity="0.4" d="M78 116.57C108.376 116.57 133 109.407 133 100.57C133 91.7338 108.376 84.5703 78 84.5703C47.6243 84.5703 23 91.7338 23 100.57C23 109.407 47.6243 116.57 78 116.57Z" fill="url(#paint0_radial_248_3019)"/>
<g filter="url(#filter0_d_248_3019)">
<path style="mix-blend-mode:overlay" d="M105.62 14.1802H50.3699C42.2126 14.1802 35.5999 20.7929 35.5999 28.9502V84.0702C35.5999 92.2274 42.2126 98.8402 50.3699 98.8402H105.62C113.777 98.8402 120.39 92.2274 120.39 84.0702V28.9502C120.39 20.7929 113.777 14.1802 105.62 14.1802Z" fill="url(#paint1_linear_248_3019)"/>
<path d="M105.29 14.18C113.63 14.18 120.4 20.94 120.4 29.29V83.73C120.4 92.07 113.64 98.84 105.29 98.84H50.7099C42.3699 98.84 35.5999 92.08 35.5999 83.73V29.29C35.5999 20.95 42.3599 14.18 50.7099 14.18H105.29ZM105.29 13H50.7099C41.7299 13 34.4299 20.31 34.4299 29.29V83.73C34.4299 92.71 41.7399 100.02 50.7199 100.02H105.3C114.28 100.02 121.59 92.71 121.59 83.73V29.29C121.59 20.31 114.28 13 105.3 13H105.29Z" fill="url(#paint2_linear_248_3019)"/>
<path d="M99.08 45.9203C98.57 44.0303 97.08 42.5404 95.19 42.0304C91.76 41.1104 78 41.1104 78 41.1104C78 41.1104 64.24 41.1104 60.81 42.0304C58.92 42.5404 57.43 44.0303 56.92 45.9203C56 49.3503 56 56.5103 56 56.5103C56 56.5103 56 63.6703 56.92 67.1003C57.43 68.9903 58.92 70.4804 60.81 70.9904C64.24 71.9104 78 71.9104 78 71.9104C78 71.9104 91.76 71.9104 95.19 70.9904C97.08 70.4804 98.57 68.9903 99.08 67.1003C100 63.6703 100 56.5103 100 56.5103C100 56.5103 100 49.3503 99.08 45.9203ZM73.6 63.1104V49.9104L85.03 56.5103L73.6 63.1104Z" fill="url(#paint3_linear_248_3019)"/>
</g>
<defs>
<filter id="filter0_d_248_3019" x="0.579931" y="0.69" width="136.4" height="136.26" filterUnits="userSpaceOnUse" color-interpolation-filters="sRGB">
<feFlood flood-opacity="0" result="BackgroundImageFix"/>
<feColorMatrix in="SourceAlpha" type="matrix" values="0 0 0 0 0 0 0 0 0 0 0 0 0 0 0 0 0 0 127 0" result="hardAlpha"/>
<feOffset dx="-9.23" dy="12.31"/>
<feGaussianBlur stdDeviation="12.31"/>
<feColorMatrix type="matrix" values="0 0 0 0 0.709804 0 0 0 0 0.85098 0 0 0 0 0.960784 0 0 0 0.75 0"/>
<feBlend mode="normal" in2="BackgroundImageFix" result="effect1_dropShadow_248_3019"/>
<feBlend mode="normal" in="SourceGraphic" in2="effect1_dropShadow_248_3019" result="shape"/>
</filter>
<radialGradient id="paint0_radial_248_3019" cx="0" cy="0" r="1" gradientUnits="userSpaceOnUse" gradientTransform="translate(78 100.523) scale(56.93 14.2325)">
<stop stop-color="#FC0001"/>
<stop offset="0.09" stop-color="#FC0909" stop-opacity="0.96"/>
<stop offset="0.23" stop-color="#FC2122" stop-opacity="0.87"/>
<stop offset="0.4" stop-color="#FC494A" stop-opacity="0.71"/>
<stop offset="0.61" stop-color="#FD8181" stop-opacity="0.49"/>
<stop offset="0.83" stop-color="#FEC7C7" stop-opacity="0.22"/>
<stop offset="1" stop-color="white" stop-opacity="0"/>
</radialGradient>
<linearGradient id="paint1_linear_248_3019" x1="77.9999" y1="20.2302" x2="77.9999" y2="104.89" gradientUnits="userSpaceOnUse">
<stop stop-color="white"/>
<stop offset="0.15" stop-color="#FCFCFC" stop-opacity="0.85"/>
<stop offset="0.45" stop-color="#F6F6F6" stop-opacity="0.58"/>
<stop offset="0.71" stop-color="#F2F2F2" stop-opacity="0.37"/>
<stop offset="0.9" stop-color="#EFEFEF" stop-opacity="0.25"/>
<stop offset="1" stop-color="#EFEFEF" stop-opacity="0.2"/>
</linearGradient>
<linearGradient id="paint2_linear_248_3019" x1="77.9999" y1="100.01" x2="77.9999" y2="13" gradientUnits="userSpaceOnUse">
<stop stop-color="white" stop-opacity="0.9"/>
<stop offset="0.03" stop-color="white" stop-opacity="0.83"/>
<stop offset="0.11" stop-color="white" stop-opacity="0.68"/>
<stop offset="0.17" stop-color="white" stop-opacity="0.58"/>
<stop offset="0.23" stop-color="white" stop-opacity="0.52"/>
<stop offset="0.28" stop-color="white" stop-opacity="0.5"/>
<stop offset="0.46" stop-color="#FDFDFD" stop-opacity="0.48"/>
<stop offset="0.67" stop-color="#F9F9F9" stop-opacity="0.43"/>
<stop offset="0.89" stop-color="#F3F3F3" stop-opacity="0.35"/>
<stop offset="1" stop-color="#EFEFEF" stop-opacity="0.3"/>
</linearGradient>
<linearGradient id="paint3_linear_248_3019" x1="78" y1="42.1504" x2="78" y2="70.6204" gradientUnits="userSpaceOnUse">
<stop stop-color="#DA0100"/>
<stop offset="0.21" stop-color="#D50000"/>
<stop offset="0.43" stop-color="#C80000"/>
<stop offset="0.66" stop-color="#B20000"/>
<stop offset="0.9" stop-color="#930000"/>
<stop offset="1" stop-color="#850000"/>
</linearGradient>
</defs>
</svg>
